<svg width="30" height="28" viewBox="0 0 30 28" fill="none" xmlns="http://www.w3.org/2000/svg">
<path d="M18.3984 6.8281C18.0727 6.72271 17.776 6.54287 17.5319 6.30284C17.2878 6.0628 17.103 5.76919 16.9922 5.44528L15.4687 0.724971C15.4379 0.631189 15.3782 0.549532 15.2983 0.491643C15.2183 0.433754 15.1221 0.402588 15.0234 0.402588C14.9247 0.402588 14.8285 0.433754 14.7485 0.491643C14.6686 0.549532 14.6089 0.631189 14.5781 0.724971L12.9843 5.44528C12.8749 5.76616 12.6934 6.05766 12.4536 6.29738C12.2139 6.53711 11.9224 6.71866 11.6015 6.8281L6.88122 8.39841C6.78744 8.42923 6.70578 8.48888 6.64789 8.56884C6.59 8.6488 6.55884 8.745 6.55884 8.84372C6.55884 8.94244 6.59 9.03864 6.64789 9.1186C6.70578 9.19856 6.78744 9.25821 6.88122 9.28903L11.6015 10.8593C11.9229 10.9678 12.2149 11.1491 12.4548 11.3889C12.6946 11.6288 12.8759 11.9208 12.9843 12.2422L14.5547 16.9625C14.5855 17.0563 14.6451 17.1379 14.7251 17.1958C14.8051 17.2537 14.9013 17.2849 15 17.2849C15.0987 17.2849 15.1949 17.2537 15.2748 17.1958C15.3548 17.1379 15.4145 17.0563 15.4453 16.9625L17.0156 12.2422C17.1264 11.9183 17.3112 11.6246 17.5553 11.3846C17.7994 11.1446 18.0961 10.9647 18.4218 10.8593L23.1187 9.31247C23.2125 9.28165 23.2942 9.222 23.352 9.14204C23.4099 9.06207 23.4411 8.96588 23.4411 8.86716C23.4411 8.76844 23.4099 8.67224 23.352 8.59228C23.2942 8.51232 23.2125 8.45267 23.1187 8.42185L18.3984 6.8281ZM18.1031 9.97341C17.6436 10.1267 17.2261 10.3848 16.8836 10.7273C16.5411 11.0698 16.283 11.4874 16.1297 11.9468L15 15.3312L13.875 11.9468C13.7202 11.4869 13.4611 11.0689 13.1179 10.7258C12.7748 10.3826 12.3568 10.1235 11.8968 9.96872L8.51247 8.84372L11.8968 7.71403C12.356 7.56009 12.7732 7.30176 13.1156 6.95934C13.458 6.61691 13.7163 6.19974 13.8703 5.7406L15 2.35622L16.125 5.7406C16.2797 6.20006 16.5389 6.61739 16.8821 6.95981C17.2253 7.30222 17.6433 7.56039 18.1031 7.71403L21.4875 8.84372L18.1031 9.97341ZM29.2125 21.0547L25.8797 19.9437C25.6736 19.8746 25.4863 19.7586 25.3326 19.6049C25.1789 19.4512 25.0629 19.2639 24.9937 19.0578L23.9062 15.725C23.8754 15.6312 23.8157 15.5495 23.7358 15.4916C23.6558 15.4338 23.5596 15.4026 23.4609 15.4026C23.3622 15.4026 23.266 15.4338 23.186 15.4916C23.1061 15.5495 23.0464 15.6312 23.0156 15.725L21.9047 19.0578C21.8355 19.2639 21.7195 19.4512 21.5658 19.6049C21.4121 19.7586 21.2248 19.8746 21.0187 19.9437L17.6859 21.0547C17.5921 21.0855 17.5105 21.1451 17.4526 21.2251C17.3947 21.3051 17.3635 21.4013 17.3635 21.5C17.3635 21.5987 17.3947 21.6949 17.4526 21.7748C17.5105 21.8548 17.5921 21.9145 17.6859 21.9453L21.0187 23.0562C21.2248 23.1254 21.4121 23.2414 21.5658 23.3951C21.7195 23.5488 21.8355 23.7361 21.9047 23.9422L23.0156 27.275C23.0464 27.3688 23.1061 27.4504 23.186 27.5083C23.266 27.5662 23.3622 27.5974 23.4609 27.5974C23.5596 27.5974 23.6558 27.5662 23.7358 27.5083C23.8157 27.4504 23.8754 27.3688 23.9062 27.275L25.0125 23.9422C25.0821 23.7356 25.1988 23.548 25.3534 23.3942C25.5079 23.2405 25.6961 23.1247 25.9031 23.0562L29.2125 21.9687C29.3062 21.9379 29.3879 21.8783 29.4458 21.7983C29.5037 21.7183 29.5349 21.6221 29.5349 21.5234C29.5349 21.4247 29.5037 21.3285 29.4458 21.2485C29.3879 21.1686 29.3062 21.1089 29.2125 21.0781V21.0547ZM25.5843 22.1656C25.2395 22.2807 24.9261 22.4744 24.669 22.7315C24.4119 22.9886 24.2182 23.302 24.1031 23.6468L23.4375 25.6437L22.7718 23.6468C22.6567 23.302 22.463 22.9886 22.2059 22.7315C21.9488 22.4744 21.6355 22.2807 21.2906 22.1656L19.2937 21.5L21.2906 20.8343C21.6355 20.7193 21.9488 20.5255 22.2059 20.2684C22.463 20.0113 22.6567 19.698 22.7718 19.3531L23.4375 17.3562L24.1031 19.3531C24.2182 19.698 24.4119 20.0113 24.669 20.2684C24.9261 20.5255 25.2395 20.7193 25.5843 20.8343L27.5812 21.5L25.5843 22.1656ZM5.00622 23.9422L6.11716 27.275C6.14798 27.3688 6.20763 27.4504 6.28759 27.5083C6.36755 27.5662 6.46375 27.5974 6.56247 27.5974C6.66119 27.5974 6.75739 27.5662 6.83735 27.5083C6.91731 27.4504 6.97696 27.3688 7.00778 27.275L8.11403 23.9422C8.18365 23.7356 8.30035 23.548 8.45492 23.3942C8.60949 23.2405 8.79769 23.1247 9.00466 23.0562L12.3375 21.9687C12.4313 21.9379 12.5129 21.8783 12.5708 21.7983C12.6287 21.7183 12.6599 21.6221 12.6599 21.5234C12.6599 21.4247 12.6287 21.3285 12.5708 21.2485C12.5129 21.1686 12.4313 21.1089 12.3375 21.0781L9.00466 19.9672C8.79855 19.898 8.61129 19.782 8.45757 19.6283C8.30385 19.4746 8.18786 19.2873 8.11872 19.0812L7.03122 15.725C7.0004 15.6312 6.94075 15.5495 6.86079 15.4916C6.78082 15.4338 6.68463 15.4026 6.58591 15.4026C6.48719 15.4026 6.39099 15.4338 6.31103 15.4916C6.23107 15.5495 6.17142 15.6312 6.1406 15.725L5.02966 19.0578C4.96051 19.2639 4.84453 19.4512 4.69081 19.6049C4.53709 19.7586 4.34982 19.8746 4.14372 19.9437L0.787471 21.0547C0.693689 21.0855 0.612032 21.1451 0.554143 21.2251C0.496254 21.3051 0.465088 21.4013 0.465088 21.5C0.465088 21.5987 0.496254 21.6949 0.554143 21.7748C0.612032 21.8548 0.693689 21.9145 0.787471 21.9453L4.12028 23.0562C4.32638 23.1254 4.51365 23.2414 4.66737 23.3951C4.82109 23.5488 4.93708 23.7361 5.00622 23.9422ZM4.4156 20.8343C4.76047 20.7193 5.07383 20.5255 5.33092 20.2684C5.588 20.0113 5.78175 19.698 5.89685 19.3531L6.56247 17.3562L7.2281 19.3531C7.34319 19.698 7.53694 20.0113 7.79402 20.2684C8.05111 20.5255 8.36447 20.7193 8.70934 20.8343L10.7062 21.5L8.70934 22.1656C8.36447 22.2807 8.05111 22.4744 7.79402 22.7315C7.53694 22.9886 7.34319 23.302 7.2281 23.6468L6.56247 25.6437L5.89685 23.6468C5.78175 23.302 5.588 22.9886 5.33092 22.7315C5.07383 22.4744 4.76047 22.2807 4.4156 22.1656L2.41872 21.5L4.4156 20.8343Z" fill="#F2F2F2"/>
</svg>
