<svg width="30" height="30" viewBox="0 0 30 30" fill="none" xmlns="http://www.w3.org/2000/svg">
<path d="M14.0625 16.875C14.0625 20.5078 13.2028 23.97 12.1875 27.1875H26.25C27.4397 22.9913 27.1875 19.7653 27.1875 16.875M14.0625 16.875V15C14.0625 14.5027 14.26 14.0258 14.6117 13.6742C14.9633 13.3225 15.4402 13.125 15.9375 13.125H25.3125C25.8098 13.125 26.2867 13.3225 26.6383 13.6742C26.99 14.0258 27.1875 14.5027 27.1875 15V16.875M14.0625 16.875H27.1875M20.625 13.125V2.8125" stroke="#F2F2F2" stroke-width="2" stroke-miterlimit="10" stroke-linecap="round" stroke-linejoin="round"/>
<path d="M23.4375 22.5C23.4375 23.9841 22.9012 25.6959 21.9534 27.1875M17.8125 22.5C17.8125 23.9841 17.2762 25.6959 16.3284 27.1875M4.6875 19.6875V23.4375M2.8125 21.5625H6.5625M8.4375 12.1875V15.9375M6.5625 14.0625H10.3125" stroke="#F2F2F2" stroke-width="2" stroke-miterlimit="10" stroke-linecap="round" stroke-linejoin="round"/>
</svg>
