<svg width="30" height="30" viewBox="0 0 30 30" fill="none" xmlns="http://www.w3.org/2000/svg">
<path d="M15.0029 0.0445557C10.8498 0.0445557 7.4707 3.42073 7.4707 7.57092C7.4707 7.7385 7.53516 8.15686 8.13047 8.39124C8.45303 8.50881 8.79442 8.56621 9.1377 8.56057C10.1508 8.56057 10.8047 8.17151 10.8047 7.56917C10.8047 6.4565 11.2467 5.38941 12.0335 4.60263C12.8202 3.81586 13.8873 3.37385 15 3.37385C16.1127 3.37385 17.1798 3.81586 17.9665 4.60263C18.7533 5.38941 19.1953 6.4565 19.1953 7.56917C19.1953 9.57835 16.4174 10.9629 14.0865 11.7703C11.4498 12.6844 8.76914 13.0746 8.74219 13.0787L8.68359 13.0875L8.62852 13.1115C8.2848 13.2633 7.99253 13.5115 7.7872 13.8262C7.58188 14.1408 7.47233 14.5083 7.47187 14.884V27.9047C7.47187 28.4486 7.68794 28.9702 8.07253 29.3548C8.45713 29.7394 8.97876 29.9555 9.52266 29.9555H20.4797C21.0236 29.9555 21.5452 29.7394 21.9298 29.3548C22.3144 28.9702 22.5305 28.4486 22.5305 27.9047V7.57268C22.5288 5.57672 21.7352 3.663 20.3239 2.25158C18.9126 0.840174 16.9989 0.0464176 15.0029 0.0445557ZM15 26.0379C13.9869 26.0379 12.9966 25.7375 12.1543 25.1747C11.3119 24.6119 10.6554 23.8119 10.2677 22.876C9.87999 21.9401 9.77852 20.9102 9.97611 19.9166C10.1737 18.923 10.6615 18.0103 11.3778 17.2939C12.0941 16.5775 13.0068 16.0896 14.0003 15.8919C14.9939 15.6942 16.0238 15.7955 16.9598 16.1831C17.8958 16.5707 18.6958 17.2272 19.2587 18.0694C19.8216 18.9117 20.1221 19.902 20.1223 20.9151C20.1207 22.2732 19.5806 23.5752 18.6203 24.5355C17.6601 25.4959 16.3581 26.0362 15 26.0379Z" fill="#F2F2F2"/>
<path d="M18.0158 19.8416H11.8535V22.2815H18.0158V19.8416Z" fill="#F2F2F2"/>
</svg>
