<svg width="35" height="35" viewBox="0 0 35 35" fill="none" xmlns="http://www.w3.org/2000/svg">
<rect width="35" height="35" fill="#B2D235"/>
<path d="M26.9231 9.49858C27.0678 9.84801 27.0082 10.1463 26.7444 10.3935L20.451 16.696V26.1818C20.451 26.5398 20.285 26.7912 19.9531 26.9361C19.8425 26.9787 19.7361 27 19.634 27C19.4042 27 19.2127 26.919 19.0595 26.7571L15.7916 23.4844C15.6299 23.3224 15.549 23.1307 15.549 22.9091V16.696L9.25558 10.3935C8.99176 10.1463 8.93218 9.84801 9.07686 9.49858C9.22154 9.16619 9.47259 9 9.83003 9H26.17C26.5274 9 26.7785 9.16619 26.9231 9.49858Z" fill="white"/>
</svg>
