<svg width="25" height="30" viewBox="0 0 25 30" fill="none" xmlns="http://www.w3.org/2000/svg">
<path d="M20.3125 3H18.4688C18.1464 2.12468 17.5499 1.3665 16.761 0.829408C15.9722 0.292318 15.0296 0.00260927 14.0625 0H10.9375C9.9704 0.00260927 9.02781 0.292318 8.23896 0.829408C7.45011 1.3665 6.85361 2.12468 6.53125 3H4.6875C3.4443 3 2.25201 3.47411 1.37294 4.31802C0.49386 5.16193 0 6.30653 0 7.5V25.5C0 26.6935 0.49386 27.8381 1.37294 28.682C2.25201 29.5259 3.4443 30 4.6875 30H20.3125C21.5557 30 22.748 29.5259 23.6271 28.682C24.5061 27.8381 25 26.6935 25 25.5V7.5C25 6.30653 24.5061 5.16193 23.6271 4.31802C22.748 3.47411 21.5557 3 20.3125 3ZM9.375 4.5C9.375 4.10218 9.53962 3.72064 9.83265 3.43934C10.1257 3.15804 10.5231 3 10.9375 3H14.0625C14.4769 3 14.8743 3.15804 15.1674 3.43934C15.4604 3.72064 15.625 4.10218 15.625 4.5V6H9.375V4.5ZM21.875 25.5C21.875 25.8978 21.7104 26.2794 21.4174 26.5607C21.1243 26.842 20.7269 27 20.3125 27H4.6875C4.2731 27 3.87567 26.842 3.58265 26.5607C3.28962 26.2794 3.125 25.8978 3.125 25.5V7.5C3.125 7.10218 3.28962 6.72064 3.58265 6.43934C3.87567 6.15804 4.2731 6 4.6875 6H6.25V7.5C6.25 7.89782 6.41462 8.27936 6.70765 8.56066C7.00067 8.84196 7.3981 9 7.8125 9H17.1875C17.6019 9 17.9993 8.84196 18.2924 8.56066C18.5854 8.27936 18.75 7.89782 18.75 7.5V6H20.3125C20.7269 6 21.1243 6.15804 21.4174 6.43934C21.7104 6.72064 21.875 7.10218 21.875 7.5V25.5Z" fill="#F2F2F2"/>
<path d="M10.7726 21.4628C10.6341 21.6053 10.438 21.7241 10.265 21.7241C10.092 21.7241 9.89586 21.5994 9.75166 21.4569L6.52173 18.1318L7.54839 17.0749L10.2708 19.8775L17.4689 12.4138L18.4783 13.4885L10.7726 21.4628Z" fill="#F2F2F2"/>
</svg>
