<svg width="30" height="30" viewBox="0 0 30 30" fill="none" xmlns="http://www.w3.org/2000/svg">
<g clip-path="url(#clip0_410_396)">
<path d="M23.4056 18.7498L22.695 16.8748H7.305L6.59438 18.7498L3.75 26.2498H26.25L23.4056 18.7498ZM8.60063 18.7498H21.4012L23.535 24.3748H6.46687L8.60063 18.7498ZM19.2675 13.1248H21.2738L20.5631 11.2498L16.7494 1.1979C16.6127 0.844966 16.3725 0.541623 16.0603 0.327713C15.7481 0.113802 15.3785 -0.000671387 15 -0.000671387C14.6215 -0.000671387 14.2519 0.113802 13.9397 0.327713C13.6275 0.541623 13.3873 0.844966 13.2506 1.1979L9.43875 11.2498L8.72813 13.1248H19.2675ZM15 1.87477L18.555 11.2498H11.445L15 1.87477ZM29.0475 28.1248H0.9525C0.425625 28.1248 0 28.5223 0 29.0473C0 29.5723 0.425625 29.9998 0.9525 29.9998H29.0475C29.5744 29.9998 30 29.5741 30 29.0473C30 28.5204 29.5744 28.1248 29.0475 28.1248Z" fill="#F2F2F2"/>
</g>
<defs>
<clipPath id="clip0_410_396">
<rect width="30" height="30" fill="white"/>
</clipPath>
</defs>
</svg>
