<svg width="30" height="30" viewBox="0 0 30 30" fill="none" xmlns="http://www.w3.org/2000/svg">
<path fill-rule="evenodd" clip-rule="evenodd" d="M15 2.63739C21.8232 2.63739 27.3627 8.17689 27.3627 15C27.3627 21.8232 21.8232 27.3627 15 27.3627C8.17689 27.3627 2.63739 21.8232 2.63739 15C2.63739 8.17689 8.17689 2.63739 15 2.63739ZM22.9486 8.44647C24.4195 10.2279 25.3036 12.5115 25.3036 15C25.3036 20.6867 20.6867 25.3036 15 25.3036C12.5115 25.3036 10.2279 24.4195 8.44647 22.9486L22.9486 8.44647ZM21.5536 7.05147L7.05147 21.5536C5.58057 19.7721 4.69647 17.4885 4.69647 15C4.69647 9.31335 9.31335 4.69647 15 4.69647C17.4885 4.69647 19.7721 5.58057 21.5536 7.05147Z" fill="#F2F2F2"/>
</svg>
