<svg width="30" height="30" viewBox="0 0 30 30" fill="none" xmlns="http://www.w3.org/2000/svg">
<path d="M7.96177 25.4217L7.96187 25.4212L11.0143 11.4835H16.2357L21.1456 26.0216C21.1457 26.0217 21.1457 26.0218 21.1458 26.0219C21.3302 26.5712 21.242 27.1423 20.9073 27.6135C20.5691 28.0816 20.0515 28.345 19.4734 28.345H10.3177C9.58605 28.345 8.90394 28.021 8.43922 27.4461C7.98033 26.877 7.80422 26.1378 7.96177 25.4217Z" fill="#F2F2F2" stroke="#F2F2F2"/>
<path d="M22.0946 2.71041V2.7079C22.0947 2.68877 22.0877 2.67029 22.0749 2.65606C22.0623 2.64209 22.0451 2.63322 22.0264 2.63109L11.5177 1.65635L11.5106 1.65569L11.5106 1.65564C11.4984 1.65434 11.4721 1.65981 11.4513 1.67751L8.46844 4.48188C8.4684 4.48192 8.46836 4.48196 8.46831 4.482C8.46097 4.48896 8.4552 4.4974 8.45138 4.50677L7.99283 4.31973L8.45138 4.50677C8.44753 4.51619 8.44575 4.52633 8.44616 4.5365L8.44628 4.53933L8.44627 4.53933C8.44688 4.55701 8.45655 4.5799 8.47632 4.59624C8.47643 4.59633 8.47654 4.59642 8.47665 4.59651L9.98555 5.82321C9.98577 5.8234 9.986 5.82358 9.98623 5.82376C10.9522 6.60358 11.4639 7.80882 11.3642 9.04484L11.364 9.04645L11.3403 9.32964H16.0523L16.0672 9.24361C16.0672 9.24344 16.0672 9.24327 16.0672 9.2431C16.1564 8.72114 16.3558 8.22419 16.6522 7.78538C16.9486 7.34643 17.3353 6.97575 17.7864 6.69808L18.3226 6.368L18.5226 6.96506L18.9145 8.13514C18.9146 8.13528 18.9146 8.13542 18.9147 8.13556C19.3565 9.44442 20.2635 10.5455 21.4635 11.2299L21.4731 11.2354L21.473 11.2355C21.4765 11.2376 21.4832 11.2408 21.4914 11.2431C21.4951 11.2441 21.498 11.2447 21.4998 11.245C21.5016 11.2452 21.5012 11.245 21.4985 11.245C21.5142 11.245 21.5281 11.2409 21.5385 11.235C21.5479 11.2296 21.5555 11.2224 21.5615 11.2114L21.5649 11.2051L21.5685 11.1989C21.5882 11.1651 21.5774 11.122 21.5418 11.102L21.5391 11.1005C20.3699 10.4332 19.4945 9.36009 19.0635 8.08644L22.0946 2.71041ZM22.0946 2.71041V4.81041C22.0946 4.82588 22.0899 4.84162 22.0812 4.85478C22.0727 4.86764 22.063 4.87452 22.0549 4.87781L22.0526 4.87872L18.9084 6.17103L18.4741 6.34951L18.625 6.79414L19.0633 8.08603L22.0946 2.71041Z" stroke="#F2F2F2"/>
</svg>
