<svg width="35" height="35" viewBox="0 0 35 35" fill="none" xmlns="http://www.w3.org/2000/svg">
<rect width="35" height="35" fill="#B2D235"/>
<path d="M14.25 23.6163V8.25H13V23.6163L10.5313 21.1475L9.64751 22.0312L13.1831 25.5669C13.3003 25.684 13.4593 25.7499 13.625 25.7499C13.7907 25.7499 13.9497 25.684 14.0669 25.5669L17.6025 22.0312L16.7188 21.1475L14.25 23.6163ZM26.3525 11.9688L22.8169 8.43312C22.6997 8.31596 22.5407 8.25013 22.375 8.25013C22.2093 8.25013 22.0503 8.31596 21.9331 8.43312L18.3975 11.9688L19.2813 12.8525L21.75 10.3837V25.75H23V10.3837L25.4688 12.8525L26.3525 11.9688Z" fill="white"/>
</svg>
