<svg width="8" height="15" viewBox="0 0 8 15" fill="none" xmlns="http://www.w3.org/2000/svg">
<path d="M3.86618 4.21155C3.44969 4.21155 3.04255 4.08804 2.69625 3.85664C2.34995 3.62525 2.08005 3.29636 1.92068 2.91156C1.7613 2.52677 1.71962 2.10335 1.80089 1.69487C1.88216 1.28638 2.08274 0.911166 2.37726 0.616678C2.67179 0.322191 3.04702 0.121655 3.45552 0.040432C3.86402 -0.0407912 4.28743 0.00094624 4.6722 0.160366C5.05698 0.319786 5.38584 0.589728 5.61719 0.936054C5.84855 1.28238 5.97201 1.68953 5.97196 2.10603C5.97135 2.66431 5.74929 3.19954 5.35451 3.59428C4.95972 3.98902 4.42446 4.21101 3.86618 4.21155ZM3.86618 0.759182C3.5998 0.759182 3.3394 0.838174 3.11791 0.986167C2.89643 1.13416 2.7238 1.34451 2.62186 1.59061C2.51992 1.83672 2.49325 2.10752 2.54522 2.36878C2.59718 2.63005 2.72546 2.87003 2.91382 3.05839C3.10218 3.24675 3.34216 3.37503 3.60343 3.42699C3.86469 3.47896 4.13549 3.45229 4.3816 3.35035C4.6277 3.24841 4.83805 3.07578 4.98604 2.85429C5.13403 2.63281 5.21303 2.37241 5.21303 2.10603C5.21263 1.74895 5.0706 1.4066 4.8181 1.15411C4.56561 0.901613 4.22326 0.759584 3.86618 0.759182Z" fill="#222222"/>
<path d="M3.89426 14.7958H2.33213C2.24078 14.7958 2.15249 14.7629 2.08348 14.703C2.01447 14.6432 1.96937 14.5604 1.95646 14.47L1.47581 11.1107C1.12032 11.1048 0.780672 10.9627 0.526978 10.7136C0.273284 10.4645 0.124919 10.1275 0.112518 9.77223L0.00247332 6.87717C-0.012992 6.51904 0.0441919 6.16148 0.17058 5.82603C0.296968 5.49059 0.489946 5.18419 0.737889 4.9253C0.985833 4.66642 1.28361 4.46039 1.61329 4.31964C1.94297 4.17889 2.29773 4.10633 2.65619 4.10632H3.86618C3.96682 4.10632 4.06334 4.1463 4.1345 4.21747C4.20566 4.28863 4.24564 4.38515 4.24564 4.48579C4.24564 4.58643 4.20566 4.68295 4.1345 4.75411C4.06334 4.82527 3.96682 4.86525 3.86618 4.86525H2.6567C2.40059 4.86528 2.14714 4.91716 1.91163 5.01776C1.67611 5.11836 1.46339 5.26561 1.2863 5.45062C1.10921 5.63563 0.971405 5.85457 0.881195 6.09427C0.790985 6.33396 0.750236 6.58943 0.761402 6.8453L0.871447 9.74263C0.877164 9.90634 0.946375 10.0614 1.06442 10.1749C1.18247 10.2885 1.34009 10.3517 1.50389 10.351H1.80594C1.89725 10.3511 1.98547 10.3841 2.05443 10.4439C2.12339 10.5038 2.16845 10.5865 2.18136 10.6769L2.66201 14.0359H3.89527C3.99591 14.0359 4.09243 14.0759 4.16359 14.147C4.23476 14.2182 4.27474 14.3147 4.27474 14.4154C4.27474 14.516 4.23476 14.6125 4.16359 14.6837C4.09243 14.7548 3.99591 14.7948 3.89527 14.7948L3.89426 14.7958Z" fill="#222222"/>
<path d="M5.40023 14.7958H3.8381C3.73746 14.7958 3.64094 14.7559 3.56978 14.6847C3.49861 14.6135 3.45863 14.517 3.45863 14.4164C3.45863 14.3157 3.49861 14.2192 3.56978 14.148C3.64094 14.0769 3.73746 14.0369 3.8381 14.0369H5.07136L5.55201 10.6779C5.56492 10.5875 5.60998 10.5048 5.67894 10.4449C5.7479 10.3851 5.83612 10.3521 5.92743 10.3521H6.22898C6.39278 10.3527 6.55039 10.2895 6.66844 10.176C6.78649 10.0624 6.8557 9.90735 6.86142 9.74364L6.97146 6.84833C6.98305 6.59222 6.94261 6.33642 6.85259 6.09637C6.76257 5.85632 6.62484 5.637 6.4477 5.45167C6.27057 5.26633 6.05771 5.11881 5.82198 5.01802C5.58625 4.91723 5.33254 4.86526 5.07616 4.86525H3.86618C3.76554 4.86525 3.66902 4.82527 3.59786 4.75411C3.52669 4.68295 3.48671 4.58643 3.48671 4.48579C3.48671 4.38515 3.52669 4.28863 3.59786 4.21747C3.66902 4.1463 3.76554 4.10632 3.86618 4.10632H5.07566C5.4343 4.10632 5.78923 4.17894 6.11905 4.31982C6.44887 4.46069 6.74675 4.6669 6.99472 4.926C7.24269 5.18511 7.43562 5.49175 7.56189 5.82743C7.68815 6.16312 7.74512 6.5209 7.72938 6.87919L7.61933 9.77223C7.60693 10.1275 7.45857 10.4645 7.20487 10.7136C6.95118 10.9627 6.61153 11.1048 6.25604 11.1107L5.77539 14.47C5.76249 14.5603 5.71746 14.643 5.64856 14.7029C5.57965 14.7627 5.49149 14.7957 5.40023 14.7958Z" fill="#222222"/>
</svg>
