<svg width="19" height="19" viewBox="0 0 19 19" fill="none" xmlns="http://www.w3.org/2000/svg">
<g clip-path="url(#clip0_301_116)">
<path d="M8.70833 17.4167C3.90688 17.4167 0 13.5098 0 8.70833C0 3.90688 3.90688 0 8.70833 0C13.5098 0 17.4167 3.90688 17.4167 8.70833C17.4167 13.5098 13.5098 17.4167 8.70833 17.4167ZM8.70833 1.58333C4.78008 1.58333 1.58333 4.77929 1.58333 8.70833C1.58333 12.6374 4.78008 15.8333 8.70833 15.8333C12.6366 15.8333 15.8333 12.6374 15.8333 8.70833C15.8333 4.77929 12.6366 1.58333 8.70833 1.58333Z" fill="#8CAF00"/>
<path d="M18.2083 19C18.1043 19.0001 18.0014 18.9797 17.9053 18.9399C17.8093 18.9001 17.722 18.8417 17.6486 18.7681L13.8526 14.972C13.7041 14.8235 13.6208 14.622 13.6208 14.412C13.6209 14.202 13.7044 14.0006 13.853 13.8522C14.0015 13.7038 14.203 13.6204 14.413 13.6205C14.623 13.6206 14.8243 13.7041 14.9728 13.8526L18.768 17.6486C18.8791 17.7592 18.9548 17.9003 18.9856 18.054C19.0163 18.2076 19.0007 18.367 18.9408 18.5118C18.8808 18.6566 18.7791 18.7803 18.6487 18.8672C18.5183 18.9541 18.365 19.0004 18.2083 19Z" fill="#8CAF00"/>
</g>
<defs>
<clipPath id="clip0_301_116">
<rect width="19" height="19" fill="white"/>
</clipPath>
</defs>
</svg>
