<svg width="216" height="92" viewBox="0 0 216 92" fill="none" xmlns="http://www.w3.org/2000/svg">
<path d="M188.895 55.1198C186.697 55.1198 185.123 53.4037 185.123 51.2799C185.123 49.1561 186.697 47.4104 188.895 47.4104C190.652 47.4104 191.984 48.4098 192.412 50.0668H190.413C190.159 49.5671 189.577 49.1364 188.895 49.1364C187.859 49.1364 187.023 50.1062 187.023 51.293C187.023 52.4799 187.859 53.4037 188.895 53.4037C189.587 53.4037 190.185 52.9763 190.426 52.4634H192.425C192 54.1302 190.668 55.1198 188.895 55.1198Z" fill="#A7A9AC"/>
<path d="M202.013 51.2766C202.013 53.476 200.357 55.1165 198.326 55.1165C196.295 55.1165 194.652 53.4727 194.652 51.2766C194.652 49.0805 196.298 47.4071 198.326 47.4071C200.354 47.4071 202.013 49.0772 202.013 51.2766ZM200.129 51.2898C200.129 50.0207 199.319 49.1331 198.326 49.1331C197.333 49.1331 196.523 50.0207 196.523 51.2898C196.523 52.5588 197.333 53.3872 198.326 53.3872C199.319 53.3872 200.129 52.5325 200.129 51.2898Z" fill="#A7A9AC"/>
<path d="M215.735 54.9456H213.864V50.6487C213.864 50.2344 213.724 49.2482 212.489 49.2482C211.67 49.2482 211.072 49.8202 211.072 50.6487V54.9456H209.198V50.6487C209.198 50.2344 209.07 49.2482 207.836 49.2482C207 49.2482 206.418 49.8202 206.418 50.6487V54.9456H204.547V50.6914C204.547 48.8208 205.837 47.4071 207.836 47.4071C208.829 47.4071 209.638 47.8082 210.161 48.4493C210.716 47.8082 211.536 47.4071 212.486 47.4071C214.527 47.4071 215.732 48.7616 215.732 50.6914V54.9456H215.735Z" fill="#A7A9AC"/>
<path d="M44.7858 30.0584C44.7858 37.5443 39.564 43.2581 31.6152 43.2581C27.6409 43.2581 24.4078 41.6571 22.2492 39.0895C20.0351 41.6571 16.802 43.2581 12.942 43.2581C4.82671 43.2581 0 37.8303 0 30.0584V13.0879H7.49152V30.2886C7.49152 31.9455 8.05975 35.8874 12.942 35.8874C16.2893 35.8874 18.6178 33.6025 18.6178 30.2886V13.0879H26.1093V30.2886C26.1093 31.9455 26.6775 35.8874 31.6152 35.8874C34.9071 35.8874 37.291 33.6025 37.291 30.2886V13.0879H44.7826V30.0584H44.7858Z" fill="#B2D235"/>
<path d="M77.8184 42.5152H61.8099C54.0898 42.5152 47.7903 36.2852 47.7903 27.8295C47.7903 19.3738 53.9755 12.345 62.8321 12.345C71.6887 12.345 77.8184 19.318 77.8184 27.8295V42.5152ZM62.8321 19.4264C58.6879 19.4264 55.3406 23.0264 55.3406 27.8854C55.3406 32.7445 58.6879 36.1702 62.8321 36.1702H70.3236V27.8854C70.3236 23.1973 66.973 19.4264 62.8321 19.4264Z" fill="#B2D235"/>
<path d="M108.421 36.5153V42.5152H100.874V37.7712C100.874 34.5164 99.1141 31.4294 94.5715 31.4294H90.4306V42.5152H82.8802V0H90.4306V24.1704H94.5715C99.1141 24.1704 100.874 21.0274 100.874 17.7694V13.0846H108.421V19.0845C108.421 22.9145 106.661 26.1725 103.428 27.7736C106.661 29.4305 108.421 32.6294 108.421 36.5153Z" fill="#B2D235"/>
<path d="M140.327 33.1423C138.626 39.1421 133.459 43.199 126.193 43.199C117.905 43.199 111.207 36.3411 111.207 27.8295C111.207 19.318 117.905 12.345 126.193 12.345C133.231 12.345 139.135 16.8029 140.553 24.6866L119.89 33.4316C121.367 35.4304 123.577 36.5712 126.134 36.5712C128.691 36.5712 131.072 35.4863 132.323 33.1423H140.327ZM131.925 21.5995C130.563 19.9426 128.518 18.9695 126.134 18.9695C121.82 18.9695 118.359 22.3984 118.186 27.4284L131.921 21.5995H131.925Z" fill="#B2D235"/>
<path d="M170.071 43.1989H156.901C148.727 43.1989 143.903 37.7711 143.903 30.0584V13.0879H151.395V30.2886C151.395 31.9455 151.963 35.8873 156.901 35.8873H162.58V13.0846H170.071V43.1989Z" fill="#58595B"/>
<path d="M190.625 43.1431H182.112V55.5998H174.562V27.7112C174.562 19.2522 180.75 12.3384 189.607 12.3384C198.463 12.3384 204.59 19.2522 204.59 27.7112C204.59 36.1701 198.346 43.1398 190.625 43.1398V43.1431ZM189.607 19.4264C185.462 19.4264 182.115 23.1414 182.115 27.7112V36.1701H189.607C193.751 36.1701 197.098 32.5143 197.098 27.7112C197.098 22.908 193.751 19.4264 189.607 19.4264Z" fill="#58595B"/>
<path d="M4.53931 80.3982C4.69607 79.9773 4.74179 79.8984 4.82016 79.8984C4.89527 79.8984 4.94753 79.9642 5.09775 80.3587C5.28716 80.8453 7.27924 86.1186 8.05321 88.0615C8.5104 89.1957 8.87943 89.3996 9.14395 89.4752C9.33336 89.541 9.52604 89.5541 9.65667 89.5541C9.72851 89.5541 9.78076 89.5673 9.78076 89.6297C9.78076 89.7053 9.66646 89.7316 9.52604 89.7316C9.33336 89.7316 8.41243 89.7316 7.53396 89.702C7.29556 89.6922 7.15514 89.6922 7.15514 89.6166C7.15514 89.5672 7.19433 89.541 7.24005 89.5278C7.31842 89.4982 7.39354 89.3864 7.31842 89.1826L6.13951 86.0397C6.11338 85.9871 6.08726 85.9608 6.02521 85.9608H3.29508C3.23303 85.9608 3.19384 86.0002 3.16772 86.0627L2.40681 88.3278C2.29251 88.6434 2.23046 88.9558 2.23046 89.1826C2.23046 89.4357 2.49498 89.5508 2.71379 89.5508H2.83788C2.92932 89.5508 2.96851 89.5804 2.96851 89.6264C2.96851 89.702 2.8934 89.7283 2.77583 89.7283C2.47539 89.7283 1.92675 89.6922 1.78959 89.6922C1.65243 89.6922 0.953573 89.7283 0.35595 89.7283C0.189399 89.7283 0.117554 89.6988 0.117554 89.6264C0.117554 89.5804 0.163274 89.5508 0.231853 89.5508C0.320027 89.5508 0.493109 89.5377 0.597612 89.5278C1.18217 89.4489 1.43363 88.9656 1.66223 88.3278L4.53931 80.3949V80.3982ZM5.86192 85.5071C5.9207 85.5071 5.9207 85.4676 5.91417 85.4216L4.70913 81.9729C4.64382 81.7789 4.58177 81.7789 4.51972 81.9729L3.40285 85.4216C3.37672 85.4808 3.40285 85.5071 3.43877 85.5071H5.86519H5.86192Z" fill="#231F20"/>
<path d="M11.5997 83.7843C11.5997 81.7921 11.5997 81.4304 11.5704 81.0228C11.541 80.5921 11.443 80.3817 11.0217 80.2929C10.9205 80.2666 10.7049 80.2568 10.5939 80.2568C10.5449 80.2568 10.4927 80.2305 10.4927 80.1811C10.4927 80.1055 10.5547 80.0792 10.6951 80.0792C11.2666 80.0792 12.0667 80.1154 12.1288 80.1154C12.2692 80.1154 13.2359 80.0792 13.6277 80.0792C14.4278 80.0792 15.2769 80.1548 15.9497 80.6414C16.2697 80.8715 16.8249 81.4929 16.8249 82.3773C16.8249 83.3208 16.433 84.2676 15.29 85.3295C16.3317 86.6676 17.1939 87.8051 17.9287 88.5941C18.6177 89.3272 19.1631 89.4653 19.4766 89.5212C19.7183 89.5574 19.8979 89.5574 19.973 89.5574C20.0351 89.5574 20.084 89.5935 20.084 89.633C20.084 89.7086 20.0089 89.7349 19.7836 89.7349H18.8823C18.1703 89.7349 17.8536 89.6724 17.5237 89.4916C16.9784 89.1957 16.5342 88.5711 15.8125 87.6144C15.2802 86.9108 14.6858 86.0594 14.4311 85.7273C14.3789 85.6747 14.3364 85.6517 14.2646 85.6517L12.7068 85.6254C12.6415 85.6254 12.6121 85.6616 12.6121 85.7273V86.0331C12.6121 87.2593 12.6121 88.2653 12.6774 88.8045C12.7166 89.1727 12.7917 89.4554 13.1738 89.5048C13.3469 89.5343 13.6277 89.5574 13.742 89.5574C13.8172 89.5574 13.8433 89.5935 13.8433 89.633C13.8433 89.6987 13.7812 89.7349 13.6375 89.7349C12.942 89.7349 12.1451 89.6987 12.0831 89.6987C12.07 89.6987 11.2666 89.7349 10.8878 89.7349C10.7474 89.7349 10.6854 89.7053 10.6854 89.633C10.6854 89.5968 10.7082 89.5574 10.7866 89.5574C10.9042 89.5574 11.0544 89.5343 11.1719 89.5048C11.4267 89.4554 11.4854 89.1727 11.5377 88.8045C11.5997 88.2653 11.5997 87.2593 11.5997 86.0331V83.7843ZM12.6089 84.8923C12.6089 84.958 12.6382 85.004 12.7036 85.0468C12.893 85.1586 13.4775 85.2539 14.0327 85.2539C14.3364 85.2539 14.6956 85.2112 14.9863 85.0073C15.4304 84.7049 15.7603 84.0145 15.7603 83.0413C15.7603 81.4436 14.9242 80.4869 13.5657 80.4869C13.1869 80.4869 12.8407 80.5263 12.7166 80.5658C12.6513 80.5921 12.6121 80.6414 12.6121 80.717V84.8923H12.6089Z" fill="#231F20"/>
<path d="M21.1585 83.7843C21.1585 81.7921 21.1585 81.4304 21.1323 81.0228C21.1127 80.5921 21.005 80.3817 20.587 80.2929C20.4857 80.2666 20.2702 80.2568 20.1559 80.2568C20.1036 80.2568 20.0547 80.2305 20.0547 80.1811C20.0547 80.1055 20.1232 80.0792 20.2604 80.0792C20.8286 80.0792 21.5928 80.1154 21.694 80.1154C21.9716 80.1154 22.7097 80.0792 23.291 80.0792C24.8781 80.0792 25.4463 80.6118 25.6521 80.8091C25.9297 81.0721 26.2856 81.6507 26.2856 82.3247C26.2856 84.1394 24.9663 85.3657 23.1669 85.3657C23.1048 85.3657 22.9611 85.3657 22.8991 85.3558C22.837 85.3558 22.7587 85.3295 22.7587 85.2605C22.7587 85.1586 22.8338 85.1487 23.1016 85.1487C24.3295 85.1487 25.2961 84.2413 25.2961 83.0644C25.2961 82.6435 25.2602 81.7888 24.5842 81.0951C23.9114 80.408 23.1375 80.454 22.8436 80.454C22.6313 80.454 22.4158 80.4803 22.3015 80.5329C22.2263 80.5592 22.2002 80.648 22.2002 80.7762V86.0265C22.2002 87.2528 22.2002 88.2588 22.2623 88.7979C22.2982 89.1661 22.3766 89.4489 22.7554 89.4982C22.9317 89.5278 23.2093 89.5508 23.3269 89.5508C23.402 89.5508 23.4281 89.5869 23.4281 89.6264C23.4281 89.6921 23.3628 89.7283 23.2224 89.7283C22.5268 89.7283 21.73 89.6921 21.6614 89.6921C21.6255 89.6921 20.8254 89.7283 20.4465 89.7283C20.3029 89.7283 20.2408 89.6987 20.2408 89.6264C20.2408 89.5902 20.2669 89.5508 20.342 89.5508C20.4596 89.5508 20.6066 89.5278 20.7209 89.4982C20.9756 89.4489 21.0409 89.1661 21.0931 88.7979C21.1519 88.2588 21.1519 87.2528 21.1519 86.0265V83.7778L21.1585 83.7843Z" fill="#231F20"/>
<path d="M31.1744 85.7372C31.3899 85.7372 31.5499 85.7569 31.5499 85.8654C31.5499 86.0199 31.3115 86.0429 31.1058 86.0857C30.7629 86.1317 28.5194 86.4374 28.0883 86.5525C27.8434 86.6215 27.6311 86.7498 27.569 86.7498C27.4907 86.7498 27.4743 86.6676 27.5005 86.5525L27.6899 85.8391C27.716 85.7503 27.765 85.7405 27.9675 85.7405H31.1678L31.1744 85.7372Z" fill="#231F20"/>
<path d="M41.9185 86.0331C41.9185 87.2593 41.9185 88.2653 41.9838 88.8045C42.0198 89.1727 42.0981 89.4554 42.4802 89.5048C42.6598 89.5343 42.9342 89.5574 43.0485 89.5574C43.1236 89.5574 43.1497 89.5935 43.1497 89.633C43.1497 89.6987 43.0844 89.7349 42.944 89.7349C42.2484 89.7349 41.4483 89.6987 41.3829 89.6987C41.3209 89.6987 40.5208 89.7349 40.142 89.7349C40.0016 89.7349 39.9362 89.7053 39.9362 89.633C39.9362 89.5968 39.9624 89.5574 40.0375 89.5574C40.155 89.5574 40.3053 89.5343 40.4196 89.5048C40.6743 89.4554 40.7363 89.1727 40.7853 88.8045C40.8474 88.2653 40.8474 87.2593 40.8474 86.0331V84.6884C40.8474 84.6358 40.8115 84.6128 40.7723 84.6128H35.3937C35.3545 84.6128 35.3185 84.626 35.3185 84.6884V86.0331C35.3185 87.2593 35.3185 88.2653 35.3839 88.8045C35.4198 89.1727 35.4982 89.4554 35.877 89.5048C36.0566 89.5343 36.3342 89.5574 36.4517 89.5574C36.5269 89.5574 36.553 89.5935 36.553 89.633C36.553 89.6987 36.4942 89.7349 36.3505 89.7349C35.6549 89.7349 34.8548 89.6987 34.7928 89.6987C34.7275 89.6987 33.9274 89.7349 33.5485 89.7349C33.4081 89.7349 33.3428 89.7053 33.3428 89.633C33.3428 89.5968 33.3689 89.5574 33.4473 89.5574C33.5616 89.5574 33.7086 89.5343 33.8229 89.5048C34.0776 89.4554 34.1429 89.1727 34.1919 88.8045C34.2539 88.2653 34.2539 87.2593 34.2539 86.0331V83.7843C34.2539 81.7921 34.2539 81.4304 34.2311 81.0228C34.2049 80.5921 34.1037 80.3817 33.6857 80.2929C33.5845 80.2666 33.3657 80.2568 33.2546 80.2568C33.2024 80.2568 33.1534 80.2305 33.1534 80.1811C33.1534 80.1055 33.2154 80.0792 33.3526 80.0792C33.9274 80.0792 34.7274 80.1154 34.7895 80.1154C34.8483 80.1154 35.6484 80.0792 36.0305 80.0792C36.1709 80.0792 36.2362 80.1088 36.2362 80.1811C36.2362 80.2305 36.184 80.2568 36.1317 80.2568C36.0468 80.2568 35.9717 80.2666 35.8117 80.2929C35.4688 80.3587 35.3708 80.5724 35.3479 81.0228C35.3218 81.4304 35.3218 81.7888 35.3218 83.7843V84.0506C35.3218 84.1131 35.3577 84.1295 35.3969 84.1295H40.7755C40.8147 84.1295 40.8506 84.1131 40.8506 84.0506V83.7843C40.8506 81.7921 40.8506 81.4304 40.8245 81.0228C40.8017 80.5921 40.7004 80.3817 40.2824 80.2929C40.1779 80.2666 39.9624 80.2568 39.8513 80.2568C39.7991 80.2568 39.7501 80.2305 39.7501 80.1811C39.7501 80.1055 39.8121 80.0792 39.9526 80.0792C40.5241 80.0792 41.3242 80.1154 41.3862 80.1154C41.4515 80.1154 42.2484 80.0792 42.6304 80.0792C42.7709 80.0792 42.8329 80.1088 42.8329 80.1811C42.8329 80.2305 42.7807 80.2568 42.7317 80.2568C42.6435 80.2568 42.5651 80.2666 42.4116 80.2929C42.072 80.3587 41.9708 80.5724 41.9446 81.0228C41.9185 81.4304 41.9185 81.7888 41.9185 83.7843V86.0331Z" fill="#231F20"/>
<path d="M48.2605 80.3982C48.4173 79.9773 48.4663 79.8984 48.5414 79.8984C48.6165 79.8984 48.6687 79.9642 48.819 80.3587C49.0116 80.8453 51.0037 86.1186 51.7777 88.0615C52.2382 89.1957 52.6007 89.3996 52.8684 89.4752C53.0578 89.541 53.244 89.5541 53.3779 89.5541C53.453 89.5541 53.502 89.5673 53.502 89.6297C53.502 89.7053 53.3844 89.7316 53.244 89.7316C53.0546 89.7316 52.1304 89.7316 51.2552 89.702C51.0168 89.6922 50.8731 89.6922 50.8731 89.6166C50.8731 89.5672 50.909 89.541 50.958 89.5278C51.0364 89.4982 51.1115 89.3864 51.0364 89.1826L49.8575 86.0397C49.8281 85.9871 49.8052 85.9608 49.7432 85.9608H47.0163C46.9543 85.9608 46.9151 86.0002 46.8857 86.0627L46.1248 88.3278C46.0072 88.6434 45.9484 88.9558 45.9484 89.1826C45.9484 89.4357 46.2129 89.5508 46.4285 89.5508H46.5558C46.644 89.5508 46.6832 89.5804 46.6832 89.6264C46.6832 89.702 46.6114 89.7283 46.4971 89.7283C46.1868 89.7283 45.6414 89.6922 45.5043 89.6922C45.3671 89.6922 44.665 89.7283 44.0674 89.7283C43.9041 89.7283 43.829 89.6988 43.829 89.6264C43.829 89.5804 43.878 89.5508 43.9433 89.5508C44.0314 89.5508 44.2111 89.5377 44.309 89.5278C44.8936 89.4489 45.1451 88.9656 45.3769 88.3278L48.2573 80.3949L48.2605 80.3982ZM49.5831 85.5071C49.6419 85.5071 49.6419 85.4676 49.6321 85.4216L48.4271 81.9729C48.365 81.7789 48.2997 81.7789 48.2377 81.9729L47.1208 85.4216C47.0979 85.4808 47.1208 85.5071 47.16 85.5071H49.5831Z" fill="#231F20"/>
<path d="M55.6573 87.9958C55.6835 89.0445 55.8108 89.3766 56.1537 89.4752C56.3921 89.5409 56.6697 89.5541 56.7873 89.5541C56.8461 89.5541 56.8885 89.5837 56.8885 89.6297C56.8885 89.7053 56.8134 89.7316 56.6599 89.7316C55.9349 89.7316 55.4287 89.6955 55.3144 89.6955C55.2001 89.6955 54.6646 89.7316 54.0963 89.7316C53.969 89.7316 53.8939 89.7185 53.8939 89.6297C53.8939 89.5837 53.9298 89.5541 53.9951 89.5541C54.0963 89.5541 54.3217 89.5409 54.5143 89.4752C54.8311 89.3897 54.8964 89.0182 54.8964 87.8577L54.9062 80.5362C54.9062 80.0398 54.9454 79.8984 55.0467 79.8984C55.1479 79.8984 55.3634 80.1812 55.4941 80.3061C55.6835 80.5231 57.5743 82.5811 59.5272 84.6852C60.7812 86.0429 62.1659 87.6013 62.5708 88.0221L62.4337 81.5324C62.4206 80.7039 62.3324 80.4179 61.9373 80.316C61.7087 80.2666 61.418 80.2568 61.3135 80.2568C61.2286 80.2568 61.2123 80.214 61.2123 80.168C61.2123 80.0891 61.3135 80.0793 61.467 80.0793C62.0353 80.0793 62.6459 80.1154 62.7896 80.1154C62.9235 80.1154 63.3448 80.0793 63.864 80.0793C64.0045 80.0793 64.0959 80.0891 64.0959 80.168C64.0959 80.214 64.0437 80.2568 63.9555 80.2568C63.8934 80.2568 63.802 80.2568 63.6518 80.2929C63.2338 80.3817 63.1848 80.6612 63.1848 81.4305L63.1554 88.9163C63.1554 89.7579 63.126 89.8204 63.0411 89.8204C62.9398 89.8204 62.7929 89.679 62.1202 89.0051C61.9765 88.8769 60.1509 86.9996 58.8087 85.5399C57.3326 83.9488 55.899 82.3345 55.4973 81.8776L55.6606 87.9925L55.6573 87.9958Z" fill="#231F20"/>
<path d="M66.5191 89.5705C66.3394 89.4785 66.3297 89.4259 66.3297 89.084C66.3297 88.4429 66.3819 87.9333 66.395 87.7328C66.408 87.5914 66.4342 87.5257 66.4962 87.5257C66.5713 87.5257 66.5876 87.5585 66.5876 87.667C66.5876 87.7755 66.5876 87.9629 66.6236 88.1404C66.813 89.084 67.649 89.439 68.4981 89.439C69.7194 89.439 70.3138 88.558 70.3138 87.7459C70.3138 86.8616 69.9448 86.3487 68.854 85.4413L68.2858 84.9712C66.9436 83.8567 66.6366 83.0644 66.6366 82.1965C66.6366 80.8321 67.6523 79.8984 69.2655 79.8984C69.7619 79.8984 70.1277 79.9478 70.4444 80.0267C70.6861 80.0793 70.7873 80.0858 70.8886 80.0858C70.9898 80.0858 71.0159 80.1121 71.0159 80.1812C71.0159 80.2403 70.9669 80.6612 70.9669 81.5324C70.9669 81.7395 70.9408 81.8283 70.8755 81.8283C70.8004 81.8283 70.7873 81.7625 70.7743 81.6639C70.7612 81.5126 70.6861 81.1642 70.6077 81.0261C70.5359 80.8847 70.193 80.3488 69.0271 80.3488C68.1454 80.3488 67.4628 80.8979 67.4628 81.8315C67.4628 82.5581 67.796 83.0151 69.0141 83.9751L69.3668 84.2578C70.8624 85.4446 71.2217 86.2435 71.2217 87.2594C71.2217 87.7788 71.0159 88.7486 70.1407 89.3799C69.5954 89.7612 68.9096 89.9157 68.227 89.9157C67.6359 89.9157 67.0448 89.8237 66.5256 89.5705H66.5191Z" fill="#231F20"/>
<path d="M74.5625 83.7843C74.5625 81.792 74.5625 81.4304 74.5364 81.0227C74.5102 80.5921 74.4123 80.3817 73.991 80.2929C73.8865 80.2666 73.6709 80.2567 73.5599 80.2567C73.5077 80.2567 73.4587 80.2304 73.4587 80.1811C73.4587 80.1055 73.5207 80.0792 73.6579 80.0792C73.9518 80.0792 74.2947 80.0792 74.5723 80.0891L75.0948 80.1154C75.183 80.1154 77.7074 80.1154 77.998 80.1088C78.2364 80.0891 78.4454 80.0628 78.5434 80.0398C78.6054 80.0266 78.6577 79.9773 78.723 79.9773C78.7589 79.9773 78.772 80.0299 78.772 80.0891C78.772 80.1844 78.7099 80.3356 78.6707 80.694C78.6577 80.8189 78.6315 81.3811 78.6054 81.5356C78.5924 81.5981 78.5695 81.677 78.5172 81.677C78.4421 81.677 78.416 81.6079 78.416 81.5126C78.416 81.4173 78.4029 81.2036 78.3409 81.049C78.2495 80.8485 78.1221 80.694 77.4363 80.6151C77.224 80.5954 75.8394 80.5789 75.7022 80.5789C75.65 80.5789 75.6238 80.6151 75.6238 80.7071V84.2314C75.6238 84.3202 75.6369 84.3629 75.7022 84.3629C75.8655 84.3629 77.4265 84.3629 77.7172 84.3366C78.0209 84.3103 78.1972 84.2808 78.3148 84.1558C78.3997 84.0539 78.4519 83.9882 78.5042 83.9882C78.5434 83.9882 78.5695 84.0177 78.5695 84.0901C78.5695 84.1624 78.5042 84.386 78.4683 84.8068C78.4454 85.0599 78.416 85.5366 78.416 85.6254C78.416 85.7273 78.416 85.8687 78.3311 85.8687C78.2658 85.8687 78.2364 85.8161 78.2364 85.7503C78.2364 85.6254 78.2364 85.4972 78.1841 85.3295C78.1352 85.152 78.0209 84.9317 77.5277 84.8791C77.1848 84.8429 75.9275 84.8133 75.712 84.8133C75.65 84.8133 75.6238 84.8561 75.6238 84.9054V86.0297C75.6238 86.4637 75.614 87.9464 75.6238 88.2094C75.6598 89.0938 75.8524 89.2582 77.0934 89.2582C77.4232 89.2582 77.9817 89.2582 78.3148 89.1168C78.6413 88.9754 78.7948 88.719 78.8863 88.1963C78.9124 88.0582 78.9353 88.0056 79.0006 88.0056C79.0757 88.0056 79.0757 88.1075 79.0757 88.1963C79.0757 88.3048 78.9712 89.1661 78.9091 89.4357C78.8177 89.7677 78.7197 89.7677 78.2233 89.7677C77.2698 89.7677 76.5742 89.7447 76.0778 89.7316C75.5814 89.702 75.2777 89.6954 75.0883 89.6954C75.0621 89.6954 74.8466 89.6954 74.5788 89.7053C74.3241 89.7053 74.0367 89.7349 73.844 89.7349C73.7036 89.7349 73.6416 89.7053 73.6416 89.633C73.6416 89.5968 73.6612 89.5573 73.7428 89.5573C73.8571 89.5573 74.0041 89.5343 74.1216 89.5047C74.3731 89.4554 74.4384 89.1727 74.4874 88.8045C74.5527 88.2653 74.5527 87.2593 74.5527 86.033V83.7843H74.5625Z" fill="#231F20"/>
<path d="M82.6418 87.9958C82.6712 89.0445 82.7986 89.3766 83.1382 89.4752C83.3766 89.5409 83.6607 89.5541 83.7783 89.5541C83.8371 89.5541 83.8795 89.5837 83.8795 89.6297C83.8795 89.7053 83.8012 89.7316 83.6509 89.7316C82.926 89.7316 82.4165 89.6955 82.3022 89.6955C82.1879 89.6955 81.6556 89.7316 81.0841 89.7316C80.96 89.7316 80.8816 89.7185 80.8816 89.6297C80.8816 89.5837 80.9175 89.5541 80.9829 89.5541C81.0841 89.5541 81.3127 89.5409 81.5021 89.4752C81.8189 89.3897 81.8809 89.0182 81.8809 87.8577L81.9005 80.5362C81.9005 80.0398 81.9364 79.8984 82.0409 79.8984C82.1389 79.8984 82.3545 80.1812 82.4818 80.3061C82.6712 80.5231 84.5621 82.5811 86.5182 84.6852C87.769 86.0429 89.1536 87.6013 89.5586 88.0221L89.4214 81.5324C89.4051 80.7039 89.3202 80.4179 88.925 80.316C88.6964 80.2666 88.4058 80.2568 88.3046 80.2568C88.2131 80.2568 88.2033 80.214 88.2033 80.168C88.2033 80.0891 88.3046 80.0793 88.458 80.0793C89.0295 80.0793 89.637 80.1154 89.7774 80.1154C89.9178 80.1154 90.3358 80.0793 90.8583 80.0793C90.9955 80.0793 91.0869 80.0891 91.0869 80.168C91.0869 80.214 91.0347 80.2568 90.9465 80.2568C90.8812 80.2568 90.793 80.2568 90.6428 80.2929C90.2215 80.3817 90.1725 80.6612 90.1725 81.4305L90.1464 88.9163C90.1464 89.7579 90.1236 89.8204 90.0354 89.8204C89.9342 89.8204 89.7807 89.679 89.1047 89.0051C88.9708 88.8769 87.142 86.9996 85.7965 85.5399C84.3269 83.9488 82.8933 82.3345 82.4851 81.8776L82.6484 87.9925L82.6418 87.9958Z" fill="#231F20"/>
<path d="M124.436 86.0331C124.436 87.2593 124.436 88.2653 124.502 88.8045C124.541 89.1727 124.616 89.4554 124.995 89.5048C125.174 89.5343 125.445 89.5574 125.563 89.5574C125.641 89.5574 125.667 89.5935 125.667 89.633C125.667 89.6987 125.602 89.7349 125.468 89.7349C124.769 89.7349 123.969 89.6987 123.901 89.6987C123.842 89.6987 123.042 89.7349 122.66 89.7349C122.523 89.7349 122.457 89.7053 122.457 89.633C122.457 89.5968 122.483 89.5574 122.555 89.5574C122.673 89.5574 122.826 89.5343 122.937 89.5048C123.195 89.4554 123.257 89.1727 123.31 88.8045C123.372 88.2653 123.372 87.2593 123.372 86.0331V84.6884C123.372 84.6358 123.332 84.6128 123.297 84.6128H117.915C117.875 84.6128 117.836 84.626 117.836 84.6884V86.0331C117.836 87.2593 117.836 88.2653 117.902 88.8045C117.941 89.1727 118.016 89.4554 118.395 89.5048C118.574 89.5343 118.855 89.5574 118.969 89.5574C119.045 89.5574 119.074 89.5935 119.074 89.633C119.074 89.6987 119.009 89.7349 118.872 89.7349C118.169 89.7349 117.369 89.6987 117.311 89.6987C117.245 89.6987 116.442 89.7349 116.063 89.7349C115.919 89.7349 115.861 89.7053 115.861 89.633C115.861 89.5968 115.887 89.5574 115.962 89.5574C116.076 89.5574 116.233 89.5343 116.344 89.5048C116.599 89.4554 116.657 89.1727 116.71 88.8045C116.772 88.2653 116.772 87.2593 116.772 86.0331V83.7843C116.772 81.7921 116.772 81.4304 116.746 81.0228C116.719 80.5921 116.625 80.3817 116.203 80.2929C116.099 80.2666 115.883 80.2568 115.769 80.2568C115.717 80.2568 115.668 80.2305 115.668 80.1811C115.668 80.1055 115.73 80.0792 115.867 80.0792C116.439 80.0792 117.242 80.1154 117.307 80.1154C117.366 80.1154 118.166 80.0792 118.548 80.0792C118.689 80.0792 118.754 80.1088 118.754 80.1811C118.754 80.2305 118.698 80.2568 118.646 80.2568C118.561 80.2568 118.486 80.2666 118.333 80.2929C117.987 80.3587 117.885 80.5724 117.862 81.0228C117.836 81.4304 117.836 81.7888 117.836 83.7843V84.0506C117.836 84.1131 117.875 84.1295 117.915 84.1295H123.297C123.329 84.1295 123.372 84.1131 123.372 84.0506V83.7843C123.372 81.7921 123.372 81.4304 123.349 81.0228C123.319 80.5921 123.218 80.3817 122.803 80.2929C122.705 80.2666 122.487 80.2568 122.372 80.2568C122.32 80.2568 122.271 80.2305 122.271 80.1811C122.271 80.1055 122.336 80.0792 122.477 80.0792C123.045 80.0792 123.845 80.1154 123.904 80.1154C123.973 80.1154 124.769 80.0792 125.148 80.0792C125.289 80.0792 125.354 80.1088 125.354 80.1811C125.354 80.2305 125.295 80.2568 125.249 80.2568C125.161 80.2568 125.086 80.2666 124.933 80.2929C124.59 80.3587 124.489 80.5724 124.462 81.0228C124.436 81.4304 124.436 81.7888 124.436 83.7843V86.0331Z" fill="#231F20"/>
<path d="M132.189 79.9017C135.04 79.9017 137.179 81.7132 137.179 84.6885C137.179 87.6637 135.167 89.9157 132.114 89.9157C128.633 89.9157 127.196 87.1969 127.196 84.8956C127.196 82.8277 128.688 79.9017 132.189 79.9017ZM132.454 89.4259C133.6 89.4259 135.958 88.7618 135.958 85.0468C135.958 81.9795 134.103 80.3324 132.098 80.3324C129.978 80.3324 128.391 81.7395 128.391 84.534C128.391 87.5092 130.171 89.4226 132.45 89.4226L132.454 89.4259Z" fill="#231F20"/>
<path d="M142.607 86.0331C142.607 87.2594 142.607 88.2654 142.672 88.8045C142.708 89.1727 142.78 89.4555 143.162 89.5048C143.341 89.5344 143.619 89.5574 143.733 89.5574C143.812 89.5574 143.831 89.5936 143.831 89.633C143.831 89.6988 143.772 89.7349 143.632 89.7349C142.933 89.7349 142.133 89.6988 142.071 89.6988C142.006 89.6988 141.212 89.7349 140.827 89.7349C140.69 89.7349 140.628 89.7053 140.628 89.633C140.628 89.5969 140.65 89.5574 140.729 89.5574C140.843 89.5574 140.997 89.5344 141.111 89.5048C141.366 89.4555 141.431 89.1727 141.477 88.8045C141.542 88.2654 141.542 87.2594 141.542 86.0331V80.6316L139.664 80.6579C138.877 80.6677 138.573 80.7565 138.371 81.0655C138.231 81.2858 138.191 81.3713 138.155 81.4633C138.116 81.5653 138.077 81.5916 138.025 81.5916C137.989 81.5916 137.966 81.5455 137.966 81.4699C137.966 81.345 138.214 80.2436 138.244 80.1417C138.27 80.0628 138.322 79.9017 138.368 79.9017C138.459 79.9017 138.58 80.03 138.926 80.053C139.292 80.0891 139.775 80.1154 139.929 80.1154H144.687C145.095 80.1154 145.386 80.0891 145.588 80.053C145.778 80.03 145.889 79.9872 145.947 79.9872C146.006 79.9872 146.006 80.0628 146.006 80.1417C146.006 80.5264 145.967 81.4075 145.967 81.5455C145.967 81.6672 145.934 81.7132 145.882 81.7132C145.817 81.7132 145.791 81.677 145.781 81.4929L145.771 81.3581C145.732 80.9735 145.425 80.6809 144.207 80.6546L142.613 80.6283V86.0298L142.607 86.0331Z" fill="#231F20"/>
<path d="M148.671 83.7843C148.671 81.792 148.671 81.4304 148.642 81.0227C148.616 80.5921 148.511 80.3817 148.096 80.2929C147.995 80.2666 147.78 80.2567 147.662 80.2567C147.613 80.2567 147.564 80.2304 147.564 80.1811C147.564 80.1055 147.623 80.0792 147.763 80.0792C148.057 80.0792 148.403 80.0792 148.681 80.0891L149.2 80.1154C149.288 80.1154 151.809 80.1154 152.103 80.1088C152.348 80.0891 152.547 80.0628 152.649 80.0398C152.714 80.0266 152.766 79.9773 152.825 79.9773C152.864 79.9773 152.874 80.0299 152.874 80.0891C152.874 80.1844 152.812 80.3356 152.776 80.694C152.766 80.8189 152.737 81.3811 152.714 81.5356C152.701 81.5981 152.675 81.677 152.629 81.677C152.551 81.677 152.525 81.6079 152.525 81.5126C152.525 81.4173 152.512 81.2036 152.453 81.049C152.361 80.8485 152.234 80.694 151.545 80.6151C151.329 80.5954 149.951 80.5789 149.811 80.5789C149.762 80.5789 149.736 80.6151 149.736 80.7071V84.2314C149.736 84.3202 149.745 84.3629 149.811 84.3629C149.971 84.3629 151.532 84.3629 151.829 84.3366C152.133 84.3103 152.309 84.2808 152.42 84.1558C152.508 84.0539 152.56 83.9882 152.613 83.9882C152.649 83.9882 152.672 84.0177 152.672 84.0901C152.672 84.1624 152.613 84.386 152.57 84.8068C152.544 85.0599 152.521 85.5366 152.521 85.6254C152.521 85.7273 152.521 85.8687 152.427 85.8687C152.371 85.8687 152.342 85.8161 152.342 85.7503C152.342 85.6254 152.342 85.4972 152.289 85.3295C152.237 85.152 152.126 84.9317 151.63 84.8791C151.284 84.8429 150.033 84.8133 149.814 84.8133C149.752 84.8133 149.729 84.8561 149.729 84.9054V86.0297C149.729 86.4637 149.716 87.9464 149.729 88.2094C149.762 89.0938 149.954 89.2582 151.199 89.2582C151.525 89.2582 152.084 89.2582 152.417 89.1168C152.75 88.9754 152.903 88.719 152.992 88.1963C153.018 88.0582 153.044 88.0056 153.099 88.0056C153.178 88.0056 153.178 88.1075 153.178 88.1963C153.178 88.3048 153.076 89.1661 153.014 89.4357C152.923 89.7677 152.822 89.7677 152.329 89.7677C151.375 89.7677 150.676 89.7447 150.183 89.7316C149.69 89.702 149.383 89.6954 149.194 89.6954C149.164 89.6954 148.949 89.6954 148.681 89.7053C148.433 89.7053 148.142 89.7349 147.953 89.7349C147.812 89.7349 147.747 89.7053 147.747 89.633C147.747 89.5968 147.77 89.5573 147.848 89.5573C147.956 89.5573 148.113 89.5343 148.227 89.5047C148.482 89.4554 148.544 89.1727 148.599 88.8045C148.661 88.2653 148.661 87.2593 148.661 86.033V83.7843H148.671Z" fill="#231F20"/>
<path d="M157.472 86.0561C157.472 87.9333 157.521 88.7453 157.75 88.9787C157.955 89.1859 158.282 89.268 159.275 89.268C159.947 89.268 160.503 89.2582 160.81 88.89C160.976 88.6861 161.097 88.364 161.136 88.124C161.149 88.0253 161.175 87.9596 161.254 87.9596C161.319 87.9596 161.329 88.0056 161.329 88.147C161.329 88.2883 161.234 89.0544 161.136 89.4226C161.048 89.7184 161.012 89.7678 160.343 89.7678C159.428 89.7678 158.765 89.7447 158.236 89.7316C157.704 89.702 157.309 89.6954 156.943 89.6954C156.891 89.6954 156.672 89.7053 156.424 89.7053C156.169 89.7184 155.891 89.7349 155.699 89.7349C155.558 89.7349 155.5 89.7053 155.5 89.633C155.5 89.5968 155.519 89.5574 155.601 89.5574C155.715 89.5574 155.869 89.5343 155.976 89.5048C156.234 89.4554 156.293 89.1727 156.349 88.8045C156.414 88.2653 156.414 87.2593 156.414 86.0331V83.7843C156.414 81.7921 156.414 81.4304 156.385 81.0228C156.362 80.5921 156.264 80.3817 155.836 80.2929C155.741 80.2666 155.522 80.2568 155.408 80.2568C155.362 80.2568 155.31 80.2305 155.31 80.1811C155.31 80.1055 155.369 80.0792 155.509 80.0792C156.084 80.0792 156.881 80.1154 156.946 80.1154C157.012 80.1154 157.939 80.0792 158.315 80.0792C158.455 80.0792 158.517 80.1088 158.517 80.1811C158.517 80.2305 158.468 80.2568 158.416 80.2568C158.331 80.2568 158.151 80.2666 158.004 80.2929C157.639 80.3587 157.531 80.5724 157.508 81.0228C157.479 81.4304 157.479 81.7888 157.479 83.7843V86.0561H157.472Z" fill="#231F20"/>
<path d="M174.068 86.4802C174.068 85.4413 174.006 85.3 173.494 85.1586C173.396 85.1389 173.18 85.1257 173.063 85.1257C173.014 85.1257 172.968 85.0928 172.968 85.0468C172.968 84.9712 173.03 84.9449 173.167 84.9449C173.742 84.9449 174.542 84.9811 174.601 84.9811C174.666 84.9811 175.463 84.9449 175.842 84.9449C175.985 84.9449 176.051 84.9745 176.051 85.0468C176.051 85.0928 175.995 85.1257 175.949 85.1257C175.858 85.1257 175.783 85.1389 175.629 85.1586C175.287 85.2243 175.182 85.4413 175.162 85.8884C175.136 86.2961 175.136 86.6775 175.136 87.2166V88.6467C175.136 89.2253 175.123 89.2516 174.97 89.3404C174.157 89.7711 173.017 89.9124 172.282 89.9124C171.319 89.9124 169.516 89.7842 168.109 88.5448C167.335 87.8676 166.596 86.4999 166.596 84.9054C166.596 82.8606 167.589 81.4173 168.719 80.7039C169.856 79.9839 171.116 79.8984 172.089 79.8984C172.889 79.8984 173.788 80.0595 174.036 80.1121C174.297 80.1812 174.741 80.2305 175.058 80.2404C175.182 80.2535 175.211 80.3061 175.211 80.3587C175.211 80.5362 175.123 80.8946 175.123 82.1735C175.123 82.374 175.097 82.4397 175.009 82.4397C174.947 82.4397 174.934 82.3641 174.921 82.2491C174.908 82.0715 174.846 81.7099 174.65 81.4042C174.333 80.9209 173.311 80.3719 171.668 80.3719C170.868 80.3719 169.921 80.4475 168.948 81.2135C168.22 81.802 167.694 82.9625 167.694 84.455C167.694 86.2566 168.598 87.5552 169.042 87.9925C170.045 88.9755 171.201 89.3601 172.364 89.3601C172.818 89.3601 173.481 89.2845 173.81 89.0905C173.977 89.0051 174.062 88.8637 174.062 88.6401V86.4736L174.068 86.4802Z" fill="#231F20"/>
<path d="M178.98 83.7843C178.98 81.7921 178.98 81.4304 178.954 81.0228C178.928 80.5921 178.827 80.3817 178.409 80.2929C178.307 80.2666 178.088 80.2568 177.974 80.2568C177.928 80.2568 177.876 80.2305 177.876 80.1811C177.876 80.1055 177.942 80.0792 178.082 80.0792C178.65 80.0792 179.45 80.1154 179.512 80.1154C179.656 80.1154 180.619 80.0792 181.008 80.0792C181.808 80.0792 182.66 80.1548 183.33 80.6414C183.647 80.8715 184.208 81.4929 184.208 82.3773C184.208 83.3208 183.816 84.2676 182.67 85.3295C183.712 86.6676 184.574 87.8051 185.309 88.5941C185.995 89.3272 186.54 89.4653 186.854 89.5212C187.099 89.5574 187.275 89.5574 187.353 89.5574C187.419 89.5574 187.468 89.5935 187.468 89.633C187.468 89.7086 187.392 89.7349 187.161 89.7349H186.263C185.551 89.7349 185.237 89.6724 184.904 89.4916C184.359 89.1957 183.918 88.5711 183.193 87.6144C182.66 86.9108 182.063 86.0594 181.808 85.7273C181.753 85.6747 181.72 85.6517 181.642 85.6517L180.084 85.6254C180.022 85.6254 179.996 85.6616 179.996 85.7273V86.0331C179.996 87.2593 179.996 88.2653 180.058 88.8045C180.097 89.1727 180.172 89.4554 180.561 89.5048C180.73 89.5343 181.011 89.5574 181.126 89.5574C181.204 89.5574 181.224 89.5935 181.224 89.633C181.224 89.6987 181.165 89.7349 181.021 89.7349C180.325 89.7349 179.522 89.6987 179.463 89.6987C179.45 89.6987 178.65 89.7349 178.268 89.7349C178.128 89.7349 178.069 89.7053 178.069 89.633C178.069 89.5968 178.092 89.5574 178.173 89.5574C178.284 89.5574 178.438 89.5343 178.549 89.5048C178.8 89.4554 178.869 89.1727 178.915 88.8045C178.98 88.2653 178.98 87.2593 178.98 86.0331V83.7843ZM179.992 84.8923C179.992 84.958 180.018 85.004 180.081 85.0468C180.273 85.1586 180.855 85.2539 181.413 85.2539C181.717 85.2539 182.073 85.2112 182.36 85.0073C182.807 84.7049 183.137 84.0145 183.137 83.0413C183.137 81.4436 182.301 80.4869 180.943 80.4869C180.564 80.4869 180.218 80.5263 180.094 80.5658C180.032 80.5921 179.992 80.6414 179.992 80.717V84.8923Z" fill="#231F20"/>
<path d="M192.284 79.9017C195.139 79.9017 197.271 81.7132 197.271 84.6885C197.271 87.6637 195.266 89.9157 192.213 89.9157C188.731 89.9157 187.288 87.1969 187.288 84.8956C187.288 82.8277 188.78 79.9017 192.284 79.9017ZM192.552 89.4259C193.699 89.4259 196.056 88.7618 196.056 85.0468C196.056 81.9795 194.201 80.3324 192.196 80.3324C190.077 80.3324 188.49 81.7395 188.49 84.534C188.49 87.5092 190.266 89.4226 192.549 89.4226L192.552 89.4259Z" fill="#231F20"/>
<path d="M199.609 83.7843C199.609 81.7921 199.609 81.4304 199.583 81.0228C199.554 80.5921 199.456 80.3817 199.031 80.2929C198.93 80.2666 198.715 80.2567 198.6 80.2567C198.548 80.2567 198.502 80.2304 198.502 80.1811C198.502 80.1055 198.561 80.0792 198.705 80.0792C199.276 80.0792 200.05 80.1154 200.168 80.1154C200.276 80.1154 201.043 80.0792 201.422 80.0792C201.556 80.0792 201.621 80.1088 201.621 80.1811C201.621 80.2304 201.572 80.2567 201.52 80.2567C201.432 80.2567 201.353 80.2666 201.2 80.2929C200.86 80.3455 200.759 80.5724 200.733 81.0228C200.707 81.4304 200.707 81.7888 200.707 83.7843V85.5695C200.707 87.4073 201.115 88.1996 201.66 88.7223C202.281 89.3108 202.849 89.4226 203.574 89.4226C204.348 89.4226 205.112 89.0543 205.563 88.5053C206.154 87.7755 206.301 86.6906 206.301 85.3722V83.781C206.301 81.7888 206.301 81.4271 206.278 81.0195C206.252 80.5888 206.154 80.3784 205.733 80.2896C205.628 80.2633 205.419 80.2535 205.302 80.2535C205.253 80.2535 205.204 80.2272 205.204 80.1778C205.204 80.1022 205.269 80.0759 205.403 80.0759C205.974 80.0759 206.673 80.1121 206.748 80.1121C206.836 80.1121 207.434 80.0759 207.813 80.0759C207.953 80.0759 208.019 80.1055 208.019 80.1778C208.019 80.2272 207.96 80.2535 207.914 80.2535C207.823 80.2535 207.751 80.2633 207.597 80.2896C207.254 80.3685 207.15 80.5691 207.127 81.0195C207.107 81.4271 207.107 81.7855 207.107 83.781V85.1454C207.107 86.5196 206.947 88.0582 205.935 88.9656C205.021 89.7809 204.067 89.9091 203.316 89.9091C202.891 89.9091 201.605 89.8565 200.707 89.005C200.083 88.4034 199.606 87.5092 199.606 85.6451V83.7778L199.609 83.7843Z" fill="#231F20"/>
<path d="M210.876 83.7843C210.876 81.7921 210.876 81.4304 210.85 81.0228C210.824 80.5921 210.723 80.3817 210.305 80.2929C210.2 80.2666 209.985 80.2568 209.87 80.2568C209.818 80.2568 209.769 80.2305 209.769 80.1811C209.769 80.1055 209.834 80.0792 209.975 80.0792C210.543 80.0792 211.301 80.1154 211.405 80.1154C211.683 80.1154 212.421 80.0792 213.009 80.0792C214.596 80.0792 215.161 80.6118 215.37 80.8091C215.644 81.0721 216.003 81.6507 216.003 82.3247C216.003 84.1394 214.684 85.3657 212.881 85.3657C212.819 85.3657 212.679 85.3657 212.62 85.3558C212.551 85.3558 212.476 85.3295 212.476 85.2605C212.476 85.1586 212.555 85.1487 212.819 85.1487C214.047 85.1487 215.017 84.2413 215.017 83.0644C215.017 82.6435 214.975 81.7888 214.308 81.0951C213.636 80.408 212.855 80.454 212.564 80.454C212.352 80.454 212.137 80.4803 212.022 80.5329C211.944 80.5592 211.924 80.648 211.924 80.7762V86.0265C211.924 87.2528 211.924 88.2588 211.983 88.7979C212.022 89.1661 212.097 89.4489 212.48 89.4982C212.659 89.5278 212.937 89.5508 213.051 89.5508C213.129 89.5508 213.156 89.5869 213.156 89.6264C213.156 89.6921 213.09 89.7283 212.947 89.7283C212.251 89.7283 211.454 89.6921 211.392 89.6921C211.353 89.6921 210.553 89.7283 210.171 89.7283C210.03 89.7283 209.972 89.6987 209.972 89.6264C209.972 89.5902 209.994 89.5508 210.073 89.5508C210.187 89.5508 210.341 89.5278 210.455 89.4982C210.706 89.4489 210.772 89.1661 210.821 88.7979C210.886 88.2588 210.886 87.2528 210.886 86.0265V83.7778L210.876 83.7843Z" fill="#231F20"/>
<path d="M103.892 78.8562L105.355 81.5948H108.679L103.957 73.0767L99.2218 81.5948H102.452L103.892 78.8562Z" fill="#B11116"/>
<path d="M110.136 84.2281H106.759L108.278 87.0686H99.568L101.067 84.2281H97.7555L93.4317 92H96.9717L98.1833 89.702H109.679L110.906 92H114.446L110.136 84.2281Z" fill="#B11116"/>
<path d="M0.189423 70.6438H215.925" stroke="#231F20" stroke-width="0.25"/>
<path d="M153.086 55.1066H151.215V50.8097C151.215 50.379 151.075 49.4092 149.853 49.4092C149.02 49.4092 148.436 49.9812 148.436 50.8097V55.1066H146.548V44.4877H148.436V48.1435C148.903 47.7851 149.471 47.5714 150.108 47.5714C151.894 47.5714 153.083 48.8733 153.083 50.813V55.1099L153.086 55.1066Z" fill="#A7A9AC"/>
<path d="M126.18 55.1066H124.407C124.407 55.1066 123.061 55.1164 122.183 55.1164C120.253 55.1164 118.679 53.5482 118.679 51.4376C118.679 49.327 120.224 47.5681 122.438 47.5681C124.652 47.5681 126.18 49.3105 126.18 51.4376V55.1066ZM122.438 49.3401C121.402 49.3401 120.563 50.2376 120.563 51.4508C120.563 52.6639 121.399 53.5187 122.438 53.5187H124.309V51.4508C124.309 50.2804 123.473 49.3401 122.438 49.3401Z" fill="#A7A9AC"/>
<path d="M136.575 55.1066H134.802C134.802 55.1066 133.456 55.1164 132.578 55.1164C130.651 55.1164 129.074 53.5482 129.074 51.4376C129.074 49.327 130.618 47.5681 132.832 47.5681C135.047 47.5681 136.575 49.3105 136.575 51.4376V55.1066ZM132.832 49.3401C131.794 49.3401 130.958 50.2376 130.958 51.4508C130.958 52.6639 131.794 53.5187 132.832 53.5187H134.7V51.4508C134.7 50.2804 133.864 49.3401 132.832 49.3401Z" fill="#A7A9AC"/>
<path d="M160.254 47.8016C160.254 48.0876 160.254 48.3375 160.254 48.5906C160.248 49.7775 160.268 50.9676 160.225 52.1544C160.202 52.8777 159.827 53.1834 159.111 53.1801C158.4 53.1801 158.027 52.8678 158.008 52.1445C157.972 50.8558 157.985 49.5638 157.975 48.275C157.975 48.1139 157.959 47.9528 157.952 47.7917H155.993C155.993 49.544 155.954 51.27 156.009 52.996C156.038 53.8639 156.61 54.4754 157.462 54.791C158.579 55.2086 159.719 55.2086 160.826 54.768C161.561 54.4787 162.083 53.9626 162.181 53.1834C162.247 52.664 162.247 52.1379 162.25 51.6119C162.26 50.3429 162.25 49.0772 162.25 47.795H160.251L160.254 47.8016Z" fill="#A7A9AC"/>
<path d="M169.258 50.9675C168.768 50.6683 168.229 50.4481 167.739 50.1489C167.55 50.0338 167.429 49.8037 167.279 49.6229C167.495 49.5308 167.707 49.3697 167.926 49.3599C168.621 49.3237 169.323 49.3467 170.048 49.3467V47.4991C169.088 47.4991 168.151 47.4399 167.223 47.5155C166.103 47.6076 165.447 48.2191 165.244 49.1955C165.055 50.1029 165.398 50.79 166.365 51.385C166.73 51.6119 167.129 51.7861 167.501 52.0064C167.844 52.2102 168.36 52.3647 168.21 52.8874C168.076 53.3609 167.583 53.2031 167.223 53.2096C166.531 53.2261 165.836 53.2162 165.143 53.2162V55.0605C166.254 55.0605 167.338 55.1296 168.406 55.0408C169.532 54.9455 170.205 54.2682 170.424 53.2425C170.62 52.3187 170.254 51.5757 169.258 50.9642V50.9675Z" fill="#A7A9AC"/>
<path d="M141.277 48.7648V47.5419H139.465V55.1099H141.529C141.529 53.9461 141.529 52.8086 141.529 51.6711C141.529 50.5204 141.852 49.4717 143.537 49.5539C143.567 49.5539 143.599 49.5276 143.655 49.498V47.4235C142.522 47.3084 141.829 47.8739 141.277 48.7648Z" fill="#A7A9AC"/>
</svg>
