<svg width="334" height="88" viewBox="0 0 334 88" fill="none" xmlns="http://www.w3.org/2000/svg">
<path d="M100.242 78.0798C100.206 78.0798 100.17 78.0678 100.17 78.0078V77.7558C100.17 75.8838 100.17 75.5478 100.194 75.1638C100.218 74.7438 100.314 74.5398 100.638 74.4798C100.782 74.4558 100.854 74.4438 100.938 74.4438C100.986 74.4438 101.034 74.4198 101.034 74.3718C101.034 74.2998 100.974 74.2758 100.842 74.2758C100.482 74.2758 99.7263 74.3118 99.6663 74.3118C99.6063 74.3118 98.8503 74.2758 98.3103 74.2758C98.1783 74.2758 98.1183 74.2998 98.1183 74.3718C98.1183 74.4198 98.1663 74.4438 98.2143 74.4438C98.3223 74.4438 98.5263 74.4558 98.6223 74.4798C99.0183 74.5638 99.1143 74.7558 99.1383 75.1638C99.1623 75.5478 99.1623 75.8838 99.1623 77.7558V79.8678C99.1623 81.0198 99.1623 81.9678 99.1023 82.4718C99.0543 82.8198 98.9943 83.0838 98.7543 83.1318C98.6463 83.1558 98.5023 83.1798 98.3943 83.1798C98.3223 83.1798 98.2983 83.2158 98.2983 83.2518C98.2983 83.3238 98.3583 83.3478 98.4903 83.3478C98.8503 83.3478 99.6063 83.3118 99.6663 83.3118C99.7263 83.3118 100.482 83.3478 101.142 83.3478C101.274 83.3478 101.334 83.3118 101.334 83.2518C101.334 83.2158 101.31 83.1798 101.238 83.1798C101.13 83.1798 100.866 83.1558 100.698 83.1318C100.338 83.0838 100.266 82.8198 100.23 82.4718C100.17 81.9678 100.17 81.0198 100.17 79.8678V78.6078C100.17 78.5478 100.206 78.5358 100.242 78.5358H105.33C105.366 78.5358 105.402 78.5598 105.402 78.6078V79.8678C105.402 81.0198 105.402 81.9678 105.342 82.4718C105.294 82.8198 105.234 83.0838 104.994 83.1318C104.886 83.1558 104.742 83.1798 104.634 83.1798C104.562 83.1798 104.538 83.2158 104.538 83.2518C104.538 83.3238 104.598 83.3478 104.73 83.3478C105.09 83.3478 105.846 83.3118 105.906 83.3118C105.966 83.3118 106.722 83.3478 107.382 83.3478C107.514 83.3478 107.574 83.3118 107.574 83.2518C107.574 83.2158 107.55 83.1798 107.478 83.1798C107.37 83.1798 107.106 83.1558 106.938 83.1318C106.578 83.0838 106.506 82.8198 106.47 82.4718C106.41 81.9678 106.41 81.0198 106.41 79.8678V77.7558C106.41 75.8838 106.41 75.5478 106.434 75.1638C106.458 74.7438 106.554 74.5398 106.878 74.4798C107.022 74.4558 107.094 74.4438 107.178 74.4438C107.226 74.4438 107.274 74.4198 107.274 74.3718C107.274 74.2998 107.214 74.2758 107.082 74.2758C106.722 74.2758 105.966 74.3118 105.906 74.3118C105.846 74.3118 105.09 74.2758 104.55 74.2758C104.418 74.2758 104.358 74.2998 104.358 74.3718C104.358 74.4198 104.406 74.4438 104.454 74.4438C104.562 74.4438 104.766 74.4558 104.862 74.4798C105.258 74.5638 105.354 74.7558 105.378 75.1638C105.402 75.5478 105.402 75.8838 105.402 77.7558V78.0078C105.402 78.0678 105.366 78.0798 105.33 78.0798H100.242ZM117.371 83.5158C120.263 83.5158 122.159 81.2958 122.159 78.6078C122.159 75.8118 120.143 74.1078 117.443 74.1078C114.131 74.1078 112.715 76.8558 112.715 78.7998C112.715 80.9598 114.083 83.5158 117.371 83.5158ZM117.695 83.0598C115.535 83.0598 113.855 81.2598 113.855 78.4638C113.855 75.8358 115.355 74.5158 117.359 74.5158C119.255 74.5158 121.007 76.0638 121.007 78.9438C121.007 82.4358 118.775 83.0598 117.695 83.0598ZM131.032 74.7918C131.536 74.8038 132.04 74.8038 132.544 74.8158C133.696 74.8398 133.984 75.1158 134.02 75.4758C134.02 75.5238 134.032 75.5598 134.032 75.6078C134.044 75.7758 134.068 75.8118 134.128 75.8118C134.176 75.8118 134.212 75.7638 134.212 75.6558C134.212 75.5238 134.248 74.6958 134.248 74.3358C134.248 74.2638 134.248 74.1918 134.188 74.1918C134.14 74.1918 134.032 74.2278 133.852 74.2518C133.66 74.2878 133.384 74.3118 133 74.3118H128.5C128.356 74.3118 127.9 74.2878 127.552 74.2518C127.228 74.2278 127.108 74.1078 127.024 74.1078C126.976 74.1078 126.928 74.2638 126.904 74.3358C126.88 74.4318 126.64 75.4638 126.64 75.5838C126.64 75.6558 126.664 75.6918 126.7 75.6918C126.748 75.6918 126.784 75.6678 126.82 75.5718C126.856 75.4878 126.892 75.4038 127.024 75.1998C127.216 74.9118 127.504 74.8278 128.248 74.8158C128.836 74.8038 129.436 74.8038 130.024 74.7918V79.8678C130.024 81.0198 130.024 81.9678 129.964 82.4718C129.916 82.8198 129.856 83.0838 129.616 83.1318C129.508 83.1558 129.364 83.1798 129.256 83.1798C129.184 83.1798 129.16 83.2158 129.16 83.2518C129.16 83.3238 129.22 83.3478 129.352 83.3478C129.712 83.3478 130.468 83.3118 130.528 83.3118C130.588 83.3118 131.344 83.3478 132.004 83.3478C132.136 83.3478 132.196 83.3118 132.196 83.2518C132.196 83.2158 132.172 83.1798 132.1 83.1798C131.992 83.1798 131.728 83.1558 131.56 83.1318C131.2 83.0838 131.128 82.8198 131.092 82.4718C131.032 81.9678 131.032 81.0198 131.032 79.8678V74.7918ZM140.372 79.8678C140.372 80.9358 140.36 81.5478 140.348 82.0158C140.324 82.9158 140.168 83.0838 139.916 83.1438C139.832 83.1678 139.76 83.1678 139.64 83.1798C139.568 83.1918 139.508 83.2158 139.508 83.2518C139.508 83.3238 139.568 83.3478 139.7 83.3478C140.012 83.3598 140.3 83.3118 140.588 83.3118C141.056 83.3118 141.609 83.3358 142.088 83.3478C142.556 83.3598 142.952 83.3838 143.84 83.3838C144.309 83.3838 144.404 83.3838 144.489 83.0718C144.549 82.8198 144.645 82.0038 144.645 81.9078C144.645 81.8238 144.645 81.7278 144.572 81.7278C144.512 81.7278 144.489 81.7758 144.465 81.9078C144.369 82.4238 144.236 82.6758 143.853 82.7958C143.528 82.8918 143.133 82.9038 142.773 82.9038C142.304 82.9038 141.98 82.8798 141.776 82.7958C141.476 82.6758 141.404 82.4118 141.381 81.9198C141.368 81.6678 141.381 80.2758 141.381 79.8678V78.8118C141.381 78.7638 141.404 78.7278 141.465 78.7278C141.668 78.7278 142.857 78.7518 143.181 78.7878C143.612 78.8358 143.756 79.0038 143.804 79.1838C143.84 79.2918 143.853 79.4118 143.853 79.5198C143.853 79.6158 143.864 79.7118 143.937 79.7118C143.985 79.7118 144.009 79.6518 144.021 79.5318C144.032 79.3638 144.032 79.0878 144.069 78.7158C144.105 78.3198 144.164 78.1158 144.164 78.0438C144.164 77.9718 144.14 77.9478 144.105 77.9478C144.056 77.9478 144.021 77.9958 143.961 78.0678C143.84 78.2118 143.685 78.2478 143.36 78.2718C143.084 78.2958 141.609 78.2958 141.452 78.2958C141.392 78.2958 141.381 78.2598 141.381 78.1758V74.8638C141.381 74.7798 141.404 74.7438 141.452 74.7438C141.584 74.7438 142.892 74.7558 143.097 74.7798C143.625 74.8278 143.877 74.9478 143.961 75.2238C143.997 75.3198 144.021 75.4638 144.021 75.6198C144.021 75.7158 144.045 75.7758 144.116 75.7758C144.164 75.7758 144.2 75.6918 144.213 75.5718C144.236 75.2598 144.249 75.0318 144.261 74.8518C144.284 74.5158 144.357 74.3718 144.357 74.2878C144.357 74.2278 144.344 74.1798 144.309 74.1798C144.273 74.1798 144.249 74.1918 144.177 74.2278C144.105 74.2638 143.888 74.2878 143.625 74.2998C143.349 74.3118 140.96 74.3118 140.876 74.3118C140.12 74.2758 139.796 74.2758 139.52 74.2758C139.388 74.2758 139.328 74.2998 139.328 74.3718C139.328 74.4198 139.4 74.4318 139.484 74.4438C139.592 74.4558 139.748 74.4558 139.832 74.4798C140.228 74.5638 140.324 74.7558 140.348 75.1638C140.372 75.5478 140.372 75.8838 140.372 77.7558V79.8678ZM152.035 77.7558C152.035 75.8838 152.035 75.5478 152.059 75.1638C152.083 74.7438 152.179 74.5398 152.527 74.4798C152.671 74.4558 152.839 74.4438 152.923 74.4438C152.971 74.4438 153.019 74.4198 153.019 74.3718C153.019 74.2998 152.959 74.2758 152.827 74.2758C152.467 74.2758 151.591 74.3118 151.531 74.3118C151.471 74.3118 150.715 74.2758 150.175 74.2758C150.043 74.2758 149.983 74.2998 149.983 74.3718C149.983 74.4198 150.031 74.4438 150.079 74.4438C150.187 74.4438 150.391 74.4558 150.487 74.4798C150.883 74.5638 150.979 74.7558 151.003 75.1638C151.027 75.5478 151.027 75.8838 151.027 77.7558V79.8678C151.027 81.0198 151.027 81.9678 150.967 82.4718C150.919 82.8198 150.859 83.0838 150.619 83.1318C150.511 83.1558 150.367 83.1798 150.259 83.1798C150.187 83.1798 150.163 83.2158 150.163 83.2518C150.163 83.3238 150.223 83.3478 150.355 83.3478C150.799 83.3478 151.159 83.3118 151.531 83.3118C152.695 83.3118 153.715 83.3838 154.747 83.3838C155.383 83.3838 155.419 83.3358 155.503 83.0598C155.599 82.7118 155.683 81.9918 155.683 81.8598C155.683 81.7278 155.671 81.6798 155.611 81.6798C155.539 81.6798 155.515 81.7398 155.503 81.8358C155.467 82.0638 155.347 82.3638 155.191 82.5558C154.903 82.9038 154.375 82.9158 153.739 82.9158C152.803 82.9158 152.491 82.8318 152.299 82.6398C152.083 82.4238 152.035 81.6558 152.035 79.8918V77.7558ZM177.355 74.4318C177.331 74.2038 177.295 74.1078 177.211 74.1078C177.127 74.1078 177.079 74.1918 177.031 74.2998L173.503 81.8358L169.831 74.2878C169.771 74.1558 169.723 74.1078 169.651 74.1078C169.579 74.1078 169.531 74.2158 169.519 74.3478L168.655 82.1478C168.595 82.6398 168.571 83.0718 168.175 83.1438C167.995 83.1798 167.911 83.1798 167.815 83.1798C167.755 83.1798 167.695 83.2038 167.695 83.2518C167.695 83.3358 167.779 83.3478 167.899 83.3478C168.223 83.3478 168.799 83.3118 168.907 83.3118C169.003 83.3118 169.615 83.3478 170.059 83.3478C170.179 83.3478 170.239 83.3238 170.239 83.2398C170.239 83.2038 170.191 83.1798 170.119 83.1798C170.047 83.1798 169.891 83.1798 169.687 83.1318C169.507 83.0958 169.363 82.9998 169.363 82.6998C169.363 82.4958 169.375 82.3278 169.387 82.1358L169.879 76.4838C170.011 76.8078 171.391 79.7718 171.499 79.9878C171.559 80.1078 172.591 82.1838 172.903 82.7718C173.131 83.2038 173.191 83.3238 173.275 83.3238C173.383 83.3238 173.419 83.2158 173.671 82.6878L176.647 76.3758L177.223 82.6398C177.247 82.8558 177.259 83.0358 177.175 83.0718C177.115 83.0958 177.091 83.1078 177.091 83.1558C177.091 83.2158 177.151 83.2518 177.427 83.2758C177.871 83.3118 179.239 83.3478 179.503 83.3478C179.647 83.3478 179.683 83.3238 179.683 83.2518C179.683 83.1918 179.611 83.1798 179.551 83.1798C179.431 83.1798 179.155 83.1798 178.807 83.0718C178.291 82.9038 178.207 82.2318 178.159 81.7998L177.355 74.4318ZM188.717 83.5158C191.609 83.5158 193.505 81.2958 193.505 78.6078C193.505 75.8118 191.489 74.1078 188.789 74.1078C185.477 74.1078 184.061 76.8558 184.061 78.7998C184.061 80.9598 185.429 83.5158 188.717 83.5158ZM189.041 83.0598C186.881 83.0598 185.201 81.2598 185.201 78.4638C185.201 75.8358 186.701 74.5158 188.705 74.5158C190.601 74.5158 192.353 76.0638 192.353 78.9438C192.353 82.4358 190.121 83.0598 189.041 83.0598ZM199.833 79.8678C199.833 81.0198 199.833 81.9678 199.773 82.4718C199.725 82.8198 199.677 83.0958 199.437 83.1438C199.329 83.1678 199.245 83.1798 199.149 83.1798C198.993 83.1798 198.969 83.2278 198.969 83.2638C198.969 83.3238 199.029 83.3478 199.161 83.3478C199.581 83.3478 199.953 83.3118 200.337 83.3118C200.385 83.3118 200.721 83.3238 201.069 83.3478C201.417 83.3598 201.801 83.3838 201.933 83.3838C203.985 83.3838 204.993 82.0518 204.993 80.7678C204.993 79.3638 203.805 78.5118 202.917 78.2358C203.481 77.6478 204.045 77.0598 204.045 76.0758C204.045 75.4758 203.613 74.2758 201.645 74.2758C201.093 74.2758 200.625 74.3118 200.337 74.3118C200.277 74.3118 199.521 74.2758 198.981 74.2758C198.849 74.2758 198.789 74.2998 198.789 74.3718C198.789 74.4198 198.837 74.4438 198.945 74.4438C198.993 74.4438 199.197 74.4558 199.293 74.4798C199.689 74.5638 199.785 74.7558 199.809 75.1638C199.833 75.5478 199.833 75.8838 199.833 77.7558V79.8678ZM200.793 74.8038C200.793 74.7318 200.829 74.6958 200.937 74.6718C201.129 74.6238 201.381 74.6118 201.513 74.6118C202.689 74.6118 203.133 75.6798 203.133 76.6758C203.133 77.1678 202.953 77.5998 202.701 77.8878C202.449 78.1758 202.281 78.1998 201.609 78.1998C201.165 78.1998 200.949 78.1638 200.877 78.1518C200.817 78.1278 200.793 78.1038 200.793 78.0198V74.8038ZM200.793 78.6078C200.793 78.5478 200.817 78.5238 200.865 78.5238C201.045 78.5238 201.645 78.5238 201.801 78.5478C202.089 78.5838 202.389 78.6198 202.797 78.8958C203.721 79.5318 203.961 80.5758 203.961 81.2958C203.961 82.6518 202.917 82.9998 202.269 82.9998C202.053 82.9998 201.537 82.9758 201.213 82.8198C200.841 82.6398 200.841 82.4718 200.805 81.8838C200.793 81.7038 200.793 80.2158 200.793 79.2918V78.6078ZM211.39 79.8678C211.39 81.0198 211.39 81.9678 211.33 82.4718C211.282 82.8198 211.21 83.0958 210.97 83.1438C210.862 83.1678 210.73 83.1798 210.658 83.1798C210.55 83.1798 210.526 83.2158 210.526 83.2518C210.526 83.3238 210.586 83.3478 210.718 83.3478C211.078 83.3478 211.834 83.3118 211.894 83.3118C211.954 83.3118 212.722 83.3478 213.382 83.3478C213.514 83.3478 213.562 83.3118 213.562 83.2518C213.562 83.2158 213.526 83.1798 213.418 83.1798C213.346 83.1798 213.094 83.1558 212.926 83.1318C212.566 83.0838 212.494 82.8198 212.458 82.4718C212.398 81.9678 212.398 81.0198 212.398 79.8678V77.7558C212.398 75.8838 212.398 75.5478 212.422 75.1638C212.446 74.7438 212.542 74.5398 212.866 74.4798C213.01 74.4558 213.082 74.4438 213.166 74.4438C213.214 74.4438 213.262 74.4198 213.262 74.3718C213.262 74.2998 213.202 74.2758 213.07 74.2758C212.71 74.2758 211.954 74.3118 211.894 74.3118C211.834 74.3118 211.078 74.2758 210.682 74.2758C210.55 74.2758 210.49 74.2998 210.49 74.3718C210.49 74.4198 210.538 74.4438 210.586 74.4438C210.67 74.4438 210.826 74.4558 210.958 74.4918C211.222 74.5518 211.342 74.7558 211.366 75.1638C211.39 75.5478 211.39 75.8838 211.39 77.7558V79.8678ZM221.284 77.7558C221.284 75.8838 221.284 75.5478 221.308 75.1638C221.332 74.7438 221.428 74.5398 221.776 74.4798C221.92 74.4558 222.088 74.4438 222.172 74.4438C222.22 74.4438 222.268 74.4198 222.268 74.3718C222.268 74.2998 222.208 74.2758 222.076 74.2758C221.716 74.2758 220.84 74.3118 220.78 74.3118C220.72 74.3118 219.964 74.2758 219.424 74.2758C219.292 74.2758 219.232 74.2998 219.232 74.3718C219.232 74.4198 219.28 74.4438 219.328 74.4438C219.436 74.4438 219.64 74.4558 219.736 74.4798C220.132 74.5638 220.228 74.7558 220.252 75.1638C220.276 75.5478 220.276 75.8838 220.276 77.7558V79.8678C220.276 81.0198 220.276 81.9678 220.216 82.4718C220.168 82.8198 220.108 83.0838 219.868 83.1318C219.76 83.1558 219.616 83.1798 219.508 83.1798C219.436 83.1798 219.412 83.2158 219.412 83.2518C219.412 83.3238 219.472 83.3478 219.604 83.3478C220.048 83.3478 220.408 83.3118 220.78 83.3118C221.944 83.3118 222.964 83.3838 223.996 83.3838C224.632 83.3838 224.668 83.3358 224.752 83.0598C224.848 82.7118 224.932 81.9918 224.932 81.8598C224.932 81.7278 224.92 81.6798 224.86 81.6798C224.788 81.6798 224.764 81.7398 224.752 81.8358C224.716 82.0638 224.596 82.3638 224.44 82.5558C224.152 82.9038 223.624 82.9158 222.988 82.9158C222.052 82.9158 221.74 82.8318 221.548 82.6398C221.332 82.4238 221.284 81.6558 221.284 79.8918V77.7558ZM230.837 79.8678C230.837 80.9358 230.825 81.5478 230.813 82.0158C230.789 82.9158 230.633 83.0838 230.381 83.1438C230.297 83.1678 230.225 83.1678 230.105 83.1798C230.033 83.1918 229.973 83.2158 229.973 83.2518C229.973 83.3238 230.033 83.3478 230.165 83.3478C230.477 83.3598 230.765 83.3118 231.053 83.3118C231.521 83.3118 232.073 83.3358 232.553 83.3478C233.021 83.3598 233.417 83.3838 234.305 83.3838C234.773 83.3838 234.869 83.3838 234.953 83.0718C235.013 82.8198 235.109 82.0038 235.109 81.9078C235.109 81.8238 235.109 81.7278 235.037 81.7278C234.977 81.7278 234.953 81.7758 234.929 81.9078C234.833 82.4238 234.701 82.6758 234.317 82.7958C233.993 82.8918 233.597 82.9038 233.237 82.9038C232.769 82.9038 232.445 82.8798 232.241 82.7958C231.941 82.6758 231.869 82.4118 231.845 81.9198C231.833 81.6678 231.845 80.2758 231.845 79.8678V78.8118C231.845 78.7638 231.869 78.7278 231.929 78.7278C232.133 78.7278 233.321 78.7518 233.645 78.7878C234.077 78.8358 234.221 79.0038 234.269 79.1838C234.305 79.2918 234.317 79.4118 234.317 79.5198C234.317 79.6158 234.329 79.7118 234.401 79.7118C234.449 79.7118 234.473 79.6518 234.485 79.5318C234.497 79.3638 234.497 79.0878 234.533 78.7158C234.569 78.3198 234.629 78.1158 234.629 78.0438C234.629 77.9718 234.605 77.9478 234.569 77.9478C234.521 77.9478 234.485 77.9958 234.425 78.0678C234.305 78.2118 234.149 78.2478 233.825 78.2718C233.549 78.2958 232.073 78.2958 231.917 78.2958C231.857 78.2958 231.845 78.2598 231.845 78.1758V74.8638C231.845 74.7798 231.869 74.7438 231.917 74.7438C232.049 74.7438 233.357 74.7558 233.561 74.7798C234.089 74.8278 234.341 74.9478 234.425 75.2238C234.461 75.3198 234.485 75.4638 234.485 75.6198C234.485 75.7158 234.509 75.7758 234.581 75.7758C234.629 75.7758 234.665 75.6918 234.677 75.5718C234.701 75.2598 234.713 75.0318 234.725 74.8518C234.749 74.5158 234.821 74.3718 234.821 74.2878C234.821 74.2278 234.809 74.1798 234.773 74.1798C234.737 74.1798 234.713 74.1918 234.641 74.2278C234.569 74.2638 234.353 74.2878 234.089 74.2998C233.813 74.3118 231.425 74.3118 231.341 74.3118C230.585 74.2758 230.261 74.2758 229.985 74.2758C229.853 74.2758 229.793 74.2998 229.793 74.3718C229.793 74.4198 229.865 74.4318 229.949 74.4438C230.057 74.4558 230.213 74.4558 230.297 74.4798C230.693 74.5638 230.789 74.7558 230.813 75.1638C230.837 75.5478 230.837 75.8838 230.837 77.7558V79.8678Z" fill="white"/>
<g clip-path="url(#clip0_12_4)">
<path d="M6.85113 11.2092C7.08738 10.5661 7.16229 10.4455 7.28329 10.4455C7.40429 10.4455 7.4792 10.5431 7.71545 11.1518C8.00932 11.8926 11.092 19.9721 12.2906 22.9467C12.9993 24.6867 13.564 25.0025 13.9788 25.1174C14.2727 25.215 14.5666 25.2379 14.7683 25.2379C14.8835 25.2379 14.9642 25.2552 14.9642 25.3528C14.9642 25.4734 14.7855 25.5078 14.5723 25.5078C14.2785 25.5078 12.8437 25.5078 11.4954 25.4676C11.1208 25.4504 10.9019 25.4504 10.9019 25.3298C10.9019 25.2552 10.9595 25.2092 11.0402 25.192C11.1612 25.1518 11.2764 24.9738 11.1612 24.6637L9.34036 19.8516C9.30002 19.7712 9.25969 19.731 9.16173 19.731H4.93812C4.84016 19.731 4.78254 19.7884 4.74221 19.8918L3.56674 23.3544C3.38811 23.8425 3.29016 24.3134 3.29016 24.6694C3.29016 25.0599 3.70503 25.2379 4.03347 25.2379H4.22938C4.36767 25.2379 4.42529 25.2781 4.42529 25.3528C4.42529 25.4734 4.30429 25.5078 4.13142 25.5078C3.65893 25.5078 2.81767 25.4504 2.59871 25.4504C2.37975 25.4504 1.30223 25.5078 0.380298 25.5078C0.126766 25.5078 0.0057621 25.4676 0.0057621 25.3528C0.0057621 25.2781 0.0806694 25.2379 0.178625 25.2379C0.316915 25.2379 0.593496 25.215 0.749073 25.1978C1.65372 25.0829 2.04554 24.3364 2.39703 23.3602L6.85113 11.2149V11.2092ZM8.89092 19.0304C8.98887 19.0304 8.98887 18.973 8.97159 18.8926L7.10467 13.6095C7.00671 13.3167 6.90875 13.3167 6.8108 13.6095L5.08217 18.8926C5.04183 18.9902 5.08217 19.0304 5.14555 19.0304H8.89092Z" fill="white"/>
<path d="M17.7645 16.3946C17.7645 13.3454 17.7645 12.7941 17.7242 12.1682C17.6839 11.5021 17.5283 11.192 16.8772 11.0542C16.7216 11.014 16.3874 10.9967 16.2145 10.9967C16.1396 10.9967 16.0532 10.9565 16.0532 10.8761C16.0532 10.7613 16.1512 10.7211 16.3644 10.7211C17.2517 10.7211 18.4906 10.7785 18.5828 10.7785C18.8017 10.7785 20.2883 10.7211 20.8991 10.7211C22.138 10.7211 23.4517 10.8417 24.4947 11.5825C24.9845 11.9385 25.8488 12.8917 25.8488 14.2412C25.8488 15.6883 25.2438 17.1354 23.4748 18.7605C25.0882 20.8105 26.4192 22.5505 27.5601 23.7621C28.6203 24.8762 29.4674 25.0944 29.9571 25.1748C30.3259 25.2379 30.6025 25.2379 30.7235 25.2379C30.8215 25.2379 30.8964 25.2954 30.8964 25.3528C30.8964 25.4734 30.7754 25.5078 30.4239 25.5078H29.0352C27.9289 25.5078 27.4449 25.4102 26.932 25.1403C26.0908 24.6867 25.3993 23.7277 24.2815 22.2634C23.4575 21.1895 22.5356 19.8803 22.1437 19.3692C22.0631 19.2945 22.0055 19.2486 21.8902 19.2486L19.4759 19.2084C19.3722 19.2084 19.3376 19.2658 19.3376 19.3634V19.8343C19.3376 21.7121 19.3376 23.2568 19.4356 24.078C19.4989 24.6407 19.6142 25.0772 20.2019 25.1518C20.4727 25.192 20.9049 25.2322 21.0835 25.2322C21.2045 25.2322 21.2391 25.2896 21.2391 25.3471C21.2391 25.4447 21.1411 25.5021 20.9222 25.5021C19.8447 25.5021 18.6116 25.4447 18.5136 25.4447C18.4963 25.4447 17.2575 25.5021 16.6697 25.5021C16.4508 25.5021 16.3528 25.4619 16.3528 25.3471C16.3528 25.2896 16.3932 25.2322 16.5084 25.2322C16.687 25.2322 16.9175 25.192 17.1019 25.1518C17.4937 25.0772 17.5917 24.6407 17.6724 24.078C17.7703 23.2568 17.7703 21.7121 17.7703 19.8343V16.3946H17.7645ZM19.3318 18.0944C19.3318 18.192 19.3722 18.2724 19.4701 18.3298C19.764 18.5021 20.6686 18.6399 21.5272 18.6399C21.9997 18.6399 22.5528 18.5825 23.0023 18.2666C23.688 17.8015 24.2008 16.7449 24.2008 15.2519C24.2008 12.8056 22.9043 11.3413 20.8012 11.3413C20.2134 11.3413 19.6833 11.3987 19.4874 11.4619C19.3895 11.5021 19.3261 11.5767 19.3261 11.6973V18.0944H19.3318Z" fill="white"/>
<path d="M32.5616 16.3946C32.5616 13.3454 32.5616 12.7941 32.5213 12.1682C32.4867 11.5021 32.3254 11.192 31.68 11.0542C31.5244 11.014 31.1902 10.9967 31.0116 10.9967C30.9309 10.9967 30.856 10.9565 30.856 10.8761C30.856 10.7613 30.954 10.7211 31.1672 10.7211C32.0488 10.7211 33.2243 10.7785 33.3856 10.7785C33.812 10.7785 34.9529 10.7211 35.8575 10.7211C38.3122 10.7211 39.1938 11.5423 39.5049 11.8351C39.9371 12.2428 40.4845 13.1214 40.4845 14.1608C40.4845 16.9344 38.4447 18.8179 35.6559 18.8179C35.5579 18.8179 35.3447 18.8179 35.2467 18.8007C35.1488 18.8007 35.0278 18.7605 35.0278 18.6629C35.0278 18.5078 35.1488 18.4849 35.5579 18.4849C37.4594 18.4849 38.9518 17.0952 38.9518 15.2978C38.9518 14.6547 38.8884 13.3396 37.8512 12.283C36.814 11.2264 35.6098 11.3068 35.1603 11.3068C34.8261 11.3068 34.4977 11.347 34.3191 11.4217C34.2038 11.4619 34.1635 11.5997 34.1635 11.7949V19.8343C34.1635 21.7121 34.1635 23.2568 34.2614 24.078C34.3191 24.6407 34.4343 25.0772 35.0278 25.1518C35.3044 25.192 35.7365 25.2322 35.9152 25.2322C36.0304 25.2322 36.0707 25.2896 36.0707 25.3471C36.0707 25.4447 35.9728 25.5021 35.7538 25.5021C34.6763 25.5021 33.4432 25.4447 33.3395 25.4447C33.2819 25.4447 32.043 25.5021 31.4553 25.5021C31.2363 25.5021 31.1441 25.4619 31.1441 25.3471C31.1441 25.2896 31.1845 25.2322 31.2997 25.2322C31.4783 25.2322 31.7146 25.192 31.8874 25.1518C32.2793 25.0772 32.3772 24.6407 32.4579 24.078C32.5559 23.2568 32.5559 21.7121 32.5559 19.8343V16.3946H32.5616Z" fill="white"/>
<path d="M48.0501 19.3864C48.3843 19.3864 48.6379 19.4266 48.6379 19.5817C48.6379 19.8171 48.2691 19.8573 47.9522 19.9147C47.4221 19.9894 43.9475 20.466 43.2791 20.6325C42.9046 20.7359 42.5704 20.9311 42.4782 20.9311C42.3572 20.9311 42.3341 20.8105 42.3745 20.6325L42.6683 19.5415C42.7087 19.4036 42.7893 19.3864 43.1005 19.3864H48.0501Z" fill="white"/>
<path d="M64.6738 19.8343C64.6738 21.7121 64.6738 23.2568 64.7775 24.078C64.8351 24.6407 64.9561 25.0772 65.5439 25.1518C65.8204 25.192 66.2526 25.2322 66.4255 25.2322C66.5465 25.2322 66.581 25.2896 66.581 25.3471C66.581 25.4447 66.4831 25.5021 66.2699 25.5021C65.1866 25.5021 63.9535 25.4447 63.8556 25.4447C63.7576 25.4447 62.5188 25.5021 61.9368 25.5021C61.7178 25.5021 61.6199 25.4619 61.6199 25.3471C61.6199 25.2896 61.6602 25.2322 61.7754 25.2322C61.9541 25.2322 62.1903 25.192 62.3689 25.1518C62.7608 25.0772 62.8587 24.6407 62.9394 24.078C63.0373 23.2568 63.0373 21.7121 63.0373 19.8343V17.7785C63.0373 17.7039 62.9797 17.6637 62.9163 17.6637H54.5959C54.5383 17.6637 54.4749 17.6809 54.4749 17.7785V19.8343C54.4749 21.7121 54.4749 23.2568 54.5728 24.078C54.6304 24.6407 54.7514 25.0772 55.3392 25.1518C55.6158 25.192 56.0479 25.2322 56.2265 25.2322C56.3418 25.2322 56.3821 25.2896 56.3821 25.3471C56.3821 25.4447 56.2842 25.5021 56.0652 25.5021C54.9877 25.5021 53.7488 25.4447 53.6567 25.4447C53.5645 25.4447 52.3198 25.5021 51.7321 25.5021C51.5189 25.5021 51.421 25.4619 51.421 25.3471C51.421 25.2896 51.4613 25.2322 51.5765 25.2322C51.7552 25.2322 51.9856 25.192 52.1643 25.1518C52.5561 25.0772 52.6598 24.6407 52.7347 24.078C52.8327 23.2568 52.8327 21.7121 52.8327 19.8343V16.3946C52.8327 13.3454 52.8327 12.7941 52.7981 12.1682C52.7578 11.5021 52.6022 11.192 51.9568 11.0542C51.7955 11.014 51.4671 10.9967 51.2884 10.9967C51.2078 10.9967 51.1329 10.9565 51.1329 10.8761C51.1329 10.7613 51.2308 10.7211 51.444 10.7211C52.3256 10.7211 53.5645 10.7785 53.6624 10.7785C53.7604 10.7785 54.9935 10.7211 55.587 10.7211C55.8059 10.7211 55.8981 10.7613 55.8981 10.8761C55.8981 10.9565 55.8232 10.9967 55.7425 10.9967C55.6042 10.9967 55.489 11.014 55.247 11.0542C54.7169 11.1518 54.5613 11.4848 54.5267 12.1682C54.4864 12.7941 54.4864 13.3396 54.4864 16.3946V16.8081C54.4864 16.9057 54.5498 16.9287 54.6074 16.9287H62.9279C62.9912 16.9287 63.0489 16.9057 63.0489 16.8081V16.3946C63.0489 13.3454 63.0489 12.7941 63.0085 12.1682C62.9682 11.5021 62.8126 11.192 62.1673 11.0542C62.0117 11.014 61.6775 10.9967 61.5046 10.9967C61.424 10.9967 61.3433 10.9565 61.3433 10.8761C61.3433 10.7613 61.4412 10.7211 61.6602 10.7211C62.5418 10.7211 63.7749 10.7785 63.8786 10.7785C63.9823 10.7785 65.2097 10.7211 65.8032 10.7211C66.0163 10.7211 66.1143 10.7613 66.1143 10.8761C66.1143 10.9565 66.0394 10.9967 65.9587 10.9967C65.8204 10.9967 65.7052 11.014 65.4632 11.0542C64.9331 11.1518 64.7775 11.4848 64.7372 12.1682C64.6968 12.7941 64.6968 13.3396 64.6968 16.3946V19.8343H64.6738Z" fill="white"/>
<path d="M74.4866 11.2092C74.7229 10.5661 74.8035 10.4455 74.9245 10.4455C75.0456 10.4455 75.1205 10.5431 75.3509 11.1518C75.6448 11.8926 78.7275 19.9721 79.9261 22.9467C80.6348 24.6867 81.1995 25.0025 81.6143 25.1174C81.9082 25.215 82.2021 25.2379 82.4038 25.2379C82.519 25.2379 82.5997 25.2552 82.5997 25.3528C82.5997 25.4734 82.421 25.5078 82.2078 25.5078C81.914 25.5078 80.4792 25.5078 79.1309 25.4676C78.7621 25.4504 78.5374 25.4504 78.5374 25.3298C78.5374 25.2552 78.6008 25.2092 78.6757 25.192C78.7967 25.1518 78.9119 24.9738 78.7967 24.6637L76.9701 19.8516C76.9298 19.7712 76.8894 19.731 76.7915 19.731H72.5679C72.4699 19.731 72.4123 19.7884 72.3719 19.8918L71.1965 23.3544C71.0178 23.8425 70.9257 24.3134 70.9257 24.6694C70.9257 25.0599 71.3348 25.2379 71.669 25.2379H71.8649C72.0032 25.2379 72.0608 25.2781 72.0608 25.3528C72.0608 25.4734 71.9455 25.5078 71.7669 25.5078C71.2944 25.5078 70.4474 25.4504 70.2342 25.4504C70.021 25.4504 68.9377 25.5078 68.0158 25.5078C67.7565 25.5078 67.6413 25.4676 67.6413 25.3528C67.6413 25.2781 67.7219 25.2379 67.8199 25.2379C67.9582 25.2379 68.2348 25.215 68.3903 25.1978C69.295 25.0829 69.681 24.3364 70.0383 23.3602L74.4924 11.2149L74.4866 11.2092ZM76.5322 19.0304C76.6301 19.0304 76.6301 18.973 76.6071 18.8926L74.7402 13.6095C74.6422 13.3167 74.5443 13.3167 74.4463 13.6095L72.7177 18.8926C72.6773 18.9902 72.7177 19.0304 72.781 19.0304H76.5322Z" fill="white"/>
<path d="M85.9359 22.8491C85.9763 24.457 86.1722 24.9681 86.7023 25.1174C87.0711 25.215 87.5032 25.2379 87.6818 25.2379C87.7798 25.2379 87.8374 25.2781 87.8374 25.3528C87.8374 25.4734 87.7164 25.5078 87.4802 25.5078C86.3623 25.5078 85.5787 25.4504 85.4001 25.4504C85.2214 25.4504 84.3974 25.5078 83.5158 25.5078C83.3199 25.5078 83.2047 25.4849 83.2047 25.3528C83.2047 25.2781 83.2623 25.2379 83.3603 25.2379C83.5158 25.2379 83.8673 25.215 84.1612 25.1174C84.651 24.9795 84.7547 24.4168 84.7547 22.6366L84.772 11.4274C84.772 10.6637 84.8296 10.4512 84.9852 10.4512C85.1408 10.4512 85.475 10.8819 85.6709 11.0771C85.9647 11.4102 88.8861 14.557 91.9112 17.7843C93.853 19.863 95.9908 22.2461 96.6189 22.895L96.4057 12.9549C96.3884 11.6858 96.2501 11.2551 95.6393 11.0944C95.282 11.014 94.8326 10.9967 94.677 10.9967C94.5387 10.9967 94.5214 10.9336 94.5214 10.8589C94.5214 10.7383 94.677 10.7211 94.9133 10.7211C95.7949 10.7211 96.7399 10.7785 96.9588 10.7785C97.1778 10.7785 97.8231 10.7211 98.6241 10.7211C98.843 10.7211 98.9813 10.7383 98.9813 10.8589C98.9813 10.9393 98.9064 10.9967 98.7624 10.9967C98.6644 10.9967 98.5319 10.9967 98.2956 11.0542C97.6503 11.192 97.5696 11.6227 97.5696 12.7941L97.5293 24.256C97.5293 25.548 97.4889 25.6457 97.3506 25.6457C97.1951 25.6457 96.9588 25.4274 95.9216 24.3938C95.7027 24.1986 92.8793 21.3216 90.7991 19.0878C88.5173 16.6415 86.3047 14.178 85.6766 13.4717L85.9302 22.8434L85.9359 22.8491Z" fill="white"/>
<path d="M102.732 25.2552C102.456 25.1116 102.439 25.037 102.439 24.5087C102.439 23.5324 102.519 22.7515 102.537 22.4356C102.554 22.2174 102.6 22.1256 102.692 22.1256C102.807 22.1256 102.83 22.1772 102.83 22.338C102.83 22.5103 102.83 22.7859 102.888 23.0616C103.182 24.5087 104.478 25.0542 105.792 25.0542C107.682 25.0542 108.598 23.7047 108.598 22.4529C108.598 21.1034 108.028 20.3224 106.34 18.9328L105.458 18.2092C103.378 16.5095 102.905 15.2921 102.905 13.9656C102.905 11.8696 104.473 10.4455 106.968 10.4455C107.734 10.4455 108.304 10.5259 108.788 10.6407C109.163 10.7211 109.319 10.7326 109.474 10.7326C109.63 10.7326 109.67 10.7728 109.67 10.8704C109.67 10.968 109.595 11.6112 109.595 12.9434C109.595 13.2593 109.555 13.3913 109.451 13.3913C109.336 13.3913 109.313 13.2937 109.295 13.1387C109.278 12.9032 109.157 12.3749 109.042 12.1567C108.927 11.9442 108.397 11.1173 106.593 11.1173C105.233 11.1173 104.173 11.9615 104.173 13.3856C104.173 14.4996 104.686 15.2002 106.57 16.6703L107.117 17.1009C109.434 18.9213 109.981 20.1329 109.981 21.6949C109.981 22.4988 109.67 23.9804 108.31 24.9451C107.469 25.5308 106.409 25.7663 105.348 25.7663C104.426 25.7663 103.522 25.6284 102.715 25.2437L102.732 25.2552Z" fill="white"/>
<path d="M115.179 16.3946C115.179 13.3454 115.179 12.7941 115.138 12.1682C115.098 11.5021 114.942 11.192 114.297 11.0542C114.141 11.014 113.807 10.9968 113.629 10.9968C113.554 10.9968 113.473 10.9566 113.473 10.8762C113.473 10.7613 113.571 10.7211 113.784 10.7211C114.239 10.7211 114.769 10.7211 115.196 10.7383L116.003 10.7785C116.141 10.7785 120.048 10.7785 120.497 10.7613C120.872 10.7383 121.183 10.6982 121.338 10.658C121.436 10.6407 121.517 10.5603 121.615 10.5603C121.672 10.5603 121.696 10.635 121.696 10.7326C121.696 10.8704 121.598 11.1059 121.54 11.6571C121.523 11.8524 121.477 12.7137 121.442 12.9492C121.425 13.0468 121.384 13.1674 121.304 13.1674C121.183 13.1674 121.148 13.0698 121.148 12.9147C121.148 12.7769 121.125 12.4438 121.033 12.2084C120.895 11.8926 120.699 11.6629 119.638 11.5423C119.304 11.5021 117.166 11.4849 116.953 11.4849C116.873 11.4849 116.832 11.5423 116.832 11.6801V17.078C116.832 17.2101 116.855 17.2732 116.953 17.2732C117.207 17.2732 119.621 17.2732 120.076 17.233C120.549 17.1928 120.82 17.1526 120.998 16.9574C121.131 16.7966 121.211 16.699 121.292 16.699C121.35 16.699 121.39 16.7392 121.39 16.854C121.39 16.9689 121.292 17.3077 121.235 17.9508C121.194 18.3413 121.154 19.0649 121.154 19.2027C121.154 19.3577 121.154 19.5759 121.016 19.5759C120.918 19.5759 120.877 19.4955 120.877 19.3979C120.877 19.2027 120.877 19.0074 120.797 18.7548C120.722 18.4791 120.543 18.1518 119.782 18.0657C119.252 18.0083 117.311 17.9681 116.971 17.9681C116.873 17.9681 116.832 18.0255 116.832 18.1059V19.8286C116.832 20.4947 116.815 22.763 116.832 23.1707C116.89 24.5202 117.184 24.7786 119.114 24.7786C119.621 24.7786 120.485 24.7786 120.998 24.5604C121.505 24.3479 121.742 23.9517 121.88 23.1535C121.92 22.941 121.961 22.8606 122.059 22.8606C122.174 22.8606 122.174 23.0156 122.174 23.1535C122.174 23.3143 122.018 24.6408 121.92 25.0542C121.782 25.5653 121.621 25.5653 120.86 25.5653C119.385 25.5653 118.307 25.5251 117.541 25.5021C116.775 25.4619 116.302 25.4447 116.008 25.4447C115.968 25.4447 115.634 25.4447 115.225 25.4619C114.833 25.4619 114.383 25.5021 114.09 25.5021C113.871 25.5021 113.778 25.4619 113.778 25.3471C113.778 25.2896 113.813 25.2322 113.934 25.2322C114.113 25.2322 114.343 25.192 114.522 25.1518C114.914 25.0772 115.011 24.6408 115.092 24.078C115.19 23.2568 115.19 21.7121 115.19 19.8343V16.3946H115.179Z" fill="white"/>
<path d="M127.677 22.8491C127.717 24.457 127.919 24.9681 128.443 25.1174C128.817 25.215 129.25 25.2379 129.428 25.2379C129.526 25.2379 129.584 25.2781 129.584 25.3528C129.584 25.4734 129.463 25.5078 129.232 25.5078C128.109 25.5078 127.325 25.4504 127.146 25.4504C126.968 25.4504 126.15 25.5078 125.268 25.5078C125.072 25.5078 124.957 25.4849 124.957 25.3528C124.957 25.2781 125.014 25.2379 125.112 25.2379C125.268 25.2379 125.619 25.215 125.913 25.1174C126.403 24.9795 126.501 24.4168 126.501 22.6366L126.524 11.4274C126.524 10.6637 126.582 10.4512 126.743 10.4512C126.904 10.4512 127.233 10.8819 127.429 11.0771C127.723 11.4102 130.644 14.557 133.669 17.7843C135.611 19.863 137.749 22.2461 138.383 22.895L138.164 12.9549C138.146 11.6858 138.008 11.2551 137.397 11.0944C137.04 11.014 136.591 10.9967 136.435 10.9967C136.297 10.9967 136.279 10.9336 136.279 10.8589C136.279 10.7383 136.435 10.7211 136.671 10.7211C137.559 10.7211 138.498 10.7785 138.717 10.7785C138.936 10.7785 139.581 10.7211 140.388 10.7211C140.601 10.7211 140.739 10.7383 140.739 10.8589C140.739 10.9393 140.664 10.9967 140.526 10.9967C140.428 10.9967 140.29 10.9967 140.054 11.0542C139.408 11.192 139.328 11.6227 139.328 12.7941L139.287 24.256C139.287 25.548 139.247 25.6457 139.114 25.6457C138.959 25.6457 138.723 25.4274 137.68 24.3938C137.466 24.1986 134.637 21.3216 132.557 19.0878C130.281 16.6415 128.063 14.178 127.435 13.4717L127.688 22.8434L127.677 22.8491Z" fill="white"/>
<path d="M192.345 19.8343C192.345 21.7121 192.345 23.2568 192.443 24.078C192.506 24.6407 192.615 25.0772 193.209 25.1518C193.485 25.192 193.918 25.2322 194.09 25.2322C194.211 25.2322 194.252 25.2896 194.252 25.3471C194.252 25.4447 194.154 25.5021 193.941 25.5021C192.863 25.5021 191.624 25.4447 191.526 25.4447C191.428 25.4447 190.19 25.5021 189.602 25.5021C189.389 25.5021 189.291 25.4619 189.291 25.3471C189.291 25.2896 189.331 25.2322 189.446 25.2322C189.625 25.2322 189.861 25.192 190.034 25.1518C190.432 25.0772 190.524 24.6407 190.604 24.078C190.702 23.2568 190.702 21.7121 190.702 19.8343V17.7785C190.702 17.7039 190.639 17.6637 190.581 17.6637H182.261C182.203 17.6637 182.14 17.6809 182.14 17.7785V19.8343C182.14 21.7121 182.14 23.2568 182.238 24.078C182.295 24.6407 182.411 25.0772 183.004 25.1518C183.281 25.192 183.713 25.2322 183.886 25.2322C184.001 25.2322 184.047 25.2896 184.047 25.3471C184.047 25.4447 183.949 25.5021 183.73 25.5021C182.653 25.5021 181.414 25.4447 181.322 25.4447C181.229 25.4447 179.985 25.5021 179.397 25.5021C179.178 25.5021 179.08 25.4619 179.08 25.3471C179.08 25.2896 179.121 25.2322 179.236 25.2322C179.414 25.2322 179.651 25.192 179.829 25.1518C180.221 25.0772 180.319 24.6407 180.4 24.078C180.498 23.2568 180.498 21.7121 180.498 19.8343V16.3946C180.498 13.3454 180.498 12.7941 180.457 12.1682C180.417 11.5021 180.261 11.192 179.616 11.0542C179.455 11.014 179.126 10.9967 178.948 10.9967C178.867 10.9967 178.792 10.9565 178.792 10.8761C178.792 10.7613 178.89 10.7211 179.103 10.7211C179.985 10.7211 181.224 10.7785 181.322 10.7785C181.42 10.7785 182.653 10.7211 183.24 10.7211C183.454 10.7211 183.557 10.7613 183.557 10.8761C183.557 10.9565 183.477 10.9967 183.396 10.9967C183.258 10.9967 183.143 11.014 182.906 11.0542C182.376 11.1518 182.221 11.4848 182.18 12.1682C182.14 12.7941 182.14 13.3396 182.14 16.3946V16.8081C182.14 16.9057 182.203 16.9287 182.261 16.9287H190.581C190.639 16.9287 190.702 16.9057 190.702 16.8081V16.3946C190.702 13.3454 190.702 12.7941 190.662 12.1682C190.622 11.5021 190.466 11.192 189.821 11.0542C189.665 11.014 189.331 10.9967 189.152 10.9967C189.077 10.9967 188.997 10.9565 188.997 10.8761C188.997 10.7613 189.095 10.7211 189.314 10.7211C190.195 10.7211 191.428 10.7785 191.532 10.7785C191.636 10.7785 192.869 10.7211 193.451 10.7211C193.67 10.7211 193.768 10.7613 193.768 10.8761C193.768 10.9565 193.687 10.9967 193.612 10.9967C193.474 10.9967 193.353 11.014 193.117 11.0542C192.587 11.1518 192.425 11.4848 192.391 12.1682C192.35 12.7941 192.35 13.3396 192.35 16.3946V19.8343H192.345Z" fill="white"/>
<path d="M204.336 10.4455C208.749 10.4455 212.045 13.2248 212.045 17.7785C212.045 22.3323 208.945 25.7835 204.215 25.7835C198.838 25.7835 196.603 21.6202 196.603 18.0944C196.603 14.9246 198.919 10.4455 204.336 10.4455ZM204.745 25.037C206.508 25.037 210.161 24.0206 210.161 18.3298C210.161 13.6325 207.297 11.1116 204.197 11.1116C200.919 11.1116 198.464 13.265 198.464 17.5488C198.464 22.1083 201.212 25.037 204.745 25.037Z" fill="white"/>
<path d="M220.446 19.8343C220.446 21.7121 220.446 23.2568 220.544 24.078C220.602 24.6407 220.723 25.0772 221.311 25.1518C221.587 25.192 222.019 25.2322 222.198 25.2322C222.319 25.2322 222.354 25.2896 222.354 25.347C222.354 25.4447 222.256 25.5021 222.037 25.5021C220.959 25.5021 219.72 25.4447 219.622 25.4447C219.524 25.4447 218.291 25.5021 217.698 25.5021C217.485 25.5021 217.387 25.4619 217.387 25.347C217.387 25.2896 217.421 25.2322 217.542 25.2322C217.721 25.2322 217.957 25.192 218.136 25.1518C218.528 25.0772 218.626 24.6407 218.706 24.078C218.804 23.2568 218.804 21.7121 218.804 19.8343V11.5595L215.9 11.5997C214.684 11.6169 214.212 11.7547 213.895 12.2256C213.682 12.5587 213.618 12.6965 213.561 12.8343C213.503 12.9894 213.445 13.0296 213.365 13.0296C213.307 13.0296 213.267 12.9721 213.267 12.8515C213.267 12.6563 213.659 10.9738 213.699 10.8187C213.739 10.7039 213.82 10.4512 213.895 10.4512C214.039 10.4512 214.229 10.6464 214.765 10.6866C215.335 10.7383 216.079 10.7785 216.315 10.7785H223.679C224.301 10.7785 224.756 10.7383 225.068 10.6866C225.367 10.6464 225.54 10.589 225.621 10.589C225.719 10.589 225.719 10.7039 225.719 10.8245C225.719 11.4159 225.661 12.7597 225.661 12.9779C225.661 13.1559 225.603 13.2305 225.523 13.2305C225.425 13.2305 225.384 13.1731 225.367 12.8975L225.344 12.685C225.286 12.0993 224.814 11.6456 222.93 11.6112L220.458 11.571V19.8458L220.446 19.8343Z" fill="white"/>
<path d="M229.833 16.3946C229.833 13.3454 229.833 12.7941 229.792 12.1682C229.752 11.5021 229.591 11.192 228.951 11.0542C228.796 11.014 228.461 10.9968 228.283 10.9968C228.208 10.9968 228.127 10.9566 228.127 10.8762C228.127 10.7613 228.225 10.7211 228.444 10.7211C228.894 10.7211 229.424 10.7211 229.856 10.7383L230.657 10.7785C230.789 10.7785 234.702 10.7785 235.151 10.7613C235.52 10.7383 235.837 10.6982 235.992 10.658C236.09 10.6407 236.171 10.5603 236.269 10.5603C236.332 10.5603 236.35 10.635 236.35 10.7326C236.35 10.8704 236.252 11.1059 236.194 11.6571C236.177 11.8524 236.131 12.7137 236.096 12.9492C236.079 13.0468 236.039 13.1674 235.958 13.1674C235.837 13.1674 235.802 13.0698 235.802 12.9147C235.802 12.7769 235.779 12.4438 235.687 12.2084C235.549 11.8926 235.353 11.6629 234.287 11.5423C233.953 11.5021 231.815 11.4849 231.596 11.4849C231.521 11.4849 231.481 11.5423 231.481 11.6801V17.078C231.481 17.2101 231.498 17.2732 231.596 17.2732C231.855 17.2732 234.264 17.2732 234.719 17.233C235.192 17.1928 235.462 17.1526 235.641 16.9574C235.774 16.7966 235.854 16.699 235.935 16.699C235.992 16.699 236.033 16.7392 236.033 16.854C236.033 16.9689 235.935 17.3077 235.871 17.9508C235.831 18.3413 235.797 19.0649 235.797 19.2027C235.797 19.3577 235.797 19.5759 235.658 19.5759C235.56 19.5759 235.52 19.4955 235.52 19.3979C235.52 19.2027 235.52 19.0074 235.445 18.7548C235.364 18.4791 235.186 18.1518 234.419 18.0657C233.889 18.0083 231.947 17.9681 231.613 17.9681C231.515 17.9681 231.475 18.0255 231.475 18.1059V19.8286C231.475 20.4947 231.458 22.763 231.475 23.1707C231.533 24.5202 231.826 24.7786 233.751 24.7786C234.264 24.7786 235.122 24.7786 235.635 24.5604C236.148 24.3479 236.379 23.9517 236.517 23.1535C236.557 22.941 236.597 22.8606 236.69 22.8606C236.811 22.8606 236.811 23.0156 236.811 23.1535C236.811 23.3143 236.655 24.6408 236.557 25.0542C236.413 25.5653 236.258 25.5653 235.497 25.5653C234.028 25.5653 232.944 25.5251 232.178 25.5021C231.412 25.4619 230.939 25.4447 230.645 25.4447C230.605 25.4447 230.271 25.4447 229.856 25.4619C229.464 25.4619 229.015 25.5021 228.721 25.5021C228.502 25.5021 228.404 25.4619 228.404 25.3471C228.404 25.2896 228.444 25.2322 228.565 25.2322C228.738 25.2322 228.974 25.192 229.153 25.1518C229.545 25.0772 229.643 24.6408 229.723 24.078C229.821 23.2568 229.821 21.7121 229.821 19.8343V16.3946H229.833Z" fill="white"/>
<path d="M243.454 19.8745C243.454 22.7515 243.535 23.9976 243.887 24.3536C244.203 24.6694 244.711 24.8015 246.243 24.8015C247.286 24.8015 248.151 24.7843 248.623 24.2158C248.877 23.9057 249.072 23.4119 249.13 23.0443C249.147 22.8893 249.188 22.7917 249.303 22.7917C249.401 22.7917 249.424 22.8663 249.424 23.0845C249.424 23.3027 249.286 24.4742 249.13 25.037C248.992 25.4849 248.934 25.571 247.897 25.571C246.479 25.571 245.46 25.5308 244.636 25.5078C243.812 25.4676 243.201 25.4504 242.636 25.4504C242.555 25.4504 242.221 25.4676 241.829 25.4676C241.438 25.4849 241.005 25.5078 240.712 25.5078C240.498 25.5078 240.395 25.4676 240.395 25.3528C240.395 25.2954 240.435 25.2379 240.55 25.2379C240.729 25.2379 240.965 25.1977 241.138 25.1575C241.53 25.0829 241.634 24.6465 241.708 24.0837C241.806 23.2625 241.806 21.7178 241.806 19.8401V16.4004C241.806 13.3511 241.806 12.7999 241.766 12.1739C241.726 11.5078 241.57 11.1977 240.919 11.0599C240.763 11.0197 240.429 11.0025 240.256 11.0025C240.182 11.0025 240.101 10.9623 240.101 10.8819C240.101 10.767 240.199 10.7268 240.412 10.7268C241.294 10.7268 242.532 10.7843 242.63 10.7843C242.728 10.7843 244.163 10.7268 244.745 10.7268C244.964 10.7268 245.056 10.767 245.056 10.8819C245.056 10.9623 244.981 11.0025 244.901 11.0025C244.762 11.0025 244.492 11.0197 244.255 11.0599C243.685 11.1575 243.529 11.4906 243.489 12.1739C243.449 12.7999 243.449 13.3454 243.449 16.4004V19.886L243.454 19.8745Z" fill="white"/>
<path d="M269.13 20.5234C269.13 18.9385 269.032 18.7203 268.243 18.5078C268.087 18.4676 267.753 18.4504 267.58 18.4504C267.505 18.4504 267.425 18.4102 267.425 18.3356C267.425 18.215 267.523 18.1805 267.736 18.1805C268.623 18.1805 269.856 18.2379 269.954 18.2379C270.052 18.2379 271.291 18.1805 271.879 18.1805C272.092 18.1805 272.19 18.2207 272.19 18.3356C272.19 18.4102 272.115 18.4504 272.034 18.4504C271.896 18.4504 271.781 18.4676 271.539 18.5078C271.009 18.6055 270.853 18.9385 270.819 19.6219C270.778 20.2478 270.778 20.8335 270.778 21.6547V23.8425C270.778 24.7211 270.755 24.7613 270.519 24.8992C269.263 25.5653 267.5 25.7777 266.359 25.7777C264.866 25.7777 262.077 25.5825 259.899 23.6818C258.701 22.6481 257.56 20.5521 257.56 18.1059C257.56 14.9762 259.093 12.7654 260.839 11.6686C262.602 10.5718 264.544 10.4397 266.053 10.4397C267.292 10.4397 268.687 10.6924 269.055 10.767C269.464 10.8647 270.156 10.9451 270.646 10.9623C270.842 10.9853 270.882 11.0599 270.882 11.1403C270.882 11.4102 270.744 11.9615 270.744 13.9196C270.744 14.2297 270.703 14.3273 270.571 14.3273C270.473 14.3273 270.456 14.2068 270.433 14.0345C270.409 13.7646 270.317 13.2133 270.018 12.7424C269.528 12.0017 267.938 11.1575 265.408 11.1575C264.169 11.1575 262.7 11.2781 261.207 12.4496C260.072 13.3511 259.266 15.1255 259.266 17.4168C259.266 20.1731 260.666 22.1658 261.351 22.8319C262.901 24.3421 264.688 24.9279 266.497 24.9279C267.2 24.9279 268.22 24.8073 268.733 24.5144C268.992 24.3823 269.125 24.1641 269.125 23.8311V20.5062L269.13 20.5234Z" fill="white"/>
<path d="M276.725 16.3946C276.725 13.3454 276.725 12.7941 276.684 12.1682C276.644 11.5021 276.488 11.192 275.843 11.0542C275.688 11.014 275.353 10.9967 275.181 10.9967C275.1 10.9967 275.019 10.9565 275.019 10.8761C275.019 10.7613 275.117 10.7211 275.336 10.7211C276.218 10.7211 277.457 10.7785 277.549 10.7785C277.768 10.7785 279.26 10.7211 279.865 10.7211C281.104 10.7211 282.418 10.8417 283.461 11.5825C283.95 11.9385 284.815 12.8917 284.815 14.2412C284.815 15.6883 284.21 17.1354 282.441 18.7605C284.048 20.8105 285.385 22.5505 286.52 23.7621C287.581 24.8762 288.428 25.0944 288.912 25.1748C289.292 25.2379 289.563 25.2379 289.678 25.2379C289.776 25.2379 289.857 25.2954 289.857 25.3528C289.857 25.4734 289.736 25.5078 289.384 25.5078H287.99C286.889 25.5078 286.399 25.4102 285.886 25.1403C285.045 24.6867 284.36 23.7277 283.236 22.2634C282.412 21.1895 281.49 19.8803 281.098 19.3692C281.018 19.2945 280.96 19.2486 280.845 19.2486L278.43 19.2084C278.332 19.2084 278.298 19.2658 278.298 19.3634V19.8343C278.298 21.7121 278.298 23.2568 278.396 24.078C278.459 24.6407 278.569 25.0772 279.162 25.1518C279.433 25.192 279.865 25.2322 280.044 25.2322C280.159 25.2322 280.199 25.2896 280.199 25.3471C280.199 25.4447 280.101 25.5021 279.888 25.5021C278.811 25.5021 277.572 25.4447 277.474 25.4447C277.457 25.4447 276.218 25.5021 275.63 25.5021C275.417 25.5021 275.319 25.4619 275.319 25.3471C275.319 25.2896 275.353 25.2322 275.474 25.2322C275.647 25.2322 275.883 25.192 276.062 25.1518C276.454 25.0772 276.552 24.6407 276.633 24.078C276.731 23.2568 276.731 21.7121 276.731 19.8343V16.3946H276.725ZM278.292 18.0944C278.292 18.192 278.332 18.2724 278.425 18.3298C278.718 18.5021 279.623 18.6399 280.487 18.6399C280.96 18.6399 281.507 18.5825 281.957 18.2666C282.642 17.8015 283.155 16.7449 283.155 15.2519C283.155 12.8056 281.865 11.3413 279.761 11.3413C279.174 11.3413 278.644 11.3987 278.448 11.4619C278.35 11.5021 278.292 11.5767 278.292 11.6973V18.0944Z" fill="white"/>
<path d="M297.313 10.4455C301.732 10.4455 305.028 13.2248 305.028 17.7785C305.028 22.3323 301.928 25.7835 297.197 25.7835C291.821 25.7835 289.586 21.6202 289.586 18.0944C289.586 14.9246 291.902 10.4455 297.318 10.4455H297.313ZM297.722 25.037C299.491 25.037 303.144 24.0206 303.144 18.3298C303.144 13.6325 300.274 11.1116 297.174 11.1116C293.896 11.1116 291.441 13.265 291.441 17.5488C291.441 22.1083 294.19 25.037 297.722 25.037Z" fill="white"/>
<path d="M308.641 16.3946C308.641 13.3454 308.641 12.7941 308.601 12.1682C308.56 11.5021 308.405 11.192 307.754 11.0542C307.598 11.014 307.264 10.9967 307.091 10.9967C307.01 10.9967 306.935 10.9565 306.935 10.8762C306.935 10.7613 307.033 10.7211 307.247 10.7211C308.128 10.7211 309.327 10.7785 309.505 10.7785C309.684 10.7785 310.859 10.7211 311.447 10.7211C311.666 10.7211 311.758 10.7613 311.758 10.8762C311.758 10.9565 311.683 10.9967 311.603 10.9967C311.464 10.9967 311.349 11.014 311.113 11.0542C310.583 11.1346 310.427 11.4848 310.387 12.1682C310.347 12.7941 310.347 13.3396 310.347 16.3946V19.1338C310.347 21.9533 310.975 23.1649 311.822 23.9631C312.784 24.8647 313.666 25.037 314.783 25.037C315.982 25.037 317.157 24.4742 317.866 23.6301C318.777 22.516 319.007 20.8507 319.007 18.8351V16.3889C319.007 13.3397 319.007 12.7884 318.972 12.1625C318.932 11.4963 318.777 11.1862 318.131 11.0484C317.976 11.0082 317.641 10.991 317.463 10.991C317.388 10.991 317.307 10.9508 317.307 10.8704C317.307 10.7556 317.405 10.7154 317.624 10.7154C318.506 10.7154 319.583 10.7728 319.704 10.7728C319.843 10.7728 320.764 10.7154 321.352 10.7154C321.571 10.7154 321.669 10.7556 321.669 10.8704C321.669 10.9508 321.588 10.991 321.514 10.991C321.375 10.991 321.26 11.0082 321.024 11.0484C320.494 11.169 320.338 11.4791 320.298 12.1625C320.257 12.7884 320.257 13.3339 320.257 16.3889V18.4849C320.257 20.5923 320.021 22.941 318.454 24.3306C317.036 25.5825 315.567 25.7777 314.403 25.7777C313.74 25.7777 311.753 25.6973 310.358 24.3938C309.396 23.475 308.653 22.1026 308.653 19.2486V16.3946H308.641Z" fill="white"/>
<path d="M326.071 16.3946C326.071 13.3454 326.071 12.7941 326.031 12.1682C325.991 11.5021 325.835 11.192 325.19 11.0542C325.034 11.014 324.7 10.9967 324.527 10.9967C324.446 10.9967 324.366 10.9565 324.366 10.8761C324.366 10.7613 324.464 10.7211 324.683 10.7211C325.564 10.7211 326.74 10.7785 326.901 10.7785C327.333 10.7785 328.474 10.7211 329.373 10.7211C331.828 10.7211 332.709 11.5423 333.02 11.8351C333.453 12.2428 334 13.1214 334 14.1608C334 16.9344 331.96 18.8179 329.171 18.8179C329.073 18.8179 328.86 18.8179 328.762 18.8007C328.664 18.8007 328.543 18.7605 328.543 18.6629C328.543 18.5078 328.664 18.4849 329.073 18.4849C330.975 18.4849 332.473 17.0952 332.473 15.2978C332.473 14.6547 332.41 13.3396 331.372 12.283C330.33 11.2264 329.131 11.3068 328.682 11.3068C328.347 11.3068 328.019 11.347 327.84 11.4217C327.725 11.4619 327.679 11.5997 327.679 11.7949V19.8343C327.679 21.7121 327.679 23.2568 327.777 24.078C327.84 24.6407 327.956 25.0772 328.543 25.1518C328.82 25.192 329.252 25.2322 329.425 25.2322C329.546 25.2322 329.58 25.2896 329.58 25.3471C329.58 25.4447 329.483 25.5021 329.269 25.5021C328.192 25.5021 326.953 25.4447 326.855 25.4447C326.797 25.4447 325.559 25.5021 324.971 25.5021C324.752 25.5021 324.66 25.4619 324.66 25.3471C324.66 25.2896 324.7 25.2322 324.815 25.2322C324.994 25.2322 325.23 25.192 325.403 25.1518C325.795 25.0772 325.898 24.6407 325.973 24.078C326.071 23.2568 326.071 21.7121 326.071 19.8343V16.3946Z" fill="white"/>
<path d="M160.561 8.84908L162.82 13.041H167.965L160.659 0L153.329 13.041H158.325L160.561 8.84908Z" fill="#B11116"/>
<path d="M170.224 17.078H164.992L167.337 21.425H153.871L156.182 17.078H151.065L144.375 28.982H149.849L151.722 25.4619H169.509L171.411 28.982H176.891L170.224 17.078Z" fill="#B11116"/>
<path d="M95.3281 45.9796C94.1296 44.9057 93.83 43.4988 93.83 42.3274C93.83 41.5005 94.1123 40.0534 95.2187 38.9566C95.962 38.2158 97.0913 37.6358 98.9986 37.6358C99.4941 37.6358 100.186 37.6703 100.796 37.7851C101.269 37.8713 101.661 37.9459 102.058 37.9689C102.197 37.9804 102.22 38.0321 102.22 38.1067C102.22 38.2043 102.185 38.3536 102.156 38.7958C102.133 39.2035 102.133 39.8811 102.122 40.0649C102.11 40.2486 102.087 40.3233 102.012 40.3233C101.926 40.3233 101.914 40.2371 101.914 40.0649C101.914 39.5825 101.718 39.0772 101.396 38.8073C100.963 38.434 100.007 38.101 98.9179 38.101C97.27 38.101 96.5036 38.5833 96.0714 39.0025C95.1668 39.8639 94.9594 40.9664 94.9594 42.224C94.9594 44.5842 96.7802 46.7433 99.4308 46.7433C100.358 46.7433 101.09 46.6342 101.586 46.1231C101.845 45.8532 102.006 45.3077 102.047 45.0838C102.07 44.9459 102.099 44.9 102.168 44.9C102.231 44.9 102.254 44.9861 102.254 45.0838C102.254 45.1699 102.104 46.2437 101.983 46.6629C101.908 46.8984 101.885 46.9213 101.661 47.019C101.165 47.2142 100.226 47.3003 99.4308 47.3003C97.5754 47.3003 96.325 46.8467 95.3454 45.9681L95.3281 45.9796Z" fill="white"/>
<path d="M113.513 37.6358C116.302 37.6358 118.382 39.3873 118.382 42.2642C118.382 45.1412 116.423 47.3118 113.438 47.3118C110.045 47.3118 108.633 44.6818 108.633 42.4595C108.633 40.4611 110.096 37.6358 113.513 37.6358ZM113.773 46.8467C114.885 46.8467 117.19 46.2035 117.19 42.6145C117.19 39.6514 115.38 38.0608 113.427 38.0608C111.358 38.0608 109.808 39.416 109.808 42.1207C109.808 44.9976 111.543 46.8467 113.773 46.8467Z" fill="white"/>
<path d="M125.959 41.3856C125.959 39.4619 125.959 39.1116 125.936 38.7212C125.913 38.302 125.815 38.101 125.406 38.0148C125.308 37.9919 125.095 37.9804 124.986 37.9804C124.934 37.9804 124.888 37.9574 124.888 37.9057C124.888 37.8311 124.951 37.8081 125.084 37.8081C125.643 37.8081 126.386 37.8426 126.484 37.8426C126.755 37.8426 127.475 37.8081 128.045 37.8081C129.595 37.8081 130.148 38.3249 130.35 38.5144C130.621 38.7728 130.972 39.3298 130.972 39.9845C130.972 41.7359 129.682 42.9246 127.924 42.9246C127.861 42.9246 127.728 42.9246 127.665 42.9131C127.602 42.9131 127.527 42.8902 127.527 42.827C127.527 42.7294 127.602 42.7179 127.861 42.7179C129.059 42.7179 130.004 41.8393 130.004 40.708C130.004 40.3003 129.97 39.4734 129.313 38.8073C128.656 38.1412 127.901 38.1871 127.619 38.1871C127.406 38.1871 127.198 38.2101 127.089 38.2618C127.014 38.2847 126.991 38.3709 126.991 38.4972V43.5678C126.991 44.7507 126.991 45.7269 127.054 46.2437C127.089 46.5998 127.164 46.8754 127.538 46.9213C127.711 46.9443 127.982 46.973 128.097 46.973C128.172 46.973 128.195 47.0075 128.195 47.0477C128.195 47.1108 128.132 47.1453 127.999 47.1453C127.319 47.1453 126.536 47.1108 126.478 47.1108C126.443 47.1108 125.66 47.1453 125.291 47.1453C125.153 47.1453 125.095 47.1223 125.095 47.0477C125.095 47.0132 125.118 46.973 125.193 46.973C125.303 46.973 125.452 46.95 125.562 46.9213C125.81 46.8697 125.873 46.5998 125.919 46.2437C125.982 45.7269 125.982 44.7507 125.982 43.5678V41.3971L125.959 41.3856Z" fill="white"/>
<path d="M138.682 41.3856C138.682 39.4619 138.682 39.1116 138.659 38.7211C138.636 38.302 138.538 38.101 138.129 38.0148C138.031 37.9919 137.818 37.9804 137.708 37.9804C137.657 37.9804 137.61 37.9574 137.61 37.9057C137.61 37.8311 137.674 37.8081 137.806 37.8081C138.089 37.8081 138.423 37.8081 138.699 37.8196L139.207 37.8426C139.293 37.8426 141.759 37.8426 142.041 37.8311C142.278 37.8196 142.474 37.7966 142.572 37.7679C142.635 37.7564 142.681 37.7047 142.744 37.7047C142.779 37.7047 142.796 37.7564 142.796 37.8138C142.796 37.9 142.733 38.0493 142.698 38.3938C142.687 38.5202 142.664 39.06 142.635 39.2093C142.623 39.2724 142.6 39.3471 142.549 39.3471C142.474 39.3471 142.451 39.2839 142.451 39.1863C142.451 39.1001 142.439 38.8877 142.376 38.7441C142.289 38.5489 142.162 38.3996 141.494 38.3249C141.281 38.302 139.933 38.2905 139.8 38.2905C139.748 38.2905 139.725 38.3249 139.725 38.4111V41.8163C139.725 41.9025 139.737 41.9369 139.8 41.9369C139.961 41.9369 141.483 41.9369 141.771 41.9139C142.07 41.891 142.243 41.8623 142.353 41.7417C142.439 41.644 142.491 41.5809 142.537 41.5809C142.572 41.5809 142.6 41.6038 142.6 41.6785C142.6 41.7531 142.537 41.9656 142.502 42.3676C142.479 42.6145 142.451 43.0682 142.451 43.16C142.451 43.2577 142.451 43.3955 142.364 43.3955C142.301 43.3955 142.278 43.3438 142.278 43.2864C142.278 43.1658 142.278 43.0395 142.226 42.8787C142.174 42.7064 142.065 42.4939 141.58 42.448C141.246 42.4135 140.019 42.3848 139.812 42.3848C139.748 42.3848 139.725 42.4193 139.725 42.471V43.5563C139.725 43.9755 139.714 45.4053 139.725 45.6695C139.76 46.5194 139.95 46.6801 141.16 46.6801C141.483 46.6801 142.024 46.6802 142.347 46.5423C142.67 46.4045 142.819 46.1576 142.906 45.6523C142.929 45.5144 142.958 45.4685 143.015 45.4685C143.09 45.4685 143.09 45.5661 143.09 45.6523C143.09 45.7499 142.992 46.5883 142.929 46.8467C142.842 47.1683 142.744 47.1683 142.26 47.1683C141.333 47.1683 140.653 47.1453 140.169 47.1338C139.685 47.1108 139.391 47.0993 139.201 47.0993C139.178 47.0993 138.965 47.0993 138.705 47.1108C138.457 47.1108 138.175 47.1338 137.985 47.1338C137.847 47.1338 137.789 47.1108 137.789 47.0362C137.789 47.0017 137.812 46.9615 137.887 46.9615C137.996 46.9615 138.146 46.9386 138.256 46.9098C138.504 46.8582 138.567 46.5883 138.613 46.2322C138.676 45.7154 138.676 44.7392 138.676 43.5563V41.3856H138.682Z" fill="white"/>
<path d="M151.526 45.4628C151.549 46.4734 151.676 46.795 152.01 46.8926C152.246 46.9558 152.517 46.9673 152.626 46.9673C152.69 46.9673 152.724 46.9902 152.724 47.0419C152.724 47.1166 152.649 47.1395 152.5 47.1395C151.791 47.1395 151.301 47.1051 151.186 47.1051C151.071 47.1051 150.552 47.1395 149.999 47.1395C149.878 47.1395 149.803 47.1281 149.803 47.0419C149.803 46.9902 149.838 46.9673 149.901 46.9673C149.999 46.9673 150.224 46.9558 150.408 46.8926C150.719 46.8065 150.783 46.4505 150.783 45.3249L150.794 38.2503C150.794 37.7679 150.829 37.6358 150.932 37.6358C151.036 37.6358 151.244 37.9057 151.365 38.0321C151.549 38.2445 153.399 40.2314 155.3 42.2642C156.527 43.5735 157.876 45.078 158.273 45.4857L158.135 39.215C158.123 38.4111 158.037 38.1412 157.651 38.0435C157.426 37.9919 157.144 37.9804 157.046 37.9804C156.96 37.9804 156.948 37.9459 156.948 37.8942C156.948 37.8196 157.046 37.8081 157.196 37.8081C157.755 37.8081 158.348 37.8426 158.486 37.8426C158.625 37.8426 159.034 37.8081 159.541 37.8081C159.679 37.8081 159.766 37.8196 159.766 37.8942C159.766 37.9459 159.714 37.9804 159.627 37.9804C159.564 37.9804 159.478 37.9804 159.328 38.0148C158.919 38.101 158.873 38.3709 158.873 39.1116L158.85 46.3471C158.85 47.1625 158.826 47.2257 158.74 47.2257C158.642 47.2257 158.492 47.0879 157.835 46.4332C157.697 46.3126 155.917 44.498 154.603 43.0911C153.168 41.5464 151.768 39.9902 151.37 39.5481L151.532 45.4628H151.526Z" fill="white"/>
<path d="M175.352 43.5563C175.352 44.7392 175.352 45.7154 175.416 46.2322C175.45 46.5883 175.525 46.8639 175.9 46.9099C176.072 46.9328 176.343 46.9615 176.458 46.9615C176.533 46.9615 176.556 46.996 176.556 47.0362C176.556 47.0994 176.493 47.1338 176.361 47.1338C175.681 47.1338 174.897 47.0993 174.839 47.0993C174.782 47.0993 173.998 47.1338 173.624 47.1338C173.485 47.1338 173.428 47.1108 173.428 47.0362C173.428 47.0017 173.451 46.9615 173.526 46.9615C173.635 46.9615 173.785 46.9386 173.894 46.9099C174.142 46.8582 174.205 46.5883 174.252 46.2322C174.315 45.7154 174.315 44.7392 174.315 43.5563V42.2585C174.315 42.2068 174.28 42.1838 174.24 42.1838H168.991C168.956 42.1838 168.916 42.1953 168.916 42.2585V43.5563C168.916 44.7392 168.916 45.7154 168.979 46.2322C169.014 46.5883 169.089 46.8639 169.463 46.9099C169.636 46.9328 169.913 46.9615 170.022 46.9615C170.097 46.9615 170.12 46.996 170.12 47.0362C170.12 47.0994 170.057 47.1338 169.924 47.1338C169.244 47.1338 168.461 47.0993 168.403 47.0993C168.345 47.0993 167.562 47.1338 167.187 47.1338C167.049 47.1338 166.991 47.1108 166.991 47.0362C166.991 47.0017 167.014 46.9615 167.089 46.9615C167.199 46.9615 167.349 46.9386 167.464 46.9099C167.712 46.8582 167.775 46.5883 167.821 46.2322C167.884 45.7154 167.884 44.7392 167.884 43.5563V41.3856C167.884 39.4619 167.884 39.1116 167.861 38.7212C167.838 38.302 167.74 38.101 167.326 38.0148C167.228 37.9919 167.014 37.9804 166.905 37.9804C166.853 37.9804 166.807 37.9574 166.807 37.9057C166.807 37.8311 166.87 37.8081 167.003 37.8081C167.562 37.8081 168.34 37.8426 168.403 37.8426C168.466 37.8426 169.244 37.8081 169.619 37.8081C169.757 37.8081 169.821 37.8311 169.821 37.9057C169.821 37.9574 169.769 37.9804 169.723 37.9804C169.636 37.9804 169.561 37.9919 169.411 38.0148C169.077 38.078 168.979 38.2847 168.956 38.7212C168.933 39.1174 168.933 39.4619 168.933 41.3856V41.644C168.933 41.7072 168.968 41.7187 169.008 41.7187H174.257C174.292 41.7187 174.332 41.7072 174.332 41.644V41.3856C174.332 39.4619 174.332 39.1116 174.309 38.7212C174.286 38.302 174.188 38.101 173.779 38.0148C173.681 37.9919 173.468 37.9804 173.358 37.9804C173.307 37.9804 173.261 37.9574 173.261 37.9057C173.261 37.8311 173.324 37.8081 173.456 37.8081C174.015 37.8081 174.793 37.8426 174.857 37.8426C174.92 37.8426 175.698 37.8081 176.072 37.8081C176.211 37.8081 176.268 37.8311 176.268 37.9057C176.268 37.9574 176.216 37.9804 176.17 37.9804C176.084 37.9804 176.009 37.9919 175.859 38.0148C175.525 38.078 175.427 38.2847 175.404 38.7212C175.381 39.1174 175.381 39.4619 175.381 41.3856V43.5563H175.352Z" fill="white"/>
<path d="M186.502 38.1125C186.652 37.7048 186.703 37.6301 186.773 37.6301C186.842 37.6301 186.894 37.6933 187.043 38.0723C187.228 38.5431 189.175 43.6367 189.93 45.5144C190.374 46.6112 190.737 46.8122 190.996 46.8869C191.181 46.9501 191.371 46.9615 191.492 46.9615C191.567 46.9615 191.613 46.973 191.613 47.0362C191.613 47.1108 191.503 47.1338 191.365 47.1338C191.181 47.1338 190.276 47.1338 189.417 47.1108C189.181 47.0994 189.049 47.0994 189.049 47.0247C189.049 46.973 189.083 46.95 189.135 46.9386C189.21 46.9156 189.285 46.8007 189.21 46.6055L188.058 43.5678C188.035 43.5161 188.006 43.4931 187.948 43.4931H185.286C185.223 43.4931 185.188 43.5276 185.165 43.5907L184.422 45.7729C184.312 46.0829 184.249 46.3758 184.249 46.5998C184.249 46.8467 184.508 46.9558 184.721 46.9558H184.842C184.929 46.9558 184.963 46.9788 184.963 47.0304C184.963 47.1051 184.888 47.1281 184.779 47.1281C184.479 47.1281 183.949 47.0936 183.811 47.0936C183.673 47.0936 182.993 47.1281 182.411 47.1281C182.249 47.1281 182.174 47.1051 182.174 47.0304C182.174 46.9788 182.226 46.9558 182.284 46.9558C182.37 46.9558 182.543 46.9443 182.641 46.9328C183.212 46.8582 183.459 46.3873 183.678 45.7729L186.49 38.1067L186.502 38.1125ZM187.793 43.0509C187.856 43.0509 187.856 43.0165 187.844 42.9648L186.669 39.6342C186.606 39.4504 186.542 39.4504 186.485 39.6342L185.395 42.9648C185.372 43.028 185.395 43.0509 185.43 43.0509H187.798H187.793Z" fill="white"/>
<path d="M204.226 43.9927C204.226 42.9935 204.163 42.8557 203.667 42.7236C203.569 42.7007 203.356 42.6892 203.246 42.6892C203.195 42.6892 203.149 42.6662 203.149 42.6145C203.149 42.5399 203.212 42.5169 203.344 42.5169C203.903 42.5169 204.681 42.5514 204.745 42.5514C204.808 42.5514 205.586 42.5169 205.96 42.5169C206.099 42.5169 206.156 42.5399 206.156 42.6145C206.156 42.6662 206.104 42.6892 206.058 42.6892C205.972 42.6892 205.897 42.7007 205.747 42.7236C205.413 42.7868 205.315 42.9935 205.292 43.4299C205.269 43.8262 205.269 44.1937 205.269 44.7162V46.1002C205.269 46.6572 205.257 46.6802 205.108 46.7663C204.312 47.1855 203.2 47.3233 202.48 47.3233C201.541 47.3233 199.778 47.2027 198.406 46.0026C197.651 45.3479 196.931 44.0272 196.931 42.4824C196.931 40.5071 197.899 39.1116 199 38.4226C200.112 37.7335 201.339 37.6473 202.296 37.6473C203.079 37.6473 203.955 37.8081 204.191 37.8598C204.451 37.923 204.883 37.9689 205.194 37.9804C205.315 37.9919 205.344 38.0436 205.344 38.0895C205.344 38.2618 205.257 38.6063 205.257 39.8409C205.257 40.0362 205.234 40.0993 205.148 40.0993C205.085 40.0993 205.073 40.0247 205.062 39.9156C205.05 39.7433 204.987 39.3988 204.802 39.1002C204.491 38.6293 203.488 38.101 201.892 38.101C201.115 38.101 200.181 38.1756 199.242 38.9164C198.522 39.4849 198.014 40.6047 198.014 42.0518C198.014 43.7917 198.896 45.0493 199.328 45.4685C200.308 46.416 201.431 46.7893 202.572 46.7893C203.016 46.7893 203.661 46.7146 203.984 46.5309C204.145 46.4447 204.232 46.3069 204.232 46.1002V44.0042L204.226 43.9927Z" fill="white"/>
<path d="M213.97 41.3856C213.97 39.4619 213.97 39.1116 213.947 38.7211C213.924 38.302 213.826 38.101 213.417 38.0148C213.319 37.9919 213.105 37.9804 212.996 37.9804C212.944 37.9804 212.898 37.9574 212.898 37.9057C212.898 37.8311 212.961 37.8081 213.094 37.8081C213.376 37.8081 213.71 37.8081 213.987 37.8196L214.494 37.8426C214.581 37.8426 217.047 37.8426 217.329 37.8311C217.565 37.8196 217.761 37.7966 217.859 37.7679C217.923 37.7564 217.969 37.7047 218.032 37.7047C218.067 37.7047 218.084 37.7564 218.084 37.8138C218.084 37.9 218.02 38.0493 217.986 38.3938C217.974 38.5202 217.951 39.06 217.923 39.2093C217.911 39.2724 217.888 39.3471 217.836 39.3471C217.761 39.3471 217.738 39.2839 217.738 39.1863C217.738 39.1001 217.727 38.8877 217.663 38.7441C217.577 38.5489 217.45 38.3996 216.782 38.3249C216.568 38.302 215.22 38.2905 215.088 38.2905C215.036 38.2905 215.013 38.3249 215.013 38.4111V41.8163C215.013 41.9025 215.024 41.9369 215.088 41.9369C215.249 41.9369 216.77 41.9369 217.058 41.9139C217.358 41.891 217.531 41.8623 217.64 41.7417C217.727 41.644 217.778 41.5809 217.825 41.5809C217.859 41.5809 217.888 41.6038 217.888 41.6785C217.888 41.7531 217.825 41.9656 217.79 42.3676C217.767 42.6145 217.738 43.0682 217.738 43.16C217.738 43.2577 217.738 43.3955 217.652 43.3955C217.588 43.3955 217.565 43.3438 217.565 43.2864C217.565 43.1658 217.565 43.0395 217.513 42.8787C217.462 42.7064 217.352 42.4939 216.868 42.448C216.534 42.4135 215.307 42.3848 215.099 42.3848C215.036 42.3848 215.013 42.4193 215.013 42.471V43.5563C215.013 43.9755 215.001 45.4053 215.013 45.6695C215.047 46.5194 215.237 46.6801 216.447 46.6801C216.77 46.6801 217.318 46.6802 217.634 46.5423C217.957 46.4045 218.107 46.1576 218.193 45.6523C218.216 45.5144 218.245 45.4685 218.303 45.4685C218.378 45.4685 218.378 45.5661 218.378 45.6523C218.378 45.7499 218.28 46.5883 218.216 46.8467C218.13 47.1683 218.032 47.1683 217.548 47.1683C216.62 47.1683 215.94 47.1453 215.456 47.1338C214.972 47.1108 214.678 47.0993 214.488 47.0993C214.465 47.0993 214.252 47.0993 213.993 47.1108C213.745 47.1108 213.463 47.1338 213.273 47.1338C213.134 47.1338 213.077 47.1108 213.077 47.0362C213.077 47.0017 213.1 46.9615 213.175 46.9615C213.284 46.9615 213.434 46.9386 213.543 46.9098C213.791 46.8582 213.854 46.5883 213.901 46.2322C213.964 45.7154 213.964 44.7392 213.964 43.5563V41.3856H213.97Z" fill="white"/>
<path d="M226.813 45.4628C226.836 46.4734 226.963 46.795 227.297 46.8926C227.534 46.9558 227.805 46.9673 227.914 46.9673C227.977 46.9673 228.012 46.9902 228.012 47.0419C228.012 47.1166 227.937 47.1395 227.787 47.1395C227.084 47.1395 226.589 47.1051 226.473 47.1051C226.358 47.1051 225.84 47.1395 225.286 47.1395C225.165 47.1395 225.091 47.1281 225.091 47.0419C225.091 46.9902 225.125 46.9673 225.189 46.9673C225.286 46.9673 225.511 46.9558 225.696 46.8926C226.007 46.8065 226.07 46.4505 226.07 45.3249L226.082 38.2503C226.082 37.7679 226.116 37.6358 226.22 37.6358C226.324 37.6358 226.531 37.9057 226.652 38.0321C226.836 38.2445 228.686 40.2314 230.588 42.2642C231.815 43.5735 233.163 45.078 233.561 45.4857L233.423 39.215C233.411 38.4111 233.325 38.1412 232.939 38.0435C232.714 37.9919 232.431 37.9804 232.334 37.9804C232.247 37.9804 232.236 37.9459 232.236 37.8942C232.236 37.8196 232.334 37.8081 232.483 37.8081C233.042 37.8081 233.636 37.8426 233.774 37.8426C233.912 37.8426 234.321 37.8081 234.829 37.8081C234.967 37.8081 235.053 37.8196 235.053 37.8942C235.053 37.9459 235.001 37.9804 234.915 37.9804C234.852 37.9804 234.765 37.9804 234.615 38.0148C234.206 38.101 234.16 38.3709 234.16 39.1116L234.137 46.3471C234.137 47.1625 234.114 47.2257 234.028 47.2257C233.93 47.2257 233.78 47.0879 233.123 46.4332C232.985 46.3126 231.204 44.498 229.89 43.0911C228.456 41.5464 227.055 39.9902 226.658 39.5481L226.819 45.4628H226.813Z" fill="white"/>
</g>
<defs>
<clipPath id="clip0_12_4">
<rect width="334" height="47.3118" fill="white"/>
</clipPath>
</defs>
</svg>
