<svg width="21" height="21" viewBox="0 0 21 21" fill="none" xmlns="http://www.w3.org/2000/svg">
<path d="M12.6667 6.41667H13.6471C13.9071 6.41667 14.1564 6.30693 14.3403 6.11158C14.5242 5.91622 14.6274 5.65127 14.6274 5.37501C14.6274 5.09874 14.5242 4.83379 14.3403 4.63844C14.1564 4.44309 13.9071 4.33334 13.6471 4.33334H12.6667C12.4066 4.33334 12.1573 4.44309 11.9734 4.63844C11.7896 4.83379 11.6863 5.09874 11.6863 5.37501C11.6863 5.65127 11.7896 5.91622 11.9734 6.11158C12.1573 6.30693 12.4066 6.41667 12.6667 6.41667ZM12.6667 10.5833H13.6471C13.9071 10.5833 14.1564 10.4736 14.3403 10.2782C14.5242 10.0829 14.6274 9.81794 14.6274 9.54167C14.6274 9.26541 14.5242 9.00045 14.3403 8.8051C14.1564 8.60975 13.9071 8.50001 13.6471 8.50001H12.6667C12.4066 8.50001 12.1573 8.60975 11.9734 8.8051C11.7896 9.00045 11.6863 9.26541 11.6863 9.54167C11.6863 9.81794 11.7896 10.0829 11.9734 10.2782C12.1573 10.4736 12.4066 10.5833 12.6667 10.5833ZM7.76471 6.41667H8.7451C9.00511 6.41667 9.25448 6.30693 9.43834 6.11158C9.6222 5.91622 9.72549 5.65127 9.72549 5.37501C9.72549 5.09874 9.6222 4.83379 9.43834 4.63844C9.25448 4.44309 9.00511 4.33334 8.7451 4.33334H7.76471C7.50469 4.33334 7.25532 4.44309 7.07146 4.63844C6.88761 4.83379 6.78431 5.09874 6.78431 5.37501C6.78431 5.65127 6.88761 5.91622 7.07146 6.11158C7.25532 6.30693 7.50469 6.41667 7.76471 6.41667ZM7.76471 10.5833H8.7451C9.00511 10.5833 9.25448 10.4736 9.43834 10.2782C9.6222 10.0829 9.72549 9.81794 9.72549 9.54167C9.72549 9.26541 9.6222 9.00045 9.43834 8.8051C9.25448 8.60975 9.00511 8.50001 8.7451 8.50001H7.76471C7.50469 8.50001 7.25532 8.60975 7.07146 8.8051C6.88761 9.00045 6.78431 9.26541 6.78431 9.54167C6.78431 9.81794 6.88761 10.0829 7.07146 10.2782C7.25532 10.4736 7.50469 10.5833 7.76471 10.5833ZM19.5294 18.9167H18.549V1.20834C18.549 0.932071 18.4457 0.667119 18.2619 0.471769C18.078 0.276418 17.8286 0.166672 17.5686 0.166672H3.84314C3.58312 0.166672 3.33376 0.276418 3.1499 0.471769C2.96604 0.667119 2.86275 0.932071 2.86275 1.20834V18.9167H1.88235C1.62234 18.9167 1.37297 19.0264 1.18911 19.2218C1.00525 19.4171 0.901962 19.6821 0.901962 19.9583C0.901962 20.2346 1.00525 20.4996 1.18911 20.6949C1.37297 20.8903 1.62234 21 1.88235 21H19.5294C19.7894 21 20.0388 20.8903 20.2227 20.6949C20.4065 20.4996 20.5098 20.2346 20.5098 19.9583C20.5098 19.6821 20.4065 19.4171 20.2227 19.2218C20.0388 19.0264 19.7894 18.9167 19.5294 18.9167ZM11.6863 18.9167H9.72549V14.75H11.6863V18.9167ZM16.5882 18.9167H13.6471V13.7083C13.6471 13.4321 13.5438 13.1671 13.3599 12.9718C13.176 12.7764 12.9267 12.6667 12.6667 12.6667H8.7451C8.48508 12.6667 8.23572 12.7764 8.05186 12.9718C7.868 13.1671 7.76471 13.4321 7.76471 13.7083V18.9167H4.82353V2.25001H16.5882V18.9167Z" fill="black"/>
</svg>
