<svg width="45" height="22" viewBox="0 0 45 22" fill="none" xmlns="http://www.w3.org/2000/svg">
<g clip-path="url(#clip0_12_3219)">
<g clip-path="url(#clip1_12_3219)">
<path d="M4.47676 5.8857C4.32361 5.01547 3.59891 4.38682 2.732 4.38956C2.09754 4.38956 1.66545 4.71899 1.66545 5.18567C1.66545 6.55278 5.64722 6.36061 5.64995 8.71325C5.64995 9.94859 4.47129 10.5882 2.77849 10.591C1.93072 10.591 0.793072 10.3961 0.0765725 10.116V8.53206H0.880583C1.06381 9.59171 1.87876 10.1517 2.75661 10.1517C3.43209 10.1517 3.91614 9.80309 3.9134 9.30621C3.9134 7.99401 1.78578 8.09009 0.494986 6.89318C0.221513 6.64062 0 6.27551 0 5.79785C0 4.72997 1.15679 3.95033 2.7484 3.95033C3.50319 3.95033 4.51231 4.17269 5.18778 4.48016V5.8857H4.47402H4.47676Z" fill="black"/>
<path d="M8.4722 4.5131H8.13036C7.5041 4.5131 6.98177 4.81507 6.49772 5.45195H5.86327V4.07661L12.8587 4.06837V5.44646H12.2243C11.7402 4.80958 11.2151 4.51035 10.5916 4.51035H10.2498L10.2552 9.17718C10.2552 9.7674 10.4467 10.02 11.1331 10.02V10.4592L7.60529 10.4647V10.0255C8.25069 10.0255 8.4804 9.78936 8.4804 9.19091L8.47493 4.51584L8.4722 4.5131Z" fill="black"/>
<path d="M16.0912 4.50486H16.8268C17.8851 4.50486 18.3282 5.09233 18.3309 5.85275C18.3309 6.7422 17.8797 7.15672 16.7201 7.15672H16.0939L16.0912 4.50486ZM16.0939 7.59595H16.3373C16.6791 7.59595 16.7912 7.74419 17.4257 8.5952C18.0301 9.41053 18.7685 10.3741 19.031 10.4482H21.0055V10.0062C20.732 9.97878 20.6226 9.858 20.1386 9.32268C19.6737 8.80658 19.0173 7.90067 18.4731 7.3379C19.5014 7.18692 20.237 6.50337 20.2343 5.70451C20.2343 5.07586 19.7393 4.0574 18.0137 4.0574L13.3865 4.06289V4.50212C14.103 4.50212 14.3136 4.74369 14.3163 5.29822L14.3218 9.1964C14.3218 9.77838 14.1304 10.0117 13.3947 10.0117V10.451L16.9635 10.4455V10.0062C16.247 10.0062 16.0966 9.71799 16.0939 9.13601V7.59046V7.59595Z" fill="black"/>
<path d="M25.1869 7.4834H23.2917L24.186 5.13351L25.1869 7.4834ZM25.4193 8.03519L25.8733 9.12228C26.1167 9.69328 25.9553 9.94584 25.2689 10.0035V10.4427L28.6764 10.44V10.0007C28.2634 10.0007 28.0009 9.7674 27.7767 9.23484L25.6053 4.0574H23.7211L23.9535 4.49937L21.9845 9.17719C21.7931 9.6274 21.6126 9.88819 20.9262 10.0117V10.4537L23.2944 10.451V10.0117C22.649 9.94584 22.5178 9.52583 22.7393 8.91639L23.062 8.04617H25.4193V8.03519Z" fill="black"/>
<path d="M31.5807 10.4372H28.8487V10.0007H28.9198C29.6746 10.0007 29.9262 9.55877 29.9262 8.75443V4.97979C29.5679 4.69978 29.2562 4.54055 28.8842 4.49389V4.05465L31.3728 4.05191L35.1768 8.04891V6.25081C35.1741 4.7986 34.9909 4.50761 34.0146 4.49114V4.05191L36.6153 4.04916V4.4884C35.8304 4.55428 35.6992 4.81782 35.6992 5.81982V8.83679C35.7046 9.7729 35.8441 9.97879 35.866 10.5141H35.1604L30.3883 5.47941V8.30971C30.3938 9.52857 30.6345 10.0062 31.5123 10.0035H31.5834V10.4427L31.5807 10.4372Z" fill="black"/>
<path d="M39.6755 4.48016H40.392C41.2397 4.48016 41.773 4.60918 42.2379 5.04018C42.8423 5.60294 43.0966 6.37983 43.0966 7.38183C43.0966 8.58148 42.6454 9.98702 40.8405 9.98976C39.9736 9.98976 39.6809 9.66309 39.6809 8.9411L39.6755 4.4829V4.48016ZM37.9061 9.16621C37.9061 9.72897 37.7065 9.98976 37.02 9.99251V10.4317L41.0319 10.4263C43.8651 10.4235 45 8.70776 45 7.143C45 5.58922 43.928 4.03269 41.5077 4.03543L37.0118 4.04093V4.48016C37.7475 4.48016 37.9006 4.7684 37.9006 5.32293V9.16346L37.9061 9.16621Z" fill="black"/>
<path d="M10.4139 14.3491C14.7238 11.5024 18.0246 16.7484 22.6299 16.2351C24.7001 16.0045 26.2944 15.0025 28.1787 14.5413C29.278 14.2723 30.4211 14.1872 31.5479 14.4535C32.7949 14.7472 33.6946 15.4198 34.5807 15.9359C34.5369 15.9112 34.753 15.1288 34.753 15.0464C34.753 14.8405 34.8788 14.3272 34.5807 14.1542C33.7165 13.6519 32.9097 13.1193 31.8131 12.7487C30.6618 12.3589 29.3628 12.4961 28.1787 12.7597C26.196 13.1989 24.7329 14.1487 22.6299 14.4535C17.9918 15.1233 14.8359 9.64387 10.4139 12.5675C10.124 12.7597 10.2416 13.2373 10.2416 13.4569C10.2416 13.553 10.474 14.308 10.4139 14.3491Z" fill="#21409A"/>
<path d="M2.98906 0.263535C3.0082 0.376088 3.01914 0.491386 3.01914 0.612175C3.01914 0.636881 3.01914 0.667078 3.01641 0.708256C2.99453 0.713747 2.97539 0.713747 2.96445 0.713747C2.95351 0.713747 2.93983 0.713747 2.92343 0.708256C2.85506 0.535309 2.7402 0.40354 2.58432 0.310203C2.4257 0.216866 2.23154 0.172943 1.99909 0.172943C1.87602 0.172943 1.7721 0.183924 1.68733 0.211376C1.53965 0.255299 1.40838 0.318439 1.29353 0.398049C1.1814 0.47766 1.08569 0.570997 1.00638 0.68355C0.927072 0.793357 0.866908 0.927872 0.820418 1.08435C0.773927 1.24082 0.752049 1.40279 0.752049 1.56476C0.752049 1.87771 0.806744 2.13576 0.913399 2.3389C1.02005 2.54205 1.16773 2.68754 1.35642 2.77539C1.54239 2.86323 1.73382 2.90441 1.92251 2.90441H2.04011C2.17411 2.88794 2.26436 2.87422 2.31085 2.86049C2.43117 2.83029 2.53236 2.79461 2.61167 2.75343C2.69097 2.71225 2.76755 2.6546 2.84412 2.57773C2.92069 2.50087 2.98359 2.41302 3.03828 2.3142L3.06837 2.30596C3.06837 2.30596 3.09024 2.31145 3.10665 2.31969C3.10665 2.35537 3.10392 2.37734 3.10118 2.38832C3.03008 2.63538 2.98086 2.80284 2.94804 2.89343C2.92069 2.89892 2.88787 2.90716 2.84959 2.91814C2.65542 2.97304 2.39562 2.99775 2.07292 2.99775C1.81039 2.99775 1.61622 2.98128 1.48496 2.95108C1.35369 2.91814 1.21422 2.87147 1.06107 2.80559C0.907929 2.7397 0.773927 2.65185 0.656334 2.54205C0.541475 2.43224 0.445759 2.29498 0.377391 2.13027C0.306288 1.96281 0.270737 1.78163 0.270737 1.58672C0.270737 1.39181 0.298084 1.23808 0.355513 1.09807C0.412943 0.958069 0.497719 0.818064 0.618048 0.675314C0.735641 0.532564 0.875112 0.41452 1.03373 0.321184C1.19234 0.225102 1.3701 0.159217 1.567 0.120784C1.70374 0.0960777 1.8979 0.0823517 2.15223 0.0823517C2.33546 0.0823517 2.50775 0.104313 2.67183 0.145491C2.83318 0.186669 2.94257 0.230592 2.99726 0.269025L2.98906 0.263535Z" fill="black"/>
<path d="M4.53145 1.53731C4.53145 1.38906 4.5506 1.2573 4.59162 1.142C4.63264 1.0267 4.70101 0.90042 4.79672 0.765905C4.89244 0.631391 5.01003 0.516093 5.14403 0.425501C5.28077 0.33491 5.46946 0.255299 5.71012 0.183924C5.87967 0.13451 6.09298 0.112549 6.35278 0.112549C6.52781 0.112549 6.69736 0.131765 6.86418 0.172943C7.031 0.214121 7.18141 0.27177 7.31814 0.343145C7.45488 0.41452 7.59162 0.527073 7.72562 0.678059C7.82133 0.782377 7.89244 0.89493 7.93893 1.01572C8.00183 1.17494 8.03464 1.33691 8.03464 1.50711C8.03464 1.69927 8.01276 1.85849 7.97174 1.98477C7.93072 2.11105 7.85962 2.23733 7.75843 2.36086C7.67913 2.45695 7.54786 2.56675 7.35643 2.69303C7.23063 2.77813 7.07475 2.84402 6.88606 2.89618C6.69736 2.94834 6.49499 2.97304 6.27894 2.97304C6.0629 2.97304 5.86053 2.95108 5.68824 2.90441C5.51595 2.86049 5.37101 2.80284 5.25616 2.7397C5.1413 2.67382 5.02097 2.57773 4.90064 2.45146C4.77758 2.32518 4.68733 2.18517 4.62443 2.03144C4.56153 1.87771 4.52872 1.713 4.52872 1.53182L4.53145 1.53731ZM6.2598 2.89343C6.39927 2.89343 6.54421 2.87696 6.69462 2.84127C6.84503 2.80833 6.97904 2.75068 7.09389 2.67107C7.20875 2.59146 7.30173 2.50087 7.36737 2.3993C7.433 2.29772 7.48496 2.1687 7.52598 2.00948C7.567 1.85026 7.58615 1.69378 7.58615 1.53456C7.58615 1.33691 7.55333 1.142 7.4877 0.947088C7.43574 0.798848 7.35096 0.669824 7.2361 0.554525C7.12124 0.439227 6.97904 0.348636 6.81495 0.285496C6.65087 0.222357 6.47585 0.189414 6.28988 0.189414C6.13947 0.189414 5.9918 0.211376 5.84686 0.255299C5.70192 0.299222 5.58432 0.354126 5.49134 0.422756C5.39836 0.491386 5.31358 0.587468 5.23154 0.711002C5.15224 0.834535 5.09207 0.971795 5.05105 1.12278C5.01003 1.27102 4.98815 1.40554 4.98815 1.52083C4.98815 1.64162 5.00729 1.77888 5.05105 1.92987C5.09207 2.0836 5.1495 2.21537 5.2206 2.32792C5.29171 2.44047 5.38195 2.5393 5.48587 2.6244C5.59253 2.71225 5.71012 2.77813 5.84139 2.82206C5.97266 2.86873 6.11213 2.89069 6.26254 2.89069L6.2598 2.89343Z" fill="black"/>
<path d="M9.41294 0.142749C9.44302 0.137259 9.46217 0.134514 9.47037 0.134514C9.5278 0.134514 9.62078 0.137259 9.74931 0.145495C9.81768 0.145495 9.86417 0.14824 9.88879 0.14824C9.92434 0.14824 10.0036 0.14824 10.1212 0.140004L10.5451 0.118043C10.6572 0.109807 10.7858 0.104317 10.9335 0.104317C11.196 0.104317 11.4011 0.137259 11.557 0.200399C11.7129 0.266283 11.8304 0.367855 11.9152 0.505115C12 0.642375 12.041 0.779635 12.041 0.916895C12.041 1.14475 11.9508 1.3424 11.7675 1.50986C11.5843 1.67457 11.3382 1.75967 11.0292 1.75967C10.9417 1.75967 10.8706 1.75143 10.8131 1.73771C10.7557 1.72398 10.6873 1.69378 10.6135 1.64986C10.5807 1.63339 10.5615 1.61143 10.5561 1.59221C10.5643 1.58123 10.5725 1.57574 10.5834 1.57025C10.6053 1.57025 10.6299 1.57574 10.6545 1.58398C10.7119 1.60045 10.783 1.60868 10.8706 1.60868C11.0018 1.60868 11.1249 1.58123 11.2425 1.52358C11.3601 1.46593 11.4476 1.38632 11.5077 1.27926C11.5679 1.17494 11.598 1.06239 11.598 0.947092C11.598 0.831794 11.5652 0.721986 11.5023 0.614923C11.4394 0.50786 11.3546 0.422759 11.2534 0.356875C11.196 0.321187 11.1057 0.29099 10.9827 0.263538C10.8623 0.238831 10.7694 0.227851 10.701 0.227851C10.4932 0.227851 10.3728 0.241577 10.3345 0.266283V0.29648L10.34 0.543548V0.587471C10.3345 0.625904 10.3318 0.686298 10.3318 0.768654C10.3318 1.06514 10.3373 1.24906 10.3482 1.32318V1.44672L10.3838 2.44597C10.3838 2.45969 10.3838 2.48715 10.3783 2.52558C10.3728 2.56401 10.3728 2.5997 10.3728 2.62715C10.3728 2.69578 10.3783 2.75069 10.392 2.78637C10.433 2.79735 10.5479 2.81932 10.742 2.85775C10.8323 2.87696 10.8815 2.88794 10.8897 2.89069C10.9034 2.89618 10.9143 2.90442 10.9252 2.91814C10.917 2.9401 10.9088 2.95383 10.8979 2.95932C10.887 2.96481 10.8651 2.9703 10.835 2.9703C10.8159 2.9703 10.7694 2.96756 10.6955 2.95932C10.5533 2.94559 10.4385 2.9401 10.3564 2.9401L9.91613 2.95658L9.6536 2.94834C9.63719 2.94834 9.58797 2.94834 9.50866 2.95383V2.89344L9.83683 2.83853C9.89152 2.82481 9.92434 2.81382 9.93528 2.8001C9.95168 2.77814 9.95989 2.7397 9.95989 2.67931C9.95989 2.66558 9.95989 2.63813 9.95989 2.59421C9.95989 2.56401 9.95989 2.52283 9.95989 2.46793C9.95989 2.29498 9.95442 1.92987 9.94074 1.36985C9.93528 1.10906 9.93254 0.842774 9.93254 0.571V0.532567C9.93254 0.42825 9.9134 0.362365 9.87785 0.334913C9.81495 0.288245 9.65907 0.247067 9.40747 0.21687C9.39927 0.200399 9.3938 0.186673 9.3938 0.175692C9.3938 0.164711 9.39927 0.150985 9.40747 0.134514L9.41294 0.142749Z" fill="black"/>
<path d="M13.3045 2.88246C13.3209 2.86873 13.3345 2.86049 13.3482 2.85775C13.3783 2.84951 13.4275 2.84402 13.4959 2.84128C13.66 2.83304 13.7612 2.81932 13.8022 2.80285C13.8241 2.77539 13.8377 2.73422 13.8377 2.68206V2.53107V1.98203L13.8323 1.72124V1.17769L13.8213 0.56002C13.8213 0.411779 13.8077 0.329423 13.7885 0.310207C13.7584 0.282755 13.6682 0.266284 13.5205 0.263539C13.4576 0.263539 13.4002 0.258048 13.3537 0.249813C13.3318 0.238832 13.3209 0.225106 13.3209 0.208635C13.3209 0.197654 13.3263 0.181183 13.3318 0.164712C13.3482 0.156476 13.3592 0.153731 13.3728 0.153731C13.3947 0.153731 13.4248 0.153731 13.4576 0.153731C13.5561 0.156476 13.6572 0.159221 13.7612 0.159221L13.9444 0.153731L14.3819 0.167457C14.6007 0.167457 14.773 0.167457 14.8961 0.159221C15.0191 0.153731 15.1012 0.150986 15.1449 0.150986C15.1832 0.150986 15.2762 0.150986 15.4293 0.150986H15.7821L15.8231 0.156476L16.031 0.150986L16.0556 0.161966C16.0556 0.161966 16.0693 0.186673 16.072 0.200399C16.072 0.222361 16.0665 0.252558 16.0583 0.296481C16.0501 0.340404 16.0447 0.365111 16.0447 0.376092C16.0447 0.529823 16.0501 0.658847 16.0611 0.76591C16.0611 0.774145 16.0556 0.779636 16.0474 0.785126C16.0283 0.785126 16.0118 0.785126 15.9982 0.779636C15.979 0.752184 15.9544 0.70277 15.9243 0.63414C15.8943 0.56551 15.8478 0.4859 15.7849 0.392563C15.7438 0.332169 15.711 0.296481 15.6864 0.2855C15.6618 0.27452 15.6153 0.269029 15.5415 0.269029C15.5278 0.269029 15.4512 0.269029 15.3145 0.263539C15.2789 0.263539 15.2434 0.263539 15.2078 0.263539L14.4968 0.277265H14.4339C14.3437 0.277265 14.2862 0.288246 14.2698 0.307462C14.2425 0.343149 14.2288 0.444722 14.2288 0.614924C14.2288 0.631395 14.2315 0.807087 14.2397 1.13651V1.43848C14.2561 1.44123 14.278 1.44397 14.2999 1.44397H14.3409C14.3683 1.44397 14.4093 1.44397 14.4667 1.44397C14.5515 1.44672 14.6117 1.44946 14.6417 1.44946C14.6609 1.44946 14.68 1.44946 14.6937 1.44946C14.8715 1.44397 15.1039 1.44123 15.3856 1.44123C15.4731 1.4275 15.5251 1.41378 15.5387 1.39456C15.5633 1.36711 15.5825 1.29848 15.5962 1.18867C15.6098 1.07612 15.6372 1.01572 15.6809 0.999251C15.7028 0.999251 15.722 1.002 15.7411 1.01023C15.7411 1.02121 15.7466 1.03219 15.7466 1.04317C15.7466 1.05416 15.7466 1.07063 15.7411 1.09259C15.7356 1.14749 15.7329 1.31769 15.7329 1.60319C15.7329 1.68006 15.7384 1.76516 15.7466 1.8585C15.7548 1.95183 15.7603 2.00399 15.7603 2.00948C15.7603 2.02321 15.7603 2.03968 15.752 2.06164C15.7384 2.06713 15.7302 2.06988 15.722 2.06988H15.7056C15.6809 2.0287 15.6536 1.96556 15.629 1.87771C15.5852 1.72947 15.5387 1.63614 15.4922 1.60045C15.4458 1.56202 15.3692 1.54555 15.2598 1.54555C15.2352 1.54555 15.1942 1.54555 15.1313 1.54829C15.0711 1.54829 14.9781 1.55104 14.8551 1.55104H14.691C14.4585 1.55104 14.3081 1.55378 14.237 1.56476V1.63614V2.03419V2.28675V2.53107C14.237 2.67931 14.2507 2.76441 14.2698 2.78637C14.2972 2.81932 14.3601 2.83304 14.4558 2.83304H14.6089C14.6089 2.83304 14.6746 2.83304 14.7648 2.83304C14.8551 2.83304 14.9672 2.83579 15.1012 2.83579C15.4239 2.83579 15.6372 2.82481 15.7438 2.8001C15.8505 2.77539 15.938 2.73422 16.0091 2.67382C16.0775 2.61343 16.165 2.48166 16.2716 2.28126C16.3045 2.22086 16.3345 2.19067 16.3674 2.19067C16.381 2.19067 16.4002 2.19616 16.4166 2.20714C16.3701 2.35263 16.3427 2.44597 16.3373 2.49264C16.3181 2.59421 16.3099 2.69853 16.3045 2.80559C16.3045 2.855 16.2908 2.89344 16.2634 2.92638H16.2087L15.5059 2.93187L15.1914 2.92363L14.4421 2.92912H14.1358C14.0975 2.92912 14.062 2.92912 14.0292 2.92912C13.7283 2.93461 13.5068 2.93736 13.3674 2.93736C13.3427 2.93736 13.3236 2.93461 13.3154 2.92638C13.3072 2.91814 13.3017 2.90716 13.3017 2.89344V2.87147L13.3045 2.88246Z" fill="black"/>
<path d="M17.6253 0.263534V0.150981C17.8797 0.150981 18.0684 0.14549 18.1887 0.13451C18.2352 0.131765 18.268 0.129019 18.2871 0.129019C18.3008 0.129019 18.3254 0.129019 18.3528 0.137255C18.4211 0.189414 18.4868 0.247063 18.5469 0.312947C18.5606 0.326673 18.5743 0.340399 18.5907 0.356871L19.1158 0.864732L19.1896 0.944342C19.2963 1.05415 19.392 1.14749 19.4795 1.22435C19.567 1.30122 19.7365 1.46318 19.9881 1.70751L20.5816 2.28674C20.639 2.34439 20.7156 2.41302 20.8058 2.49812V2.46244C20.7976 2.25929 20.7922 2.15223 20.7922 2.14125L20.8031 2.00948L20.7976 1.80359V1.71025C20.7976 1.64986 20.7922 1.46593 20.7812 1.15572C20.7812 1.11454 20.773 1.03493 20.7621 0.916891C20.7511 0.798847 20.7457 0.697275 20.7457 0.606683C20.7457 0.447462 20.7347 0.354125 20.7128 0.326673C20.6964 0.307457 20.6281 0.288241 20.5023 0.266279C20.4722 0.266279 20.4257 0.260789 20.3628 0.252553C20.2862 0.249808 20.2452 0.247063 20.2315 0.241572C20.2179 0.236082 20.2042 0.225101 20.1905 0.205885C20.1932 0.183923 20.2015 0.161962 20.2124 0.142745C20.2589 0.131764 20.3026 0.126274 20.3437 0.126274C20.3901 0.126274 20.4476 0.131764 20.5159 0.14C20.5843 0.150981 20.6472 0.153726 20.7019 0.153726C20.7785 0.153726 20.8988 0.153726 21.0602 0.14549C21.1504 0.142745 21.216 0.14 21.2489 0.14H21.2899L21.2844 0.20863C21.2571 0.219611 21.2215 0.225101 21.1778 0.227846C21.1313 0.227846 21.0902 0.236082 21.052 0.247063C20.9945 0.263534 20.959 0.27726 20.948 0.288241C20.9097 0.326673 20.8906 0.365106 20.8906 0.403539L20.9152 1.09258L20.9316 1.40828V1.50162L20.9426 1.94085C20.9535 2.24008 20.959 2.50087 20.959 2.72323C20.959 2.7699 20.9562 2.87422 20.948 3.03618L20.8195 3.04442C20.7621 2.98677 20.5624 2.80284 20.2206 2.49263C20.1413 2.42126 20.0866 2.37184 20.0592 2.34165L19.8459 2.12478C19.7639 2.04517 19.7092 1.99301 19.6846 1.97105C19.66 1.94908 19.6408 1.93261 19.6299 1.92163C19.4494 1.74045 19.2142 1.5126 18.9271 1.24357C18.8478 1.16945 18.7356 1.0569 18.5852 0.900419C18.4895 0.801592 18.4321 0.743943 18.4075 0.721982C18.3829 0.70002 18.35 0.675313 18.3063 0.647861L18.2981 0.721982C18.2981 1.00474 18.3063 1.3973 18.32 1.89693L18.3391 2.61891C18.3391 2.67931 18.3446 2.7397 18.35 2.7946L18.4376 2.81108C18.5962 2.8248 18.752 2.84402 18.9052 2.86872C18.9161 2.87696 18.9271 2.8852 18.9353 2.88794V2.9703C18.9052 2.97853 18.886 2.98128 18.8696 2.98128C18.8505 2.98128 18.8286 2.98128 18.804 2.97853C18.6399 2.9703 18.4403 2.96755 18.2078 2.96755C18.0438 2.96755 17.8961 2.97304 17.7703 2.98402H17.7375C17.7211 2.98402 17.7019 2.98402 17.6718 2.98402V2.92088L17.7347 2.89618L17.8523 2.87971C17.9562 2.86598 18.0328 2.85225 18.082 2.83578C18.1121 2.8248 18.1395 2.81108 18.1586 2.78911C18.1778 2.68754 18.186 2.54205 18.186 2.34714C18.186 2.25655 18.186 2.09183 18.1778 1.85026V1.55378L18.1723 0.933362C18.1695 0.656097 18.1586 0.491385 18.1395 0.441972C18.1285 0.41452 18.1094 0.392558 18.0766 0.373342C18.0137 0.334909 17.9289 0.310202 17.8277 0.299221C17.7265 0.288241 17.6582 0.280005 17.6281 0.271769L17.6253 0.263534Z" fill="black"/>
<path d="M22.6108 2.96206V2.9154C22.6682 2.88794 22.7338 2.87147 22.8077 2.86324C22.9252 2.84951 22.9991 2.83853 23.0319 2.82206C23.062 2.80833 23.0839 2.78912 23.0975 2.76441C23.1194 2.71774 23.1331 2.66833 23.1331 2.61891L23.1276 2.4542V2.30047V2.12203C23.1276 2.04791 23.1276 1.95458 23.1358 1.84477C23.1413 1.73496 23.144 1.67457 23.144 1.66633V1.07062C23.144 0.977287 23.144 0.875715 23.1522 0.763162C23.1577 0.653354 23.1604 0.576488 23.1604 0.53531C23.1604 0.411777 23.1577 0.337656 23.1495 0.31844C23.144 0.296478 23.1304 0.282752 23.1112 0.274517C23.0921 0.266281 23.0319 0.258046 22.9307 0.24981C22.8541 0.24432 22.7994 0.238829 22.7694 0.236084C22.7612 0.219613 22.7584 0.203142 22.7584 0.192161C22.7584 0.178435 22.7584 0.164709 22.7584 0.148238C22.7994 0.145493 22.8295 0.142747 22.8514 0.142747H23.0866C23.2534 0.142747 23.4312 0.142747 23.6171 0.129021C23.7101 0.123531 23.8468 0.118041 24.0328 0.115295C24.0355 0.129021 24.0383 0.142747 24.0383 0.153728C24.0383 0.167454 24.0355 0.18118 24.0273 0.189416C24.0191 0.197651 24.0082 0.203142 23.9891 0.205887C23.773 0.222358 23.6472 0.24432 23.6089 0.277262C23.5706 0.307459 23.5515 0.38707 23.5515 0.513349C23.5515 0.746691 23.5542 0.988268 23.5624 1.23534L23.5734 1.43848C23.5734 1.43848 23.6882 1.45221 23.8961 1.46044C23.9535 1.46319 23.9863 1.46593 23.9945 1.46593L24.3582 1.46044L24.5989 1.46593L25.2279 1.44946C25.3072 1.44946 25.3537 1.44672 25.3701 1.44123C25.381 1.19141 25.3865 0.949835 25.3865 0.716493C25.3865 0.483152 25.381 0.359618 25.3674 0.31844C25.3619 0.293733 25.3482 0.277262 25.3318 0.269026C25.3209 0.266281 25.2334 0.252555 25.0693 0.236084C25.0419 0.236084 25.0146 0.230594 24.99 0.225103C24.9818 0.203142 24.9763 0.17569 24.9763 0.145493C25.0337 0.137257 25.0693 0.134512 25.0829 0.134512L25.247 0.140002C25.3974 0.145493 25.5506 0.148238 25.7037 0.148238C25.8022 0.148238 25.9635 0.142747 26.1932 0.134512C26.1932 0.167454 26.1878 0.197651 26.1796 0.225103C26.1167 0.247065 26.0428 0.260791 25.9553 0.266281C25.9006 0.266281 25.8541 0.277262 25.8159 0.290988C25.7858 0.310204 25.7694 0.351382 25.7694 0.414522C25.7694 0.428248 25.7694 0.444719 25.7694 0.46119C25.7694 0.513349 25.7694 0.546291 25.7694 0.562762V0.969051V1.1722V1.54829V1.90242C25.7694 1.97379 25.7694 2.0836 25.7776 2.23459V2.52832C25.7776 2.62715 25.7858 2.69578 25.8049 2.73696C25.8159 2.75617 25.8323 2.77264 25.8541 2.78088L26.0565 2.81931C26.155 2.84127 26.2151 2.85775 26.2343 2.87147C26.2534 2.8852 26.2644 2.90167 26.2644 2.91814L26.2561 2.94285H26.2452C26.2452 2.94285 26.2261 2.94285 26.2124 2.94285C26.0319 2.9154 25.8432 2.90167 25.6436 2.90167C25.4877 2.90167 25.3756 2.90167 25.3127 2.90716C25.247 2.91265 25.1103 2.92638 24.9025 2.95383C24.8997 2.93461 24.897 2.92089 24.897 2.91265C24.897 2.90167 24.897 2.88794 24.9025 2.87147C24.9544 2.84677 25.0337 2.82755 25.1458 2.81657C25.2279 2.80833 25.2935 2.78637 25.3427 2.74794C25.3728 2.72049 25.3892 2.68205 25.3892 2.63264V2.31694C25.3892 2.22361 25.3947 2.17145 25.3947 2.16047C25.3947 2.03693 25.3947 1.85575 25.3865 1.61692C25.381 1.59496 25.3728 1.58398 25.3592 1.57848C25.3127 1.56476 25.0939 1.5675 24.6974 1.58672C24.618 1.59221 24.5579 1.59221 24.5196 1.59221C24.4813 1.59221 24.3965 1.59221 24.2707 1.58672C24.1449 1.58398 24.0273 1.58123 23.918 1.58123C23.8605 1.58123 23.8113 1.58123 23.7703 1.58123C23.6937 1.58123 23.6527 1.58123 23.6445 1.58123C23.6062 1.58123 23.5788 1.58672 23.5652 1.60045C23.5515 1.61417 23.5433 1.63613 23.5433 1.67182V1.82281C23.5433 1.84751 23.5433 1.98477 23.5324 2.23184C23.5324 2.284 23.5296 2.32518 23.5296 2.35812C23.5296 2.55577 23.5378 2.68754 23.5542 2.75343C23.5624 2.78363 23.5761 2.80559 23.598 2.81657C23.6144 2.8248 23.6773 2.84127 23.7949 2.86049C23.8715 2.87422 23.9316 2.89069 23.9699 2.90441L23.9836 2.92638C23.9836 2.92638 23.9836 2.9401 23.9726 2.94559C23.9617 2.95383 23.948 2.95657 23.9289 2.95657C23.9152 2.95657 23.8988 2.95657 23.8824 2.95657C23.8633 2.95657 23.8277 2.95657 23.7757 2.95383C23.691 2.95383 23.5843 2.94834 23.4558 2.94559C23.3737 2.94285 23.2999 2.9401 23.237 2.9401C23.1304 2.9401 22.9581 2.94559 22.7229 2.95383C22.6791 2.95383 22.6381 2.95383 22.608 2.95383L22.6108 2.96206Z" fill="black"/>
<path d="M27.3801 2.855C27.4047 2.84127 27.4239 2.83578 27.443 2.83578H27.5005C27.5005 2.83578 27.5333 2.83578 27.5606 2.83578C27.6891 2.8248 27.763 2.81657 27.7876 2.80559C27.845 2.77814 27.8943 2.72872 27.938 2.66284C28.0228 2.5146 28.1185 2.30596 28.2279 2.03419C28.2798 1.90516 28.3099 1.82555 28.3236 1.7981C28.3646 1.71025 28.4029 1.61966 28.4412 1.52358L28.6737 0.95258C28.7092 0.861988 28.7967 0.656098 28.9362 0.33491C28.969 0.252555 29.0128 0.145492 29.062 0.00823212H29.1413H29.2288C29.2999 0.131766 29.3628 0.266281 29.4175 0.409031C29.4476 0.485896 29.4968 0.598449 29.5652 0.749435L29.9453 1.64986L30.1477 2.1385C30.2543 2.41577 30.3227 2.58597 30.3555 2.64911C30.3883 2.71225 30.4184 2.75343 30.4485 2.77539C30.4567 2.78088 30.4868 2.78912 30.5415 2.80284C30.5962 2.81382 30.6317 2.82206 30.6536 2.83029C30.7302 2.84951 30.7821 2.86598 30.8122 2.88245C30.8177 2.89892 30.8231 2.91265 30.8231 2.92089C30.8231 2.92912 30.8231 2.9401 30.8149 2.95657C30.763 2.95657 30.7247 2.95657 30.7028 2.95657C30.618 2.95657 30.4704 2.95108 30.2571 2.94285L30.0082 2.93736H29.7074C29.6882 2.9401 29.6664 2.93736 29.6472 2.93736C29.6253 2.93736 29.6089 2.93736 29.5925 2.93736H29.5378C29.5187 2.93736 29.5023 2.93187 29.4886 2.92363C29.4886 2.90167 29.4941 2.88245 29.4995 2.86324C29.5187 2.855 29.5378 2.84951 29.5542 2.84676L29.8086 2.83029C29.8742 2.83029 29.9262 2.81931 29.959 2.80559C29.9699 2.77814 29.9754 2.75892 29.9754 2.74794C29.9754 2.72049 29.9535 2.6546 29.9097 2.54479C29.8797 2.47067 29.8523 2.40204 29.8304 2.33616C29.8086 2.27027 29.7183 2.0534 29.5652 1.68829C29.4968 1.67731 29.4394 1.67182 29.3874 1.67182H28.8569H28.701C28.6436 1.67182 28.5834 1.67457 28.515 1.6828C28.4932 1.72672 28.4795 1.75692 28.474 1.77614L28.258 2.37734C28.165 2.60519 28.1185 2.73421 28.1185 2.75617C28.1185 2.7699 28.1267 2.79186 28.1404 2.82206C28.1759 2.83029 28.2224 2.83853 28.2799 2.84676L28.619 2.87147C28.6381 2.8852 28.6463 2.89618 28.6463 2.90441C28.6463 2.91265 28.6463 2.92088 28.6381 2.93461C28.5643 2.93461 28.5068 2.93461 28.4658 2.93461C28.3318 2.93461 28.1787 2.92912 28.0036 2.92089C27.9216 2.91814 27.8642 2.91539 27.8286 2.91539C27.7931 2.91539 27.7329 2.91539 27.6454 2.92089C27.588 2.92638 27.5497 2.92912 27.5251 2.92912C27.484 2.92912 27.4348 2.92912 27.3719 2.92089V2.90441C27.3719 2.90441 27.3747 2.87696 27.3829 2.85775L27.3801 2.855ZM28.5643 1.56201C28.7393 1.57025 28.9417 1.57574 29.1686 1.57574C29.2972 1.57574 29.4093 1.57299 29.5077 1.56476C29.4913 1.50711 29.4722 1.45495 29.4503 1.40828C29.3409 1.15847 29.2835 1.01846 29.2726 0.993757L29.0456 0.494132L29.021 0.455699C29.01 0.47217 28.9745 0.546291 28.9116 0.67806C28.8077 0.903166 28.7311 1.07611 28.6846 1.20239C28.6627 1.26004 28.6408 1.31495 28.619 1.36985C28.5971 1.42475 28.5807 1.46319 28.5752 1.48515C28.5697 1.50711 28.5615 1.52907 28.5506 1.55378L28.5643 1.56201Z" fill="black"/>
<path d="M35.0018 0.280009L35.0292 0.612178C35.0374 0.71375 35.0428 0.78238 35.0428 0.818068L34.9745 0.829048C34.8623 0.606688 34.7256 0.439231 34.5588 0.329423C34.3947 0.219615 34.1923 0.161966 33.9544 0.161966C33.6618 0.161966 33.4348 0.194908 33.2735 0.255302C33.0383 0.343149 32.8359 0.49688 32.6691 0.716495C32.5023 0.936111 32.4175 1.19965 32.4175 1.50986C32.4175 1.68829 32.4476 1.85026 32.5105 1.99027C32.5734 2.13302 32.6582 2.26479 32.7703 2.38832C32.8824 2.51185 33.0137 2.61892 33.1668 2.70676C33.2653 2.76716 33.3856 2.81108 33.5223 2.84128C33.6016 2.85775 33.7165 2.86598 33.8724 2.86598C33.9708 2.86598 34.0829 2.855 34.2033 2.8303C34.3236 2.80559 34.4166 2.77265 34.4768 2.73147C34.5369 2.69029 34.5807 2.64362 34.6025 2.59146C34.6244 2.53931 34.6354 2.43773 34.6354 2.28675C34.6354 2.03419 34.6162 1.88869 34.5779 1.84752C34.5396 1.80634 34.4193 1.77889 34.2197 1.76516L34.1212 1.75967H34.0556C34.0556 1.75967 34.0337 1.75967 34.0173 1.75692L33.979 1.70477C33.979 1.70477 33.9845 1.68829 33.9954 1.67731C34.0829 1.66633 34.2689 1.66084 34.5588 1.66084C34.6244 1.66084 34.7283 1.66084 34.876 1.66359L35.1331 1.67182H35.3655C35.4093 1.67182 35.464 1.67182 35.5269 1.67182C35.5378 1.67182 35.546 1.67457 35.5488 1.68006C35.5515 1.6828 35.5542 1.69104 35.5542 1.69928C35.5542 1.71575 35.5515 1.73771 35.5406 1.76242C35.4695 1.77614 35.4148 1.78163 35.3765 1.78163H35.2151C35.1604 1.78163 35.1167 1.79536 35.0811 1.8283C35.0647 1.84477 35.0565 1.89967 35.0565 1.99301V2.27851C35.0565 2.47342 35.0483 2.5997 35.0319 2.6546C35.021 2.68755 35.0018 2.715 34.969 2.7397C34.9362 2.76441 34.8706 2.79461 34.7694 2.8303C34.6244 2.87971 34.4932 2.9154 34.3756 2.93187C34.1568 2.96481 33.9435 2.98128 33.7411 2.98128C33.4102 2.98128 33.1422 2.94559 32.9316 2.87147C32.7211 2.79735 32.5406 2.69578 32.3874 2.56676C32.237 2.43773 32.1276 2.30322 32.062 2.17145C31.9635 1.97654 31.9143 1.77614 31.9143 1.573C31.9143 1.32044 31.9909 1.07063 32.144 0.829048C32.2972 0.584726 32.546 0.387072 32.8879 0.236086C33.1285 0.129023 33.4567 0.0741196 33.8696 0.0741196C34.1541 0.0741196 34.3892 0.0960811 34.5697 0.137259C34.7502 0.178437 34.8952 0.227851 35.0018 0.280009Z" fill="black"/>
<path d="M36.7438 2.88246C36.7603 2.86873 36.7739 2.86049 36.7876 2.85775C36.8177 2.84951 36.8669 2.84402 36.9353 2.84128C37.0994 2.83304 37.2033 2.81932 37.2416 2.80285C37.2662 2.77539 37.2771 2.73422 37.2771 2.68206V2.53107V1.98203L37.2716 1.72124V1.17769L37.2607 0.56002C37.2607 0.411779 37.2498 0.329423 37.2279 0.310207C37.1978 0.282755 37.1103 0.266284 36.9599 0.263539C36.897 0.263539 36.8396 0.258048 36.7931 0.249813C36.7712 0.238832 36.7603 0.225106 36.7603 0.208635C36.7603 0.197654 36.7657 0.181183 36.7739 0.164712C36.7876 0.156476 36.8013 0.153731 36.8122 0.153731C36.8368 0.153731 36.8642 0.153731 36.897 0.153731C36.9954 0.156476 37.0966 0.159221 37.2005 0.159221L37.3838 0.153731L37.8213 0.167457C38.0401 0.167457 38.2124 0.167457 38.3355 0.159221C38.4585 0.153731 38.5406 0.150986 38.5843 0.150986C38.6226 0.150986 38.7156 0.150986 38.8687 0.150986H39.2215L39.2653 0.156476L39.4704 0.150986L39.495 0.161966C39.495 0.161966 39.5087 0.186673 39.5114 0.200399C39.5114 0.222361 39.5059 0.252558 39.4977 0.296481C39.4895 0.340404 39.484 0.365111 39.484 0.376092C39.484 0.529823 39.4895 0.658847 39.5005 0.76591C39.5005 0.774145 39.4923 0.779636 39.4868 0.785126C39.4676 0.785126 39.4512 0.785126 39.4376 0.779636C39.4184 0.752184 39.3938 0.70277 39.3637 0.63414C39.3309 0.56551 39.2871 0.4859 39.2242 0.392563C39.1832 0.332169 39.1504 0.296481 39.1258 0.2855C39.1039 0.27452 39.0547 0.269029 38.9809 0.269029C38.9644 0.269029 38.8906 0.269029 38.7539 0.263539C38.7183 0.263539 38.6828 0.263539 38.6472 0.263539L37.9362 0.277265H37.8733C37.783 0.277265 37.7284 0.288246 37.7092 0.307462C37.6819 0.343149 37.6682 0.444722 37.6682 0.614924C37.6682 0.631395 37.6737 0.807087 37.6791 1.13651V1.43848C37.6983 1.44123 37.7174 1.44397 37.7393 1.44397H37.783C37.8104 1.44397 37.8514 1.44397 37.9061 1.44397C37.9936 1.44672 38.051 1.44946 38.0811 1.44946C38.1003 1.44946 38.1194 1.44946 38.1331 1.44946C38.3108 1.44397 38.5433 1.44123 38.825 1.44123C38.9125 1.4275 38.9644 1.41378 38.9781 1.39456C39.0027 1.36711 39.0219 1.29848 39.0328 1.18867C39.0465 1.07612 39.0738 1.01572 39.1149 0.999251C39.1367 0.999251 39.1559 1.002 39.175 1.01023C39.1778 1.02121 39.1805 1.03219 39.1805 1.04317C39.1805 1.05416 39.1805 1.07063 39.175 1.09259C39.1696 1.14749 39.1668 1.31769 39.1668 1.60319C39.1668 1.68006 39.1723 1.76516 39.1805 1.8585C39.1887 1.95183 39.1942 2.00399 39.1942 2.00948C39.1942 2.02321 39.1942 2.03968 39.186 2.06164C39.1723 2.06713 39.1613 2.06988 39.1531 2.06988H39.1367C39.1121 2.0287 39.0848 1.96556 39.0602 1.87771C39.0164 1.72947 38.9727 1.63614 38.9234 1.60045C38.8742 1.56202 38.7976 1.54555 38.691 1.54555C38.6664 1.54555 38.6253 1.54555 38.5624 1.54829C38.4995 1.54829 38.4093 1.55104 38.2862 1.55104H38.1249C37.8924 1.55104 37.742 1.55378 37.6709 1.56476V1.63614V2.03419V2.28675V2.53107C37.6709 2.67931 37.6819 2.76441 37.7037 2.78637C37.7338 2.81932 37.794 2.83304 37.8897 2.83304H38.0428C38.0428 2.83304 38.1085 2.83304 38.1987 2.83304C38.289 2.83304 38.4011 2.83579 38.5351 2.83579C38.8578 2.83579 39.0711 2.82481 39.1778 2.8001C39.2844 2.77539 39.3719 2.73422 39.4403 2.67382C39.5087 2.61343 39.5989 2.48166 39.7028 2.28126C39.7356 2.22086 39.7657 2.19067 39.7985 2.19067C39.8122 2.19067 39.8314 2.19616 39.8478 2.20714C39.8013 2.35263 39.7739 2.44597 39.7685 2.49264C39.7521 2.59421 39.7411 2.69853 39.7384 2.80559C39.7384 2.855 39.7247 2.89344 39.6974 2.92638H39.6427L38.9398 2.93187L38.6253 2.92363L37.876 2.92912H37.5697C37.5315 2.92912 37.4959 2.92912 37.4631 2.92912C37.1623 2.93461 36.9407 2.93736 36.7985 2.93736C36.7739 2.93736 36.7575 2.93461 36.7466 2.92638C36.7356 2.91814 36.7329 2.90716 36.7329 2.89344V2.87147L36.7438 2.88246Z" fill="black"/>
<path d="M41.0675 0.263534V0.150981C41.3218 0.150981 41.5105 0.14549 41.6308 0.13451C41.6773 0.131765 41.7101 0.129019 41.7293 0.129019C41.7457 0.129019 41.7675 0.129019 41.7976 0.137255C41.866 0.189414 41.9316 0.247063 41.9918 0.312947C42.0055 0.326673 42.0191 0.340399 42.0355 0.356871L42.5606 0.864732L42.6345 0.944342C42.7411 1.05415 42.8368 1.14749 42.9243 1.22435C43.0118 1.30122 43.1814 1.46318 43.433 1.70751L44.0264 2.28674C44.0839 2.34439 44.1604 2.41302 44.2507 2.49812V2.46244C44.2425 2.25929 44.237 2.15223 44.237 2.14125L44.2479 2.00948L44.2425 1.80359V1.71025C44.2425 1.64986 44.237 1.46593 44.2261 1.15572C44.2261 1.11454 44.2179 1.03493 44.2069 0.916891C44.196 0.798847 44.1905 0.697275 44.1905 0.606683C44.1905 0.447462 44.1796 0.354125 44.1577 0.326673C44.144 0.307457 44.0729 0.288241 43.9444 0.266279C43.9143 0.266279 43.8678 0.260789 43.8049 0.252553C43.7311 0.249808 43.6873 0.247063 43.6737 0.241572C43.66 0.236082 43.6463 0.225101 43.6326 0.205885C43.6354 0.183923 43.6436 0.161962 43.6545 0.142745C43.6983 0.131764 43.742 0.126274 43.7858 0.126274C43.8323 0.126274 43.8897 0.131764 43.9581 0.14C44.0264 0.150981 44.0893 0.153726 44.144 0.153726C44.2206 0.153726 44.3382 0.153726 44.4995 0.14549C44.5925 0.142745 44.6554 0.14 44.691 0.14H44.732L44.7265 0.20863C44.7019 0.219611 44.6636 0.225101 44.6199 0.227846C44.5734 0.227846 44.5324 0.236082 44.4941 0.247063C44.4366 0.263534 44.4011 0.27726 44.3902 0.288241C44.3519 0.326673 44.3327 0.365106 44.3327 0.403539L44.3546 1.09258L44.371 1.40828V1.50162L44.3819 1.94085C44.3929 2.24008 44.3956 2.50087 44.3956 2.72323C44.3956 2.7699 44.3929 2.87422 44.3847 3.03618L44.2561 3.04442C44.1987 2.98677 43.9991 2.80284 43.6572 2.49263C43.5779 2.42126 43.5232 2.37184 43.4959 2.34165L43.2826 2.12478C43.2005 2.04517 43.1458 1.99301 43.1212 1.97105C43.0966 1.94908 43.0775 1.93261 43.0665 1.92163C42.886 1.74045 42.6509 1.5126 42.3637 1.24357C42.2844 1.16945 42.1723 1.0569 42.0219 0.900419C41.9262 0.801592 41.8687 0.743943 41.8441 0.721982C41.8195 0.70002 41.784 0.675313 41.7429 0.647861L41.7375 0.721982C41.7375 1.00474 41.7457 1.3973 41.7593 1.89693L41.7757 2.61891C41.7757 2.67931 41.7812 2.7397 41.7867 2.7946L41.8742 2.81108C42.0328 2.8248 42.1887 2.84402 42.3418 2.86872C42.3528 2.87696 42.3637 2.8852 42.3719 2.88794V2.9703C42.3418 2.97853 42.32 2.98128 42.3036 2.98128C42.2844 2.98128 42.2625 2.98128 42.2379 2.97853C42.0738 2.9703 41.8742 2.96755 41.6417 2.96755C41.4777 2.96755 41.33 2.97304 41.2069 2.98402H41.1714C41.155 2.98402 41.1358 2.98402 41.1057 2.98402V2.92088L41.1686 2.89618L41.2862 2.87971C41.3902 2.86598 41.4667 2.85225 41.5159 2.83578C41.5488 2.8248 41.5734 2.81108 41.5925 2.78911C41.6089 2.68754 41.6199 2.54205 41.6199 2.34714C41.6199 2.25655 41.6199 2.09183 41.6117 1.85026V1.55378L41.6062 0.933362C41.6035 0.656097 41.5925 0.491385 41.5734 0.441972C41.5624 0.41452 41.5433 0.392558 41.5105 0.373342C41.4476 0.334909 41.3655 0.310202 41.2616 0.299221C41.1604 0.288241 41.0921 0.280005 41.062 0.271769L41.0675 0.263534Z" fill="black"/>
<path d="M1.11578 19.6172C1.14859 19.5321 1.1568 19.5156 1.17321 19.5156C1.18962 19.5156 1.19782 19.5293 1.23064 19.6089C1.26892 19.7078 1.67913 20.7921 1.84048 21.1902C1.93346 21.4235 2.01003 21.4647 2.06473 21.4811C2.10302 21.4949 2.14404 21.4976 2.16865 21.4976C2.18506 21.4976 2.19326 21.4976 2.19326 21.5141C2.19326 21.5278 2.16865 21.5361 2.1413 21.5361C2.10302 21.5361 1.91158 21.5361 1.73109 21.5306C1.68187 21.5306 1.65178 21.5306 1.65178 21.5141C1.65178 21.5031 1.65999 21.4976 1.67093 21.4949C1.68734 21.4894 1.70374 21.4647 1.68734 21.4235L1.44395 20.7784C1.44395 20.7784 1.43301 20.7619 1.41933 20.7619H0.858713C0.858713 20.7619 0.83957 20.7701 0.831365 20.7839L0.675486 21.2478C0.650873 21.3137 0.639934 21.3768 0.639934 21.4235C0.639934 21.4757 0.694629 21.5004 0.738385 21.5004H0.762997C0.78214 21.5004 0.790345 21.5059 0.790345 21.5168C0.790345 21.5306 0.773936 21.5388 0.752058 21.5388C0.689159 21.5388 0.577035 21.5306 0.546953 21.5306C0.516871 21.5306 0.374665 21.5388 0.251602 21.5388C0.218786 21.5388 0.202377 21.5333 0.202377 21.5168C0.202377 21.5059 0.213316 21.5004 0.22699 21.5004C0.246133 21.5004 0.281685 21.4976 0.303562 21.4949C0.423891 21.4784 0.47585 21.3796 0.522341 21.2478L1.11578 19.6199V19.6172ZM1.38652 20.6658C1.38652 20.6658 1.40019 20.6576 1.39745 20.6466L1.14859 19.9383C1.13492 19.8999 1.12125 19.8999 1.11031 19.9383L0.880591 20.6466C0.880591 20.6466 0.880591 20.6658 0.888795 20.6658H1.38652Z" fill="#231F20"/>
<path d="M2.57066 20.3117C2.57066 19.9027 2.57066 19.8285 2.56519 19.7462C2.55972 19.6556 2.53784 19.6144 2.45306 19.5979C2.43119 19.5925 2.38743 19.5897 2.36555 19.5897C2.35461 19.5897 2.34367 19.5842 2.34367 19.5732C2.34367 19.5568 2.35735 19.5513 2.38469 19.5513C2.50229 19.5513 2.66637 19.5595 2.68005 19.5595C2.71013 19.5595 2.90703 19.5513 2.98907 19.5513C3.15315 19.5513 3.32818 19.5677 3.46765 19.6666C3.53328 19.7132 3.64814 19.8423 3.64814 20.0235C3.64814 20.2184 3.5661 20.4105 3.33091 20.6301C3.54696 20.9047 3.72198 21.138 3.87512 21.3027C4.01733 21.451 4.12945 21.4811 4.19509 21.4921C4.24431 21.5004 4.27986 21.5004 4.29627 21.5004C4.30995 21.5004 4.32088 21.5086 4.32088 21.5168C4.32088 21.5306 4.30448 21.5388 4.25799 21.5388H4.07202C3.92435 21.5388 3.85871 21.5251 3.79308 21.4894C3.68096 21.429 3.58798 21.3 3.4403 21.1051C3.33091 20.9596 3.20785 20.7839 3.15589 20.718C3.14495 20.707 3.13675 20.7015 3.12307 20.7015L2.80311 20.696C2.80311 20.696 2.78397 20.7043 2.78397 20.718V20.7811C2.78397 21.0337 2.78397 21.2396 2.79764 21.3494C2.80584 21.4262 2.82225 21.4839 2.89882 21.4949C2.93438 21.5004 2.99181 21.5059 3.01642 21.5059C3.03283 21.5059 3.0383 21.5141 3.0383 21.5223C3.0383 21.5361 3.02462 21.5443 2.99727 21.5443C2.85507 21.5443 2.69098 21.5361 2.67731 21.5361C2.67731 21.5361 2.51049 21.5443 2.43119 21.5443C2.4011 21.5443 2.39016 21.5388 2.39016 21.5223C2.39016 21.5141 2.39563 21.5059 2.41204 21.5059C2.43665 21.5059 2.46674 21.5004 2.49135 21.4949C2.54331 21.4839 2.55698 21.4262 2.56792 21.3494C2.5816 21.2396 2.5816 21.0309 2.5816 20.7811V20.3199L2.57066 20.3117ZM2.7785 20.5395C2.7785 20.5533 2.78397 20.5643 2.79764 20.5725C2.83593 20.5972 2.95625 20.6137 3.07111 20.6137C3.13401 20.6137 3.20785 20.6054 3.26801 20.5643C3.35826 20.5011 3.42663 20.3584 3.42663 20.1607C3.42663 19.834 3.25434 19.6364 2.9754 19.6364C2.89609 19.6364 2.82772 19.6446 2.80037 19.6528C2.7867 19.6583 2.7785 19.6693 2.7785 19.683V20.5395Z" fill="#231F20"/>
<path d="M4.53965 20.3117C4.53965 19.9027 4.53965 19.8285 4.53418 19.7462C4.52871 19.6556 4.50957 19.6144 4.42206 19.5979C4.40018 19.5925 4.35643 19.5897 4.33181 19.5897C4.32088 19.5897 4.30994 19.5842 4.30994 19.5732C4.30994 19.5568 4.32361 19.5513 4.35096 19.5513C4.46855 19.5513 4.62443 19.5595 4.64631 19.5595C4.70374 19.5595 4.85415 19.5513 4.97448 19.5513C5.29991 19.5513 5.4175 19.6611 5.46126 19.6995C5.51869 19.7544 5.59253 19.8725 5.59253 20.0125C5.59253 20.3858 5.32179 20.6356 4.94986 20.6356C4.93619 20.6356 4.90884 20.6356 4.89517 20.6356C4.8815 20.6356 4.86509 20.6301 4.86509 20.6164C4.86509 20.5972 4.88149 20.5945 4.93619 20.5945C5.19052 20.5945 5.38742 20.4078 5.38742 20.1662C5.38742 20.0784 5.37922 19.9054 5.23974 19.7627C5.10027 19.6199 4.94166 19.6309 4.8815 19.6309C4.83774 19.6309 4.79398 19.6364 4.76937 19.6474C4.75296 19.6528 4.74749 19.6693 4.74749 19.6968V20.7756C4.74749 21.0282 4.74749 21.2341 4.76117 21.3439C4.76937 21.4208 4.78578 21.4784 4.86235 21.4894C4.8979 21.4949 4.95533 21.5004 4.97995 21.5004C4.99635 21.5004 5.00182 21.5086 5.00182 21.5168C5.00182 21.5306 4.98815 21.5388 4.9608 21.5388C4.8186 21.5388 4.65178 21.5306 4.6381 21.5306C4.6299 21.5306 4.46582 21.5388 4.38651 21.5388C4.35643 21.5388 4.34549 21.5333 4.34549 21.5168C4.34549 21.5086 4.35096 21.5004 4.36463 21.5004C4.38924 21.5004 4.41933 21.4949 4.44394 21.4894C4.4959 21.4784 4.50957 21.4208 4.52051 21.3439C4.53418 21.2341 4.53418 21.0254 4.53418 20.7756V20.3144L4.53965 20.3117Z" fill="#231F20"/>
<path d="M6.60165 20.7152C6.6454 20.7152 6.67822 20.7207 6.67822 20.7399C6.67822 20.7729 6.62899 20.7756 6.58797 20.7839C6.51687 20.7948 6.0547 20.858 5.96719 20.8799C5.91796 20.8937 5.87421 20.9211 5.86053 20.9211C5.84412 20.9211 5.84139 20.9047 5.84686 20.8799L5.88515 20.7317C5.89062 20.7125 5.90155 20.7097 5.94257 20.7097H6.60165V20.7152Z" fill="#231F20"/>
<path d="M8.81404 20.7729C8.81404 21.0254 8.81404 21.2313 8.82771 21.3411C8.83592 21.418 8.85233 21.4757 8.9289 21.4866C8.96445 21.4921 9.02188 21.4976 9.04649 21.4976C9.0629 21.4976 9.06837 21.5059 9.06837 21.5141C9.06837 21.5278 9.0547 21.5361 9.02735 21.5361C8.88241 21.5361 8.71833 21.5278 8.70465 21.5278C8.69098 21.5278 8.52689 21.5361 8.44759 21.5361C8.4175 21.5361 8.40657 21.5306 8.40657 21.5141C8.40657 21.5059 8.41203 21.4976 8.42844 21.4976C8.45306 21.4976 8.48314 21.4921 8.50775 21.4866C8.55971 21.4757 8.57338 21.418 8.58432 21.3411C8.598 21.2313 8.598 21.0227 8.598 20.7729V20.4984C8.598 20.4984 8.58979 20.4819 8.58159 20.4819H7.47402C7.47402 20.4819 7.45761 20.4819 7.45761 20.4984V20.7729C7.45761 21.0254 7.45761 21.2313 7.47129 21.3411C7.47949 21.418 7.4959 21.4757 7.57247 21.4866C7.61076 21.4921 7.66545 21.4976 7.69007 21.4976C7.70647 21.4976 7.71194 21.5059 7.71194 21.5141C7.71194 21.5278 7.69827 21.5361 7.67092 21.5361C7.52872 21.5361 7.3619 21.5278 7.35096 21.5278C7.33729 21.5278 7.1732 21.5361 7.09389 21.5361C7.06655 21.5361 7.05287 21.5306 7.05287 21.5141C7.05287 21.5059 7.05834 21.4976 7.07475 21.4976C7.09936 21.4976 7.12945 21.4921 7.15406 21.4866C7.20602 21.4757 7.21969 21.418 7.23063 21.3411C7.24431 21.2313 7.2443 21.0227 7.2443 20.7729V20.3117C7.2443 19.9027 7.2443 19.8285 7.23884 19.7462C7.23337 19.6556 7.21149 19.6144 7.12671 19.5979C7.10483 19.5925 7.06108 19.5897 7.03647 19.5897C7.02553 19.5897 7.01459 19.5842 7.01459 19.5732C7.01459 19.5568 7.02826 19.5513 7.05561 19.5513C7.1732 19.5513 7.33729 19.5595 7.35096 19.5595C7.36463 19.5595 7.52872 19.5513 7.60802 19.5513C7.63811 19.5513 7.64904 19.5568 7.64904 19.5732C7.64904 19.5842 7.63811 19.5897 7.62717 19.5897C7.60802 19.5897 7.59435 19.5897 7.56153 19.5979C7.49043 19.6117 7.47129 19.6556 7.46582 19.7462C7.46035 19.8285 7.46035 19.9027 7.46035 20.3117V20.3666C7.46035 20.3666 7.46855 20.3831 7.47676 20.3831H8.58432C8.58432 20.3831 8.60073 20.3803 8.60073 20.3666V20.3117C8.60073 19.9027 8.60073 19.8285 8.59526 19.7462C8.58979 19.6556 8.56791 19.6144 8.48314 19.5979C8.46126 19.5925 8.4175 19.5897 8.39563 19.5897C8.38469 19.5897 8.37375 19.5842 8.37375 19.5732C8.37375 19.5568 8.38742 19.5513 8.41477 19.5513C8.53236 19.5513 8.69645 19.5595 8.71012 19.5595C8.72379 19.5595 8.88788 19.5513 8.96719 19.5513C8.99453 19.5513 9.00821 19.5568 9.00821 19.5732C9.00821 19.5842 8.99727 19.5897 8.98906 19.5897C8.96992 19.5897 8.95625 19.5897 8.92343 19.5979C8.85233 19.6117 8.83318 19.6556 8.82771 19.7462C8.82224 19.8285 8.82224 19.9027 8.82224 20.3117V20.7729H8.81404Z" fill="#231F20"/>
<path d="M10.1212 19.6172C10.1513 19.5321 10.1623 19.5156 10.1787 19.5156C10.1951 19.5156 10.206 19.5293 10.2361 19.6089C10.2744 19.7078 10.6846 20.7921 10.8459 21.1902C10.9417 21.4235 11.0155 21.4647 11.0702 21.4811C11.1085 21.4949 11.1495 21.4976 11.1741 21.4976C11.1905 21.4976 11.1987 21.4976 11.1987 21.5141C11.1987 21.5278 11.1741 21.5361 11.1468 21.5361C11.1085 21.5361 10.917 21.5361 10.7366 21.5306C10.6873 21.5306 10.6573 21.5306 10.6573 21.5141C10.6573 21.5031 10.6655 21.4976 10.6764 21.4949C10.6928 21.4894 10.7092 21.4647 10.6928 21.4235L10.4494 20.7784C10.4494 20.7784 10.4385 20.7619 10.4248 20.7619H9.86144C9.86144 20.7619 9.83957 20.7701 9.8341 20.7839L9.67822 21.2478C9.6536 21.3137 9.64267 21.3768 9.64267 21.4235C9.64267 21.4757 9.69736 21.5004 9.74112 21.5004H9.76846C9.78761 21.5004 9.79308 21.5059 9.79308 21.5168C9.79308 21.5306 9.77667 21.5388 9.75479 21.5388C9.69189 21.5388 9.57977 21.5306 9.54968 21.5306C9.5196 21.5306 9.3774 21.5388 9.25433 21.5388C9.22152 21.5388 9.20511 21.5333 9.20511 21.5168C9.20511 21.5059 9.21605 21.5004 9.22972 21.5004C9.24886 21.5004 9.28442 21.4976 9.30629 21.4949C9.42662 21.4784 9.47858 21.3796 9.52507 21.2478L10.1185 19.6199L10.1212 19.6172ZM10.392 20.6658C10.392 20.6658 10.4057 20.6576 10.4029 20.6466L10.1541 19.9383C10.1404 19.8999 10.1294 19.8999 10.1158 19.9383L9.88606 20.6466C9.88606 20.6466 9.88606 20.6658 9.89426 20.6658H10.392Z" fill="#231F20"/>
<path d="M11.6445 21.1792C11.65 21.396 11.6773 21.4619 11.7457 21.4839C11.7949 21.4976 11.8523 21.5004 11.8769 21.5004C11.8906 21.5004 11.8988 21.5059 11.8988 21.5168C11.8988 21.5306 11.8824 21.5388 11.8523 21.5388C11.7019 21.5388 11.598 21.5306 11.5761 21.5306C11.5542 21.5306 11.4421 21.5388 11.3245 21.5388C11.2972 21.5388 11.2835 21.5388 11.2835 21.5168C11.2835 21.5059 11.2917 21.5004 11.3054 21.5004C11.3273 21.5004 11.3738 21.4976 11.412 21.4839C11.4777 21.4647 11.4913 21.3906 11.4913 21.1517V19.6501C11.4913 19.5485 11.5023 19.5183 11.5214 19.5183C11.5406 19.5183 11.5871 19.576 11.6117 19.6034C11.65 19.6474 12.041 20.0701 12.443 20.5039C12.7001 20.7811 12.9872 21.1023 13.0693 21.1874L13.0419 19.856C13.0419 19.6858 13.0201 19.6281 12.9408 19.6062C12.8943 19.5952 12.8341 19.5925 12.8122 19.5925C12.7931 19.5925 12.7903 19.5842 12.7903 19.5732C12.7903 19.5568 12.8122 19.554 12.8423 19.554C12.9599 19.554 13.0857 19.5623 13.113 19.5623C13.1404 19.5623 13.2279 19.554 13.3346 19.554C13.3646 19.554 13.381 19.554 13.381 19.5732C13.381 19.5842 13.3701 19.5925 13.351 19.5925C13.3373 19.5925 13.3209 19.5925 13.2881 19.6007C13.2033 19.6199 13.1924 19.6776 13.1924 19.834L13.1869 21.3713C13.1869 21.5443 13.1814 21.558 13.1623 21.558C13.1431 21.558 13.1103 21.5278 12.9708 21.3906C12.9408 21.3631 12.5661 20.9788 12.2899 20.6796C11.9863 20.3529 11.691 20.0207 11.6089 19.9274L11.6418 21.1847L11.6445 21.1792Z" fill="#231F20"/>
<path d="M13.8815 21.5004C13.846 21.4811 13.8432 21.4702 13.8432 21.3988C13.8432 21.267 13.8542 21.1627 13.8569 21.1215C13.8569 21.0913 13.8651 21.0803 13.8788 21.0803C13.8952 21.0803 13.8979 21.0858 13.8979 21.1078C13.8979 21.1325 13.8979 21.1682 13.9061 21.2039C13.9444 21.3988 14.1167 21.4729 14.2917 21.4729C14.5433 21.4729 14.6664 21.2917 14.6664 21.1243C14.6664 20.9431 14.5898 20.8388 14.3655 20.6521L14.248 20.556C13.9717 20.3282 13.9088 20.1662 13.9088 19.9878C13.9088 19.7078 14.1167 19.5156 14.4503 19.5156C14.5515 19.5156 14.6281 19.5266 14.6937 19.5403C14.7429 19.5513 14.7648 19.554 14.784 19.554C14.8031 19.554 14.8113 19.5595 14.8113 19.5732C14.8113 19.587 14.8004 19.6721 14.8004 19.8505C14.8004 19.8917 14.7949 19.9109 14.7812 19.9109C14.7648 19.9109 14.7621 19.8972 14.7594 19.878C14.7594 19.845 14.7402 19.7764 14.7265 19.7462C14.7101 19.7187 14.6418 19.6062 14.4011 19.6062C14.2206 19.6062 14.0784 19.7187 14.0784 19.9109C14.0784 20.0591 14.1468 20.1552 14.3984 20.3501L14.4722 20.4078C14.7812 20.6521 14.8523 20.8141 14.8523 21.0254C14.8523 21.1325 14.8113 21.3329 14.6308 21.4619C14.5187 21.5415 14.3765 21.5717 14.237 21.5717C14.114 21.5717 13.9936 21.5525 13.887 21.5004H13.8815Z" fill="#231F20"/>
<path d="M15.5387 20.3117C15.5387 19.9027 15.5387 19.8285 15.5333 19.7462C15.5278 19.6556 15.5059 19.6144 15.4212 19.5979C15.3993 19.5925 15.3555 19.5897 15.3336 19.5897C15.3227 19.5897 15.3118 19.5842 15.3118 19.5732C15.3118 19.5568 15.3254 19.5513 15.3528 19.5513C15.413 19.5513 15.4841 19.5513 15.5415 19.5513L15.6481 19.5568C15.6673 19.5568 16.1869 19.5568 16.247 19.5568C16.2963 19.554 16.3373 19.5485 16.3592 19.543C16.3728 19.543 16.3838 19.5293 16.3947 19.5293C16.4029 19.5293 16.4057 19.5403 16.4057 19.5513C16.4057 19.5705 16.392 19.6007 16.3838 19.6748C16.3838 19.6995 16.3756 19.8176 16.3701 19.8478C16.3674 19.8615 16.3619 19.878 16.351 19.878C16.3346 19.878 16.3291 19.8642 16.3291 19.8423C16.3291 19.823 16.3264 19.7791 16.3127 19.7489C16.2935 19.705 16.2689 19.6748 16.1267 19.6583C16.083 19.6528 15.7985 19.6501 15.7685 19.6501C15.7575 19.6501 15.7521 19.6583 15.7521 19.6776V20.4023C15.7521 20.4215 15.7548 20.4297 15.7685 20.4297C15.8013 20.4297 16.124 20.4297 16.1841 20.4242C16.247 20.4188 16.2826 20.4133 16.3072 20.3886C16.3236 20.3666 16.3346 20.3529 16.3455 20.3529C16.3537 20.3529 16.3592 20.3584 16.3592 20.3748C16.3592 20.3913 16.3455 20.4352 16.3373 20.5231C16.3318 20.5752 16.3264 20.6713 16.3264 20.6905C16.3264 20.7125 16.3264 20.7399 16.3072 20.7399C16.2935 20.7399 16.2881 20.729 16.2881 20.7152C16.2881 20.6878 16.2881 20.6631 16.2771 20.6301C16.2662 20.5944 16.2443 20.5478 16.1404 20.5368C16.0693 20.5286 15.8095 20.5231 15.7657 20.5231C15.7521 20.5231 15.7466 20.5313 15.7466 20.5423V20.7729C15.7466 20.8635 15.7466 21.1682 15.7466 21.2231C15.7548 21.4043 15.7931 21.4372 16.0501 21.4372C16.1185 21.4372 16.2334 21.4372 16.3017 21.407C16.3701 21.3768 16.4002 21.3247 16.4193 21.2176C16.4248 21.1874 16.4303 21.1792 16.4439 21.1792C16.4604 21.1792 16.4604 21.1984 16.4604 21.2176C16.4604 21.2396 16.4385 21.418 16.4275 21.4729C16.4084 21.5415 16.3893 21.5415 16.2853 21.5415C16.0884 21.5415 15.9462 21.5361 15.845 21.5333C15.7439 21.5278 15.681 21.5251 15.6399 21.5251C15.6345 21.5251 15.5907 21.5251 15.536 21.5251C15.4841 21.5251 15.4239 21.5306 15.3856 21.5306C15.3555 21.5306 15.3446 21.5251 15.3446 21.5086C15.3446 21.5004 15.3501 21.4921 15.3665 21.4921C15.3911 21.4921 15.4212 21.4866 15.4458 21.4811C15.4977 21.4702 15.5114 21.4125 15.5223 21.3357C15.536 21.2258 15.536 21.0172 15.536 20.7674V20.3062L15.5387 20.3117Z" fill="#231F20"/>
<path d="M17.2015 21.1792C17.2069 21.396 17.2343 21.4619 17.3026 21.4839C17.3519 21.4976 17.4093 21.5004 17.4339 21.5004C17.4476 21.5004 17.4531 21.5059 17.4531 21.5168C17.4531 21.5306 17.4366 21.5388 17.4066 21.5388C17.2562 21.5388 17.1522 21.5306 17.1304 21.5306C17.1085 21.5306 16.9964 21.5388 16.8788 21.5388C16.8541 21.5388 16.8377 21.5388 16.8377 21.5168C16.8377 21.5059 16.8459 21.5004 16.8596 21.5004C16.8815 21.5004 16.928 21.4976 16.9663 21.4839C17.0319 21.4647 17.0456 21.3906 17.0456 21.1517V19.6501C17.0483 19.5485 17.0565 19.5183 17.0784 19.5183C17.1003 19.5183 17.144 19.576 17.1686 19.6034C17.2069 19.6474 17.598 20.0701 18 20.5039C18.2598 20.7811 18.5442 21.1023 18.6263 21.1874L18.5962 19.856C18.5962 19.6858 18.5743 19.6281 18.495 19.6062C18.4485 19.5952 18.3883 19.5925 18.3665 19.5925C18.3473 19.5925 18.3446 19.5842 18.3446 19.5732C18.3446 19.5568 18.3665 19.554 18.3965 19.554C18.5141 19.554 18.6399 19.5623 18.67 19.5623C18.7001 19.5623 18.7849 19.554 18.8915 19.554C18.9189 19.554 18.938 19.554 18.938 19.5732C18.938 19.5842 18.9271 19.5925 18.9107 19.5925C18.897 19.5925 18.8778 19.5925 18.8478 19.6007C18.763 19.6199 18.752 19.6776 18.752 19.834L18.7466 21.3713C18.7466 21.5443 18.7411 21.558 18.7247 21.558C18.7028 21.558 18.6727 21.5278 18.5333 21.3906C18.5059 21.3631 18.1285 20.9788 17.8523 20.6796C17.5488 20.3529 17.2534 20.0207 17.1686 19.9274L17.2015 21.1847V21.1792Z" fill="#231F20"/>
<path d="M25.8104 20.7729C25.8104 21.0254 25.8104 21.2313 25.8241 21.3411C25.8323 21.418 25.8459 21.4757 25.9253 21.4866C25.9608 21.4921 26.0182 21.4976 26.0428 21.4976C26.0593 21.4976 26.0647 21.5059 26.0647 21.5141C26.0647 21.5278 26.0511 21.5361 26.0237 21.5361C25.8788 21.5361 25.7147 21.5278 25.701 21.5278C25.6873 21.5278 25.5232 21.5361 25.4439 21.5361C25.4166 21.5361 25.4029 21.5306 25.4029 21.5141C25.4029 21.5059 25.4084 21.4976 25.4248 21.4976C25.4494 21.4976 25.4795 21.4921 25.5041 21.4866C25.5561 21.4757 25.5697 21.418 25.5807 21.3411C25.5943 21.2313 25.5943 21.0227 25.5943 20.7729V20.4984C25.5943 20.4984 25.5861 20.4819 25.5779 20.4819H24.4704C24.4704 20.4819 24.454 20.4819 24.454 20.4984V20.7729C24.454 21.0254 24.454 21.2313 24.4676 21.3411C24.4758 21.418 24.4895 21.4757 24.5688 21.4866C24.6044 21.4921 24.6645 21.4976 24.6864 21.4976C24.7028 21.4976 24.7083 21.5059 24.7083 21.5141C24.7083 21.5278 24.6946 21.5361 24.6645 21.5361C24.5223 21.5361 24.3555 21.5278 24.3446 21.5278C24.3336 21.5278 24.1668 21.5361 24.0875 21.5361C24.0574 21.5361 24.0465 21.5306 24.0465 21.5141C24.0465 21.5059 24.052 21.4976 24.0684 21.4976C24.093 21.4976 24.1231 21.4921 24.1477 21.4866C24.1996 21.4757 24.2133 21.418 24.2242 21.3411C24.2379 21.2313 24.2379 21.0227 24.2379 20.7729V20.3117C24.2379 19.9027 24.2379 19.8285 24.2325 19.7462C24.227 19.6556 24.2078 19.6144 24.1203 19.5979C24.0985 19.5925 24.0547 19.5897 24.0328 19.5897C24.0219 19.5897 24.0109 19.5842 24.0109 19.5732C24.0109 19.5568 24.0246 19.5513 24.052 19.5513C24.1696 19.5513 24.3336 19.5595 24.3473 19.5595C24.361 19.5595 24.5251 19.5513 24.6044 19.5513C24.6317 19.5513 24.6454 19.5568 24.6454 19.5732C24.6454 19.5842 24.6345 19.5897 24.6235 19.5897C24.6044 19.5897 24.588 19.5897 24.5579 19.5979C24.4868 19.6117 24.4676 19.6556 24.4622 19.7462C24.4567 19.8285 24.4567 19.9027 24.4567 20.3117V20.3666C24.4567 20.3666 24.4649 20.3831 24.4731 20.3831H25.5807C25.5807 20.3831 25.5971 20.3803 25.5971 20.3666V20.3117C25.5971 19.9027 25.5971 19.8285 25.5916 19.7462C25.5861 19.6556 25.5643 19.6144 25.4795 19.5979C25.4576 19.5925 25.4139 19.5897 25.392 19.5897C25.381 19.5897 25.3701 19.5842 25.3701 19.5732C25.3701 19.5568 25.3838 19.5513 25.4111 19.5513C25.5287 19.5513 25.6928 19.5595 25.7065 19.5595C25.7201 19.5595 25.8842 19.5513 25.9635 19.5513C25.9936 19.5513 26.0046 19.5568 26.0046 19.5732C26.0046 19.5842 25.9936 19.5897 25.9827 19.5897C25.9635 19.5897 25.9499 19.5897 25.917 19.5979C25.8459 19.6117 25.8268 19.6556 25.8213 19.7462C25.8159 19.8285 25.8159 19.9027 25.8159 20.3117V20.7729H25.8104Z" fill="#231F20"/>
<path d="M27.4075 19.5156C27.9954 19.5156 28.433 19.8889 28.433 20.4984C28.433 21.1078 28.0201 21.5717 27.3911 21.5717C26.6746 21.5717 26.3765 21.0145 26.3765 20.5423C26.3765 20.1168 26.6855 19.5156 27.4047 19.5156H27.4075ZM27.4622 21.4729C27.6974 21.4729 28.1841 21.3357 28.1841 20.5725C28.1841 19.9438 27.804 19.6062 27.3911 19.6062C26.9535 19.6062 26.6281 19.8944 26.6281 20.4682C26.6281 21.0803 26.9945 21.4729 27.4649 21.4729H27.4622Z" fill="#231F20"/>
<path d="M29.5515 20.7729C29.5515 21.0254 29.5515 21.2313 29.5652 21.3411C29.5734 21.418 29.5871 21.4757 29.6664 21.4866C29.7019 21.4921 29.7621 21.4976 29.784 21.4976C29.8004 21.4976 29.8058 21.5059 29.8058 21.5141C29.8058 21.5278 29.7922 21.5361 29.7648 21.5361C29.6199 21.5361 29.4558 21.5278 29.4449 21.5278C29.4312 21.5278 29.2671 21.5361 29.1878 21.5361C29.1604 21.5361 29.1468 21.5306 29.1468 21.5141C29.1468 21.5059 29.1522 21.4976 29.1659 21.4976C29.1905 21.4976 29.2206 21.4921 29.2452 21.4866C29.2972 21.4757 29.3109 21.418 29.3218 21.3411C29.3355 21.2313 29.3355 21.0227 29.3355 20.7729V19.6638L28.9471 19.6693C28.7858 19.6693 28.7229 19.6913 28.6791 19.7544C28.6518 19.7983 28.6436 19.8176 28.6354 19.8368C28.6272 19.8587 28.619 19.8615 28.6108 19.8615C28.6026 19.8615 28.5971 19.8532 28.5971 19.8395C28.5971 19.8121 28.6491 19.587 28.6545 19.565C28.66 19.5485 28.6709 19.5156 28.6791 19.5156C28.6983 19.5156 28.7229 19.5403 28.794 19.5485C28.8706 19.5568 28.969 19.5595 29.0018 19.5595H29.9809C30.0629 19.5595 30.1258 19.554 30.1668 19.5485C30.2078 19.543 30.2297 19.5348 30.2407 19.5348C30.2543 19.5348 30.2543 19.5485 30.2543 19.565C30.2543 19.6446 30.2461 19.823 30.2461 19.8532C30.2461 19.878 30.2379 19.8862 30.227 19.8862C30.2133 19.8862 30.2078 19.878 30.2051 19.8423V19.8121C30.1942 19.7325 30.1313 19.6721 29.8797 19.6666L29.5515 19.6611V20.7701V20.7729Z" fill="#231F20"/>
<path d="M30.8013 20.3117C30.8013 19.9027 30.8013 19.8285 30.7958 19.7462C30.7903 19.6556 30.7685 19.6144 30.6837 19.5979C30.6618 19.5925 30.6181 19.5897 30.5934 19.5897C30.5825 19.5897 30.5716 19.5842 30.5716 19.5732C30.5716 19.5568 30.5852 19.5513 30.6126 19.5513C30.6727 19.5513 30.7439 19.5513 30.8013 19.5513L30.9079 19.5568C30.9271 19.5568 31.4467 19.5568 31.5068 19.5568C31.5561 19.554 31.5971 19.5485 31.619 19.543C31.6326 19.543 31.6436 19.5293 31.6545 19.5293C31.6627 19.5293 31.6655 19.5403 31.6655 19.5513C31.6655 19.5705 31.6518 19.6007 31.6436 19.6748C31.6436 19.6995 31.6354 19.8176 31.6299 19.8478C31.6299 19.8615 31.6217 19.878 31.6108 19.878C31.5944 19.878 31.5889 19.8642 31.5889 19.8423C31.5889 19.823 31.5861 19.7791 31.5725 19.7489C31.5533 19.705 31.5287 19.6748 31.3865 19.6583C31.3428 19.6528 31.0583 19.6501 31.0283 19.6501C31.0173 19.6501 31.0119 19.6583 31.0119 19.6776V20.4023C31.0119 20.4215 31.0119 20.4297 31.0283 20.4297C31.0611 20.4297 31.3838 20.4297 31.4439 20.4242C31.5068 20.4188 31.5424 20.4133 31.567 20.3886C31.5861 20.3666 31.5944 20.3529 31.6053 20.3529C31.6135 20.3529 31.619 20.3584 31.619 20.3748C31.619 20.3913 31.6053 20.4352 31.5971 20.5231C31.5916 20.5752 31.5861 20.6713 31.5861 20.6905C31.5861 20.7125 31.5861 20.7399 31.567 20.7399C31.5533 20.7399 31.5479 20.729 31.5479 20.7152C31.5479 20.6878 31.5479 20.6631 31.5369 20.6301C31.526 20.5944 31.5014 20.5478 31.4002 20.5368C31.3291 20.5286 31.072 20.5231 31.0255 20.5231C31.0119 20.5231 31.0064 20.5313 31.0064 20.5423V20.7729C31.0064 20.8635 31.0064 21.1682 31.0064 21.2231C31.0146 21.4043 31.0529 21.4372 31.3099 21.4372C31.3783 21.4372 31.4932 21.4372 31.5615 21.407C31.6299 21.3768 31.66 21.3247 31.6791 21.2176C31.6846 21.1874 31.6901 21.1792 31.7037 21.1792C31.7202 21.1792 31.7201 21.1984 31.7201 21.2176C31.7201 21.2396 31.6983 21.418 31.6873 21.4729C31.6682 21.5415 31.6463 21.5415 31.5451 21.5415C31.3482 21.5415 31.206 21.5361 31.1048 21.5333C31.0037 21.5278 30.9408 21.5251 30.8997 21.5251C30.8943 21.5251 30.8505 21.5251 30.7958 21.5251C30.7439 21.5251 30.6837 21.5306 30.6454 21.5306C30.6153 21.5306 30.6044 21.5251 30.6044 21.5086C30.6044 21.5004 30.6098 21.4921 30.6263 21.4921C30.6481 21.4921 30.681 21.4866 30.7056 21.4811C30.7575 21.4702 30.7712 21.4125 30.7821 21.3357C30.7958 21.2258 30.7958 21.0172 30.7958 20.7674V20.3062L30.8013 20.3117Z" fill="#231F20"/>
<path d="M32.6144 20.7811C32.6144 21.1654 32.6253 21.3357 32.6718 21.3823C32.7129 21.4262 32.7812 21.4427 32.9863 21.4427C33.1258 21.4427 33.2407 21.4427 33.3036 21.3631C33.3364 21.3219 33.3637 21.256 33.3719 21.2039C33.3747 21.1819 33.3801 21.1709 33.3965 21.1709C33.4102 21.1709 33.4129 21.1819 33.4129 21.2094C33.4129 21.2368 33.3938 21.396 33.3747 21.4702C33.3555 21.5306 33.35 21.5415 33.2106 21.5415C33.0219 21.5415 32.8851 21.5361 32.7758 21.5333C32.6664 21.5278 32.5843 21.5251 32.5105 21.5251C32.4995 21.5251 32.4558 21.5251 32.4038 21.5251C32.3519 21.5278 32.2944 21.5306 32.2562 21.5306C32.2288 21.5306 32.2151 21.5251 32.2151 21.5086C32.2151 21.5004 32.2206 21.4921 32.237 21.4921C32.2616 21.4921 32.2917 21.4866 32.3163 21.4811C32.3683 21.4702 32.382 21.4125 32.3929 21.3357C32.4066 21.2258 32.4066 21.0172 32.4066 20.7674V20.3062C32.4066 19.8972 32.4066 19.8231 32.4011 19.7407C32.3956 19.6501 32.3765 19.6089 32.289 19.5925C32.2671 19.587 32.2233 19.5842 32.2015 19.5842C32.1905 19.5842 32.1796 19.5787 32.1796 19.5677C32.1796 19.5513 32.1933 19.5458 32.2206 19.5458C32.3382 19.5458 32.5023 19.554 32.516 19.554C32.5296 19.554 32.7211 19.5458 32.7976 19.5458C32.8277 19.5458 32.8387 19.5513 32.8387 19.5677C32.8387 19.5787 32.8277 19.5842 32.8168 19.5842C32.7976 19.5842 32.7621 19.5842 32.7293 19.5925C32.6527 19.6062 32.6335 19.6501 32.6281 19.7407C32.6226 19.8231 32.6226 19.8972 32.6226 20.3062V20.7729L32.6144 20.7811Z" fill="#231F20"/>
<path d="M36.0301 20.8662C36.0301 20.6548 36.0164 20.6246 35.9125 20.5972C35.8906 20.5917 35.8469 20.589 35.825 20.589C35.814 20.589 35.8031 20.5835 35.8031 20.5725C35.8031 20.556 35.8168 20.5505 35.8441 20.5505C35.9617 20.5505 36.1258 20.5588 36.1395 20.5588C36.1531 20.5588 36.3172 20.5505 36.3938 20.5505C36.4212 20.5505 36.4348 20.556 36.4348 20.5725C36.4348 20.5835 36.4239 20.589 36.4129 20.589C36.3938 20.589 36.3801 20.589 36.3473 20.5972C36.2762 20.6109 36.2571 20.6548 36.2516 20.7454C36.2461 20.8305 36.2461 20.9074 36.2461 21.02V21.3137C36.2461 21.4317 36.2434 21.4372 36.2133 21.4564C36.0465 21.547 35.8113 21.5745 35.6609 21.5745C35.4613 21.5745 35.0921 21.5498 34.8022 21.2945C34.6436 21.1545 34.4904 20.8745 34.4904 20.5478C34.4904 20.1278 34.6955 19.8313 34.928 19.6858C35.1632 19.5376 35.4202 19.5211 35.6226 19.5211C35.7867 19.5211 35.9727 19.554 36.0219 19.565C36.0766 19.5787 36.1696 19.5897 36.2325 19.5925C36.2598 19.5952 36.2653 19.6062 36.2653 19.6172C36.2653 19.6528 36.2461 19.727 36.2461 19.9905C36.2461 20.0317 36.2407 20.0454 36.2243 20.0454C36.2106 20.0454 36.2078 20.0289 36.2051 20.007C36.2051 19.9713 36.1887 19.8972 36.1504 19.834C36.0848 19.7352 35.8742 19.6227 35.5351 19.6227C35.371 19.6227 35.1741 19.6391 34.9772 19.7956C34.8268 19.9164 34.7174 20.1552 34.7174 20.4627C34.7174 20.8305 34.9034 21.0996 34.9936 21.1902C35.1987 21.3906 35.4367 21.4702 35.6773 21.4702C35.7703 21.4702 35.907 21.4537 35.9754 21.4153C36.0082 21.396 36.0274 21.3686 36.0274 21.3219V20.8772L36.0301 20.8662Z" fill="#231F20"/>
<path d="M37.0419 20.3117C37.0419 19.9027 37.0419 19.8285 37.0365 19.7462C37.031 19.6556 37.0091 19.6144 36.9243 19.5979C36.9025 19.5925 36.8587 19.5897 36.8368 19.5897C36.8259 19.5897 36.815 19.5842 36.815 19.5732C36.815 19.5568 36.8286 19.5513 36.856 19.5513C36.9736 19.5513 37.1377 19.5595 37.1513 19.5595C37.1814 19.5595 37.3783 19.5513 37.4604 19.5513C37.6244 19.5513 37.7995 19.5677 37.9389 19.6666C38.0046 19.7132 38.1194 19.8423 38.1194 20.0235C38.1194 20.2184 38.0401 20.4105 37.8022 20.6301C38.0155 20.9047 38.1933 21.138 38.3464 21.3027C38.4886 21.451 38.6007 21.4811 38.6636 21.4921C38.7129 21.5004 38.7511 21.5004 38.7648 21.5004C38.7785 21.5004 38.7894 21.5086 38.7894 21.5168C38.7894 21.5306 38.773 21.5388 38.7265 21.5388H38.5406C38.3929 21.5388 38.33 21.5251 38.2616 21.4894C38.1495 21.429 38.0593 21.3 37.9088 21.1051C37.7995 20.9596 37.6764 20.7839 37.6244 20.718C37.6135 20.707 37.6053 20.7015 37.5916 20.7015L37.2717 20.696C37.2717 20.696 37.2525 20.7043 37.2525 20.718V20.7811C37.2525 21.0337 37.2525 21.2396 37.2662 21.3494C37.2744 21.4262 37.2908 21.4839 37.3674 21.4949C37.4029 21.5004 37.4604 21.5059 37.485 21.5059C37.5014 21.5059 37.5068 21.5141 37.5068 21.5223C37.5068 21.5361 37.4932 21.5443 37.4658 21.5443C37.3236 21.5443 37.1568 21.5361 37.1459 21.5361C37.1459 21.5361 36.979 21.5443 36.8997 21.5443C36.8697 21.5443 36.8587 21.5388 36.8587 21.5223C36.8587 21.5141 36.8642 21.5059 36.8806 21.5059C36.9025 21.5059 36.9353 21.5004 36.9572 21.4949C37.0091 21.4839 37.0228 21.4262 37.0337 21.3494C37.0474 21.2396 37.0474 21.0309 37.0474 20.7811V20.3199L37.0419 20.3117ZM37.2498 20.5395C37.2498 20.5533 37.2552 20.5643 37.2689 20.5725C37.3072 20.5972 37.4275 20.6137 37.5424 20.6137C37.6053 20.6137 37.6791 20.6054 37.7393 20.5643C37.8295 20.5011 37.8979 20.3584 37.8979 20.1607C37.8979 19.834 37.7256 19.6364 37.4467 19.6364C37.3674 19.6364 37.299 19.6446 37.2717 19.6528C37.258 19.6583 37.2498 19.6693 37.2498 19.683V20.5395Z" fill="#231F20"/>
<path d="M39.7849 19.5156C40.3728 19.5156 40.8104 19.8889 40.8104 20.4984C40.8104 21.1078 40.3974 21.5717 39.7685 21.5717C39.052 21.5717 38.7539 21.0145 38.7539 20.5423C38.7539 20.1168 39.0629 19.5156 39.7821 19.5156H39.7849ZM39.8396 21.4729C40.0747 21.4729 40.5615 21.3357 40.5615 20.5725C40.5615 19.9438 40.1787 19.6062 39.7657 19.6062C39.3309 19.6062 39.0027 19.8944 39.0027 20.4682C39.0027 21.0803 39.3692 21.4729 39.8396 21.4729Z" fill="#231F20"/>
<path d="M41.2917 20.3117C41.2917 19.9027 41.2917 19.8285 41.2862 19.7462C41.2808 19.6556 41.2589 19.6144 41.1741 19.5979C41.1522 19.5925 41.1085 19.5897 41.0839 19.5897C41.0729 19.5897 41.062 19.5842 41.062 19.5732C41.062 19.5568 41.0757 19.5513 41.103 19.5513C41.2206 19.5513 41.3792 19.5595 41.4038 19.5595C41.4284 19.5595 41.5843 19.5513 41.6609 19.5513C41.691 19.5513 41.7019 19.5568 41.7019 19.5732C41.7019 19.5842 41.691 19.5897 41.68 19.5897C41.6609 19.5897 41.6472 19.5897 41.6144 19.5979C41.5433 19.6089 41.5242 19.6556 41.5187 19.7462C41.5132 19.8285 41.5132 19.9027 41.5132 20.3117V20.6796C41.5132 21.0584 41.598 21.2204 41.7101 21.3274C41.8386 21.4482 41.9562 21.4702 42.1039 21.4702C42.2625 21.4702 42.4211 21.396 42.5141 21.2807C42.6345 21.1325 42.6673 20.9074 42.6673 20.6384V20.309C42.6673 19.8999 42.6673 19.8258 42.6618 19.7434C42.6563 19.6528 42.6372 19.6117 42.5497 19.5952C42.5278 19.5897 42.484 19.587 42.4594 19.587C42.4485 19.587 42.4376 19.5815 42.4376 19.5705C42.4376 19.554 42.4512 19.5485 42.4813 19.5485C42.5989 19.5485 42.7411 19.5568 42.7575 19.5568C42.7767 19.5568 42.8997 19.5485 42.9763 19.5485C43.0064 19.5485 43.0173 19.554 43.0173 19.5705C43.0173 19.5815 43.0064 19.587 42.9954 19.587C42.9763 19.587 42.9626 19.587 42.9298 19.5952C42.8587 19.6117 42.8396 19.6528 42.8341 19.7434C42.8286 19.8258 42.8286 19.8999 42.8286 20.309V20.5917C42.8286 20.8745 42.7958 21.1902 42.588 21.3768C42.3993 21.5443 42.2024 21.5717 42.0492 21.5717C41.9617 21.5717 41.6964 21.5608 41.5105 21.3851C41.3819 21.2615 41.2835 21.0776 41.2835 20.696V20.3117H41.2917Z" fill="#231F20"/>
<path d="M43.6108 20.3117C43.6108 19.9027 43.6108 19.8285 43.6053 19.7462C43.5998 19.6556 43.5807 19.6144 43.4932 19.5979C43.4713 19.5925 43.4275 19.5897 43.4057 19.5897C43.3947 19.5897 43.3838 19.5842 43.3838 19.5732C43.3838 19.5568 43.3974 19.5513 43.4248 19.5513C43.5424 19.5513 43.6983 19.5595 43.7201 19.5595C43.7776 19.5595 43.9307 19.5513 44.051 19.5513C44.3765 19.5513 44.4941 19.6611 44.5378 19.6995C44.5953 19.7544 44.6691 19.8725 44.6691 20.0125C44.6691 20.3858 44.3984 20.6356 44.0264 20.6356C44.0128 20.6356 43.9854 20.6356 43.9717 20.6356C43.9581 20.6356 43.9417 20.6301 43.9417 20.6164C43.9417 20.5972 43.9581 20.5945 44.0128 20.5945C44.2671 20.5945 44.464 20.4078 44.464 20.1662C44.464 20.0784 44.4558 19.9054 44.3163 19.7627C44.1768 19.6199 44.0182 19.6309 43.9581 19.6309C43.9143 19.6309 43.8706 19.6364 43.8459 19.6474C43.8295 19.6528 43.8241 19.6693 43.8241 19.6968V20.7756C43.8241 21.0282 43.8241 21.2341 43.8377 21.3439C43.8459 21.4208 43.8624 21.4784 43.9389 21.4894C43.9745 21.4949 44.0319 21.5004 44.0565 21.5004C44.0729 21.5004 44.0784 21.5086 44.0784 21.5168C44.0784 21.5306 44.0647 21.5388 44.0374 21.5388C43.8924 21.5388 43.7284 21.5306 43.7174 21.5306C43.7092 21.5306 43.5451 21.5388 43.4658 21.5388C43.4357 21.5388 43.4248 21.5333 43.4248 21.5168C43.4248 21.5086 43.4303 21.5004 43.4467 21.5004C43.4713 21.5004 43.5014 21.4949 43.526 21.4894C43.5779 21.4784 43.5916 21.4208 43.6026 21.3439C43.6162 21.2341 43.6162 21.0254 43.6162 20.7756V20.3144L43.6108 20.3117Z" fill="#231F20"/>
<path d="M21.5798 19.3015L21.8806 19.8642H22.5643L21.5934 18.1155L20.6171 19.8642H21.2817L21.5798 19.3015Z" fill="#B11116"/>
<path d="M22.4822 20.987H23.1194V21.5278H22.7694L23.0237 22H23.7539L22.8651 20.405H22.1677L22.4822 20.987Z" fill="#B11116"/>
<path d="M20.0921 21.5278V20.987H20.6883L20.9973 20.405H20.3136L19.4248 22H20.155L20.4038 21.5278H20.0921Z" fill="#B11116"/>
<path d="M20.0921 20.987V21.5278H20.4038L20.6882 20.987H20.0921Z" fill="#B11116"/>
<path d="M23.1194 20.987H22.4822L22.7694 21.5278H23.1194V20.987Z" fill="#B11116"/>
<path d="M20.6883 20.987L20.4038 21.5278H22.7694L22.4822 20.987H20.6883Z" fill="#B11116"/>
<path d="M0.101181 17.4512H44.7238" stroke="#231F20" stroke-width="0.25"/>
</g>
</g>
<defs>
<clipPath id="clip0_12_3219">
<rect width="45" height="22" fill="white"/>
</clipPath>
<clipPath id="clip1_12_3219">
<rect width="45" height="22" fill="white"/>
</clipPath>
</defs>
</svg>
