<svg width="14" height="18" viewBox="0 0 14 18" fill="none" xmlns="http://www.w3.org/2000/svg">
<path d="M7 9.83332C6.74629 9.83036 6.49777 9.90519 6.28787 10.0477C6.07798 10.1903 5.91679 10.3937 5.82601 10.6307C5.73524 10.8676 5.71922 11.1266 5.78013 11.373C5.84103 11.6193 5.97593 11.841 6.16667 12.0083V13.1667C6.16667 13.3877 6.25447 13.5996 6.41075 13.7559C6.56703 13.9122 6.77899 14 7 14C7.22102 14 7.43298 13.9122 7.58926 13.7559C7.74554 13.5996 7.83334 13.3877 7.83334 13.1667V12.0083C8.02407 11.841 8.15897 11.6193 8.21988 11.373C8.28078 11.1266 8.26477 10.8676 8.17399 10.6307C8.08321 10.3937 7.92203 10.1903 7.71213 10.0477C7.50224 9.90519 7.25371 9.83036 7 9.83332ZM11.1667 6.49999V4.83332C11.1667 3.72825 10.7277 2.66845 9.94628 1.88704C9.16488 1.10564 8.10507 0.666656 7 0.666656C5.89493 0.666656 4.83513 1.10564 4.05372 1.88704C3.27232 2.66845 2.83334 3.72825 2.83334 4.83332V6.49999C2.17029 6.49999 1.53441 6.76338 1.06557 7.23222C0.596728 7.70106 0.333336 8.33695 0.333336 8.99999V14.8333C0.333336 15.4964 0.596728 16.1322 1.06557 16.6011C1.53441 17.0699 2.17029 17.3333 2.83334 17.3333H11.1667C11.8297 17.3333 12.4656 17.0699 12.9344 16.6011C13.4033 16.1322 13.6667 15.4964 13.6667 14.8333V8.99999C13.6667 8.33695 13.4033 7.70106 12.9344 7.23222C12.4656 6.76338 11.8297 6.49999 11.1667 6.49999ZM4.5 4.83332C4.5 4.17028 4.76339 3.5344 5.23224 3.06556C5.70108 2.59672 6.33696 2.33332 7 2.33332C7.66304 2.33332 8.29893 2.59672 8.76777 3.06556C9.23661 3.5344 9.5 4.17028 9.5 4.83332V6.49999H4.5V4.83332ZM12 14.8333C12 15.0543 11.9122 15.2663 11.7559 15.4226C11.5996 15.5789 11.3877 15.6667 11.1667 15.6667H2.83334C2.61232 15.6667 2.40036 15.5789 2.24408 15.4226C2.0878 15.2663 2 15.0543 2 14.8333V8.99999C2 8.77898 2.0878 8.56701 2.24408 8.41073C2.40036 8.25445 2.61232 8.16666 2.83334 8.16666H11.1667C11.3877 8.16666 11.5996 8.25445 11.7559 8.41073C11.9122 8.56701 12 8.77898 12 8.99999V14.8333Z" fill="#6E6E6E"/>
</svg>
