<svg width="12" height="16" viewBox="0 0 12 16" fill="none" xmlns="http://www.w3.org/2000/svg">
<path d="M6 7.16667C6.65928 7.16667 7.30374 6.97117 7.85191 6.6049C8.40007 6.23863 8.82731 5.71803 9.0796 5.10895C9.3319 4.49986 9.39791 3.82964 9.26929 3.18303C9.14067 2.53643 8.8232 1.94249 8.35703 1.47631C7.89085 1.01014 7.29691 0.692668 6.65031 0.564051C6.0037 0.435433 5.33348 0.501444 4.72439 0.753736C4.11531 1.00603 3.59471 1.43327 3.22844 1.98143C2.86217 2.5296 2.66667 3.17406 2.66667 3.83334C2.66667 4.71739 3.01786 5.56524 3.64298 6.19036C4.2681 6.81548 5.11595 7.16667 6 7.16667ZM11 15.5C11.221 15.5 11.433 15.4122 11.5893 15.2559C11.7455 15.0996 11.8333 14.8877 11.8333 14.6667C11.8333 13.1196 11.2188 11.6358 10.1248 10.5419C9.03083 9.44792 7.5471 8.83333 6 8.83333C4.45291 8.83333 2.96918 9.44792 1.87522 10.5419C0.781253 11.6358 0.166672 13.1196 0.166672 14.6667C0.166672 14.8877 0.254469 15.0996 0.41075 15.2559C0.56703 15.4122 0.778991 15.5 1.00001 15.5H11Z" fill="#6E6E6E"/>
</svg>
